G75*
%MOIN*%
%OFA0B0*%
%FSLAX25Y25*%
%IPPOS*%
%LPD*%
%AMOC8*
5,1,8,0,0,1.08239X$1,22.5*
%
%ADD10C,0.00000*%
D10*
X0020179Y0009300D02*
X0020179Y0339261D01*
X0200130Y0339261D01*
X0200130Y0009300D01*
X0020179Y0009300D01*
X0056429Y0103050D02*
X0056431Y0103234D01*
X0056438Y0103418D01*
X0056449Y0103602D01*
X0056465Y0103785D01*
X0056485Y0103968D01*
X0056510Y0104150D01*
X0056539Y0104332D01*
X0056573Y0104513D01*
X0056611Y0104693D01*
X0056654Y0104872D01*
X0056701Y0105050D01*
X0056752Y0105227D01*
X0056808Y0105403D01*
X0056867Y0105577D01*
X0056932Y0105749D01*
X0057000Y0105920D01*
X0057072Y0106089D01*
X0057149Y0106257D01*
X0057230Y0106422D01*
X0057315Y0106585D01*
X0057403Y0106747D01*
X0057496Y0106906D01*
X0057593Y0107062D01*
X0057693Y0107217D01*
X0057797Y0107369D01*
X0057905Y0107518D01*
X0058016Y0107664D01*
X0058131Y0107808D01*
X0058250Y0107949D01*
X0058372Y0108087D01*
X0058497Y0108222D01*
X0058626Y0108353D01*
X0058757Y0108482D01*
X0058892Y0108607D01*
X0059030Y0108729D01*
X0059171Y0108848D01*
X0059315Y0108963D01*
X0059461Y0109074D01*
X0059610Y0109182D01*
X0059762Y0109286D01*
X0059917Y0109386D01*
X0060073Y0109483D01*
X0060232Y0109576D01*
X0060394Y0109664D01*
X0060557Y0109749D01*
X0060722Y0109830D01*
X0060890Y0109907D01*
X0061059Y0109979D01*
X0061230Y0110047D01*
X0061402Y0110112D01*
X0061576Y0110171D01*
X0061752Y0110227D01*
X0061929Y0110278D01*
X0062107Y0110325D01*
X0062286Y0110368D01*
X0062466Y0110406D01*
X0062647Y0110440D01*
X0062829Y0110469D01*
X0063011Y0110494D01*
X0063194Y0110514D01*
X0063377Y0110530D01*
X0063561Y0110541D01*
X0063745Y0110548D01*
X0063929Y0110550D01*
X0064113Y0110548D01*
X0064297Y0110541D01*
X0064481Y0110530D01*
X0064664Y0110514D01*
X0064847Y0110494D01*
X0065029Y0110469D01*
X0065211Y0110440D01*
X0065392Y0110406D01*
X0065572Y0110368D01*
X0065751Y0110325D01*
X0065929Y0110278D01*
X0066106Y0110227D01*
X0066282Y0110171D01*
X0066456Y0110112D01*
X0066628Y0110047D01*
X0066799Y0109979D01*
X0066968Y0109907D01*
X0067136Y0109830D01*
X0067301Y0109749D01*
X0067464Y0109664D01*
X0067626Y0109576D01*
X0067785Y0109483D01*
X0067941Y0109386D01*
X0068096Y0109286D01*
X0068248Y0109182D01*
X0068397Y0109074D01*
X0068543Y0108963D01*
X0068687Y0108848D01*
X0068828Y0108729D01*
X0068966Y0108607D01*
X0069101Y0108482D01*
X0069232Y0108353D01*
X0069361Y0108222D01*
X0069486Y0108087D01*
X0069608Y0107949D01*
X0069727Y0107808D01*
X0069842Y0107664D01*
X0069953Y0107518D01*
X0070061Y0107369D01*
X0070165Y0107217D01*
X0070265Y0107062D01*
X0070362Y0106906D01*
X0070455Y0106747D01*
X0070543Y0106585D01*
X0070628Y0106422D01*
X0070709Y0106257D01*
X0070786Y0106089D01*
X0070858Y0105920D01*
X0070926Y0105749D01*
X0070991Y0105577D01*
X0071050Y0105403D01*
X0071106Y0105227D01*
X0071157Y0105050D01*
X0071204Y0104872D01*
X0071247Y0104693D01*
X0071285Y0104513D01*
X0071319Y0104332D01*
X0071348Y0104150D01*
X0071373Y0103968D01*
X0071393Y0103785D01*
X0071409Y0103602D01*
X0071420Y0103418D01*
X0071427Y0103234D01*
X0071429Y0103050D01*
X0071427Y0102866D01*
X0071420Y0102682D01*
X0071409Y0102498D01*
X0071393Y0102315D01*
X0071373Y0102132D01*
X0071348Y0101950D01*
X0071319Y0101768D01*
X0071285Y0101587D01*
X0071247Y0101407D01*
X0071204Y0101228D01*
X0071157Y0101050D01*
X0071106Y0100873D01*
X0071050Y0100697D01*
X0070991Y0100523D01*
X0070926Y0100351D01*
X0070858Y0100180D01*
X0070786Y0100011D01*
X0070709Y0099843D01*
X0070628Y0099678D01*
X0070543Y0099515D01*
X0070455Y0099353D01*
X0070362Y0099194D01*
X0070265Y0099038D01*
X0070165Y0098883D01*
X0070061Y0098731D01*
X0069953Y0098582D01*
X0069842Y0098436D01*
X0069727Y0098292D01*
X0069608Y0098151D01*
X0069486Y0098013D01*
X0069361Y0097878D01*
X0069232Y0097747D01*
X0069101Y0097618D01*
X0068966Y0097493D01*
X0068828Y0097371D01*
X0068687Y0097252D01*
X0068543Y0097137D01*
X0068397Y0097026D01*
X0068248Y0096918D01*
X0068096Y0096814D01*
X0067941Y0096714D01*
X0067785Y0096617D01*
X0067626Y0096524D01*
X0067464Y0096436D01*
X0067301Y0096351D01*
X0067136Y0096270D01*
X0066968Y0096193D01*
X0066799Y0096121D01*
X0066628Y0096053D01*
X0066456Y0095988D01*
X0066282Y0095929D01*
X0066106Y0095873D01*
X0065929Y0095822D01*
X0065751Y0095775D01*
X0065572Y0095732D01*
X0065392Y0095694D01*
X0065211Y0095660D01*
X0065029Y0095631D01*
X0064847Y0095606D01*
X0064664Y0095586D01*
X0064481Y0095570D01*
X0064297Y0095559D01*
X0064113Y0095552D01*
X0063929Y0095550D01*
X0063745Y0095552D01*
X0063561Y0095559D01*
X0063377Y0095570D01*
X0063194Y0095586D01*
X0063011Y0095606D01*
X0062829Y0095631D01*
X0062647Y0095660D01*
X0062466Y0095694D01*
X0062286Y0095732D01*
X0062107Y0095775D01*
X0061929Y0095822D01*
X0061752Y0095873D01*
X0061576Y0095929D01*
X0061402Y0095988D01*
X0061230Y0096053D01*
X0061059Y0096121D01*
X0060890Y0096193D01*
X0060722Y0096270D01*
X0060557Y0096351D01*
X0060394Y0096436D01*
X0060232Y0096524D01*
X0060073Y0096617D01*
X0059917Y0096714D01*
X0059762Y0096814D01*
X0059610Y0096918D01*
X0059461Y0097026D01*
X0059315Y0097137D01*
X0059171Y0097252D01*
X0059030Y0097371D01*
X0058892Y0097493D01*
X0058757Y0097618D01*
X0058626Y0097747D01*
X0058497Y0097878D01*
X0058372Y0098013D01*
X0058250Y0098151D01*
X0058131Y0098292D01*
X0058016Y0098436D01*
X0057905Y0098582D01*
X0057797Y0098731D01*
X0057693Y0098883D01*
X0057593Y0099038D01*
X0057496Y0099194D01*
X0057403Y0099353D01*
X0057315Y0099515D01*
X0057230Y0099678D01*
X0057149Y0099843D01*
X0057072Y0100011D01*
X0057000Y0100180D01*
X0056932Y0100351D01*
X0056867Y0100523D01*
X0056808Y0100697D01*
X0056752Y0100873D01*
X0056701Y0101050D01*
X0056654Y0101228D01*
X0056611Y0101407D01*
X0056573Y0101587D01*
X0056539Y0101768D01*
X0056510Y0101950D01*
X0056485Y0102132D01*
X0056465Y0102315D01*
X0056449Y0102498D01*
X0056438Y0102682D01*
X0056431Y0102866D01*
X0056429Y0103050D01*
X0025179Y0235550D02*
X0025181Y0235734D01*
X0025188Y0235918D01*
X0025199Y0236102D01*
X0025215Y0236285D01*
X0025235Y0236468D01*
X0025260Y0236650D01*
X0025289Y0236832D01*
X0025323Y0237013D01*
X0025361Y0237193D01*
X0025404Y0237372D01*
X0025451Y0237550D01*
X0025502Y0237727D01*
X0025558Y0237903D01*
X0025617Y0238077D01*
X0025682Y0238249D01*
X0025750Y0238420D01*
X0025822Y0238589D01*
X0025899Y0238757D01*
X0025980Y0238922D01*
X0026065Y0239085D01*
X0026153Y0239247D01*
X0026246Y0239406D01*
X0026343Y0239562D01*
X0026443Y0239717D01*
X0026547Y0239869D01*
X0026655Y0240018D01*
X0026766Y0240164D01*
X0026881Y0240308D01*
X0027000Y0240449D01*
X0027122Y0240587D01*
X0027247Y0240722D01*
X0027376Y0240853D01*
X0027507Y0240982D01*
X0027642Y0241107D01*
X0027780Y0241229D01*
X0027921Y0241348D01*
X0028065Y0241463D01*
X0028211Y0241574D01*
X0028360Y0241682D01*
X0028512Y0241786D01*
X0028667Y0241886D01*
X0028823Y0241983D01*
X0028982Y0242076D01*
X0029144Y0242164D01*
X0029307Y0242249D01*
X0029472Y0242330D01*
X0029640Y0242407D01*
X0029809Y0242479D01*
X0029980Y0242547D01*
X0030152Y0242612D01*
X0030326Y0242671D01*
X0030502Y0242727D01*
X0030679Y0242778D01*
X0030857Y0242825D01*
X0031036Y0242868D01*
X0031216Y0242906D01*
X0031397Y0242940D01*
X0031579Y0242969D01*
X0031761Y0242994D01*
X0031944Y0243014D01*
X0032127Y0243030D01*
X0032311Y0243041D01*
X0032495Y0243048D01*
X0032679Y0243050D01*
X0032863Y0243048D01*
X0033047Y0243041D01*
X0033231Y0243030D01*
X0033414Y0243014D01*
X0033597Y0242994D01*
X0033779Y0242969D01*
X0033961Y0242940D01*
X0034142Y0242906D01*
X0034322Y0242868D01*
X0034501Y0242825D01*
X0034679Y0242778D01*
X0034856Y0242727D01*
X0035032Y0242671D01*
X0035206Y0242612D01*
X0035378Y0242547D01*
X0035549Y0242479D01*
X0035718Y0242407D01*
X0035886Y0242330D01*
X0036051Y0242249D01*
X0036214Y0242164D01*
X0036376Y0242076D01*
X0036535Y0241983D01*
X0036691Y0241886D01*
X0036846Y0241786D01*
X0036998Y0241682D01*
X0037147Y0241574D01*
X0037293Y0241463D01*
X0037437Y0241348D01*
X0037578Y0241229D01*
X0037716Y0241107D01*
X0037851Y0240982D01*
X0037982Y0240853D01*
X0038111Y0240722D01*
X0038236Y0240587D01*
X0038358Y0240449D01*
X0038477Y0240308D01*
X0038592Y0240164D01*
X0038703Y0240018D01*
X0038811Y0239869D01*
X0038915Y0239717D01*
X0039015Y0239562D01*
X0039112Y0239406D01*
X0039205Y0239247D01*
X0039293Y0239085D01*
X0039378Y0238922D01*
X0039459Y0238757D01*
X0039536Y0238589D01*
X0039608Y0238420D01*
X0039676Y0238249D01*
X0039741Y0238077D01*
X0039800Y0237903D01*
X0039856Y0237727D01*
X0039907Y0237550D01*
X0039954Y0237372D01*
X0039997Y0237193D01*
X0040035Y0237013D01*
X0040069Y0236832D01*
X0040098Y0236650D01*
X0040123Y0236468D01*
X0040143Y0236285D01*
X0040159Y0236102D01*
X0040170Y0235918D01*
X0040177Y0235734D01*
X0040179Y0235550D01*
X0040177Y0235366D01*
X0040170Y0235182D01*
X0040159Y0234998D01*
X0040143Y0234815D01*
X0040123Y0234632D01*
X0040098Y0234450D01*
X0040069Y0234268D01*
X0040035Y0234087D01*
X0039997Y0233907D01*
X0039954Y0233728D01*
X0039907Y0233550D01*
X0039856Y0233373D01*
X0039800Y0233197D01*
X0039741Y0233023D01*
X0039676Y0232851D01*
X0039608Y0232680D01*
X0039536Y0232511D01*
X0039459Y0232343D01*
X0039378Y0232178D01*
X0039293Y0232015D01*
X0039205Y0231853D01*
X0039112Y0231694D01*
X0039015Y0231538D01*
X0038915Y0231383D01*
X0038811Y0231231D01*
X0038703Y0231082D01*
X0038592Y0230936D01*
X0038477Y0230792D01*
X0038358Y0230651D01*
X0038236Y0230513D01*
X0038111Y0230378D01*
X0037982Y0230247D01*
X0037851Y0230118D01*
X0037716Y0229993D01*
X0037578Y0229871D01*
X0037437Y0229752D01*
X0037293Y0229637D01*
X0037147Y0229526D01*
X0036998Y0229418D01*
X0036846Y0229314D01*
X0036691Y0229214D01*
X0036535Y0229117D01*
X0036376Y0229024D01*
X0036214Y0228936D01*
X0036051Y0228851D01*
X0035886Y0228770D01*
X0035718Y0228693D01*
X0035549Y0228621D01*
X0035378Y0228553D01*
X0035206Y0228488D01*
X0035032Y0228429D01*
X0034856Y0228373D01*
X0034679Y0228322D01*
X0034501Y0228275D01*
X0034322Y0228232D01*
X0034142Y0228194D01*
X0033961Y0228160D01*
X0033779Y0228131D01*
X0033597Y0228106D01*
X0033414Y0228086D01*
X0033231Y0228070D01*
X0033047Y0228059D01*
X0032863Y0228052D01*
X0032679Y0228050D01*
X0032495Y0228052D01*
X0032311Y0228059D01*
X0032127Y0228070D01*
X0031944Y0228086D01*
X0031761Y0228106D01*
X0031579Y0228131D01*
X0031397Y0228160D01*
X0031216Y0228194D01*
X0031036Y0228232D01*
X0030857Y0228275D01*
X0030679Y0228322D01*
X0030502Y0228373D01*
X0030326Y0228429D01*
X0030152Y0228488D01*
X0029980Y0228553D01*
X0029809Y0228621D01*
X0029640Y0228693D01*
X0029472Y0228770D01*
X0029307Y0228851D01*
X0029144Y0228936D01*
X0028982Y0229024D01*
X0028823Y0229117D01*
X0028667Y0229214D01*
X0028512Y0229314D01*
X0028360Y0229418D01*
X0028211Y0229526D01*
X0028065Y0229637D01*
X0027921Y0229752D01*
X0027780Y0229871D01*
X0027642Y0229993D01*
X0027507Y0230118D01*
X0027376Y0230247D01*
X0027247Y0230378D01*
X0027122Y0230513D01*
X0027000Y0230651D01*
X0026881Y0230792D01*
X0026766Y0230936D01*
X0026655Y0231082D01*
X0026547Y0231231D01*
X0026443Y0231383D01*
X0026343Y0231538D01*
X0026246Y0231694D01*
X0026153Y0231853D01*
X0026065Y0232015D01*
X0025980Y0232178D01*
X0025899Y0232343D01*
X0025822Y0232511D01*
X0025750Y0232680D01*
X0025682Y0232851D01*
X0025617Y0233023D01*
X0025558Y0233197D01*
X0025502Y0233373D01*
X0025451Y0233550D01*
X0025404Y0233728D01*
X0025361Y0233907D01*
X0025323Y0234087D01*
X0025289Y0234268D01*
X0025260Y0234450D01*
X0025235Y0234632D01*
X0025215Y0234815D01*
X0025199Y0234998D01*
X0025188Y0235182D01*
X0025181Y0235366D01*
X0025179Y0235550D01*
X0171429Y0235550D02*
X0171431Y0235734D01*
X0171438Y0235918D01*
X0171449Y0236102D01*
X0171465Y0236285D01*
X0171485Y0236468D01*
X0171510Y0236650D01*
X0171539Y0236832D01*
X0171573Y0237013D01*
X0171611Y0237193D01*
X0171654Y0237372D01*
X0171701Y0237550D01*
X0171752Y0237727D01*
X0171808Y0237903D01*
X0171867Y0238077D01*
X0171932Y0238249D01*
X0172000Y0238420D01*
X0172072Y0238589D01*
X0172149Y0238757D01*
X0172230Y0238922D01*
X0172315Y0239085D01*
X0172403Y0239247D01*
X0172496Y0239406D01*
X0172593Y0239562D01*
X0172693Y0239717D01*
X0172797Y0239869D01*
X0172905Y0240018D01*
X0173016Y0240164D01*
X0173131Y0240308D01*
X0173250Y0240449D01*
X0173372Y0240587D01*
X0173497Y0240722D01*
X0173626Y0240853D01*
X0173757Y0240982D01*
X0173892Y0241107D01*
X0174030Y0241229D01*
X0174171Y0241348D01*
X0174315Y0241463D01*
X0174461Y0241574D01*
X0174610Y0241682D01*
X0174762Y0241786D01*
X0174917Y0241886D01*
X0175073Y0241983D01*
X0175232Y0242076D01*
X0175394Y0242164D01*
X0175557Y0242249D01*
X0175722Y0242330D01*
X0175890Y0242407D01*
X0176059Y0242479D01*
X0176230Y0242547D01*
X0176402Y0242612D01*
X0176576Y0242671D01*
X0176752Y0242727D01*
X0176929Y0242778D01*
X0177107Y0242825D01*
X0177286Y0242868D01*
X0177466Y0242906D01*
X0177647Y0242940D01*
X0177829Y0242969D01*
X0178011Y0242994D01*
X0178194Y0243014D01*
X0178377Y0243030D01*
X0178561Y0243041D01*
X0178745Y0243048D01*
X0178929Y0243050D01*
X0179113Y0243048D01*
X0179297Y0243041D01*
X0179481Y0243030D01*
X0179664Y0243014D01*
X0179847Y0242994D01*
X0180029Y0242969D01*
X0180211Y0242940D01*
X0180392Y0242906D01*
X0180572Y0242868D01*
X0180751Y0242825D01*
X0180929Y0242778D01*
X0181106Y0242727D01*
X0181282Y0242671D01*
X0181456Y0242612D01*
X0181628Y0242547D01*
X0181799Y0242479D01*
X0181968Y0242407D01*
X0182136Y0242330D01*
X0182301Y0242249D01*
X0182464Y0242164D01*
X0182626Y0242076D01*
X0182785Y0241983D01*
X0182941Y0241886D01*
X0183096Y0241786D01*
X0183248Y0241682D01*
X0183397Y0241574D01*
X0183543Y0241463D01*
X0183687Y0241348D01*
X0183828Y0241229D01*
X0183966Y0241107D01*
X0184101Y0240982D01*
X0184232Y0240853D01*
X0184361Y0240722D01*
X0184486Y0240587D01*
X0184608Y0240449D01*
X0184727Y0240308D01*
X0184842Y0240164D01*
X0184953Y0240018D01*
X0185061Y0239869D01*
X0185165Y0239717D01*
X0185265Y0239562D01*
X0185362Y0239406D01*
X0185455Y0239247D01*
X0185543Y0239085D01*
X0185628Y0238922D01*
X0185709Y0238757D01*
X0185786Y0238589D01*
X0185858Y0238420D01*
X0185926Y0238249D01*
X0185991Y0238077D01*
X0186050Y0237903D01*
X0186106Y0237727D01*
X0186157Y0237550D01*
X0186204Y0237372D01*
X0186247Y0237193D01*
X0186285Y0237013D01*
X0186319Y0236832D01*
X0186348Y0236650D01*
X0186373Y0236468D01*
X0186393Y0236285D01*
X0186409Y0236102D01*
X0186420Y0235918D01*
X0186427Y0235734D01*
X0186429Y0235550D01*
X0186427Y0235366D01*
X0186420Y0235182D01*
X0186409Y0234998D01*
X0186393Y0234815D01*
X0186373Y0234632D01*
X0186348Y0234450D01*
X0186319Y0234268D01*
X0186285Y0234087D01*
X0186247Y0233907D01*
X0186204Y0233728D01*
X0186157Y0233550D01*
X0186106Y0233373D01*
X0186050Y0233197D01*
X0185991Y0233023D01*
X0185926Y0232851D01*
X0185858Y0232680D01*
X0185786Y0232511D01*
X0185709Y0232343D01*
X0185628Y0232178D01*
X0185543Y0232015D01*
X0185455Y0231853D01*
X0185362Y0231694D01*
X0185265Y0231538D01*
X0185165Y0231383D01*
X0185061Y0231231D01*
X0184953Y0231082D01*
X0184842Y0230936D01*
X0184727Y0230792D01*
X0184608Y0230651D01*
X0184486Y0230513D01*
X0184361Y0230378D01*
X0184232Y0230247D01*
X0184101Y0230118D01*
X0183966Y0229993D01*
X0183828Y0229871D01*
X0183687Y0229752D01*
X0183543Y0229637D01*
X0183397Y0229526D01*
X0183248Y0229418D01*
X0183096Y0229314D01*
X0182941Y0229214D01*
X0182785Y0229117D01*
X0182626Y0229024D01*
X0182464Y0228936D01*
X0182301Y0228851D01*
X0182136Y0228770D01*
X0181968Y0228693D01*
X0181799Y0228621D01*
X0181628Y0228553D01*
X0181456Y0228488D01*
X0181282Y0228429D01*
X0181106Y0228373D01*
X0180929Y0228322D01*
X0180751Y0228275D01*
X0180572Y0228232D01*
X0180392Y0228194D01*
X0180211Y0228160D01*
X0180029Y0228131D01*
X0179847Y0228106D01*
X0179664Y0228086D01*
X0179481Y0228070D01*
X0179297Y0228059D01*
X0179113Y0228052D01*
X0178929Y0228050D01*
X0178745Y0228052D01*
X0178561Y0228059D01*
X0178377Y0228070D01*
X0178194Y0228086D01*
X0178011Y0228106D01*
X0177829Y0228131D01*
X0177647Y0228160D01*
X0177466Y0228194D01*
X0177286Y0228232D01*
X0177107Y0228275D01*
X0176929Y0228322D01*
X0176752Y0228373D01*
X0176576Y0228429D01*
X0176402Y0228488D01*
X0176230Y0228553D01*
X0176059Y0228621D01*
X0175890Y0228693D01*
X0175722Y0228770D01*
X0175557Y0228851D01*
X0175394Y0228936D01*
X0175232Y0229024D01*
X0175073Y0229117D01*
X0174917Y0229214D01*
X0174762Y0229314D01*
X0174610Y0229418D01*
X0174461Y0229526D01*
X0174315Y0229637D01*
X0174171Y0229752D01*
X0174030Y0229871D01*
X0173892Y0229993D01*
X0173757Y0230118D01*
X0173626Y0230247D01*
X0173497Y0230378D01*
X0173372Y0230513D01*
X0173250Y0230651D01*
X0173131Y0230792D01*
X0173016Y0230936D01*
X0172905Y0231082D01*
X0172797Y0231231D01*
X0172693Y0231383D01*
X0172593Y0231538D01*
X0172496Y0231694D01*
X0172403Y0231853D01*
X0172315Y0232015D01*
X0172230Y0232178D01*
X0172149Y0232343D01*
X0172072Y0232511D01*
X0172000Y0232680D01*
X0171932Y0232851D01*
X0171867Y0233023D01*
X0171808Y0233197D01*
X0171752Y0233373D01*
X0171701Y0233550D01*
X0171654Y0233728D01*
X0171611Y0233907D01*
X0171573Y0234087D01*
X0171539Y0234268D01*
X0171510Y0234450D01*
X0171485Y0234632D01*
X0171465Y0234815D01*
X0171449Y0234998D01*
X0171438Y0235182D01*
X0171431Y0235366D01*
X0171429Y0235550D01*
M02*
