G75*
%MOIN*%
%OFA0B0*%
%FSLAX25Y25*%
%IPPOS*%
%LPD*%
%AMOC8*
5,1,8,0,0,1.08239X$1,22.5*
%
%ADD10C,0.15600*%
%ADD11R,0.05718X0.06506*%
%ADD12R,0.06506X0.05718*%
%ADD13R,0.07698X0.06899*%
%ADD14C,0.06309*%
%ADD15C,0.08277*%
%ADD16R,0.05324X0.05324*%
%ADD17R,0.41200X0.35700*%
%ADD18R,0.05800X0.15200*%
%ADD19R,0.06112X0.04931*%
%ADD20R,0.04931X0.06112*%
%ADD21R,0.26584X0.10206*%
%ADD22R,0.08041X0.10206*%
%ADD23R,0.02962X0.06309*%
%ADD24R,0.02962X0.06112*%
%ADD25R,0.02800X0.10443*%
%ADD26R,0.04537X0.04261*%
%ADD27R,0.05718X0.03750*%
%ADD28C,0.05324*%
%ADD29C,0.11100*%
%ADD30R,0.06899X0.07687*%
%ADD31R,0.21500X0.07000*%
%ADD32C,0.03553*%
D10*
X0063929Y0103050D03*
X0032679Y0235550D03*
X0178929Y0235550D03*
D11*
X0137669Y0149300D03*
X0130189Y0149300D03*
X0166439Y0095550D03*
X0173919Y0095550D03*
X0173919Y0075550D03*
X0166439Y0075550D03*
X0155169Y0030550D03*
X0147689Y0030550D03*
X0093919Y0071800D03*
X0086439Y0071800D03*
X0072669Y0071800D03*
X0065189Y0071800D03*
X0055169Y0149300D03*
X0047689Y0149300D03*
X0056439Y0176800D03*
X0063919Y0176800D03*
D12*
X0147679Y0174290D03*
X0147679Y0166810D03*
X0147679Y0158040D03*
X0147679Y0150560D03*
X0150179Y0209310D03*
X0150179Y0216790D03*
X0157679Y0216790D03*
X0157679Y0209310D03*
X0166429Y0055540D03*
X0166429Y0048060D03*
X0136429Y0051790D03*
X0136429Y0044310D03*
D13*
X0063929Y0157452D03*
X0063929Y0168648D03*
D14*
X0100336Y0028130D03*
X0120021Y0028130D03*
D15*
X0123958Y0017500D03*
X0096399Y0017500D03*
D16*
X0147679Y0135166D03*
X0147679Y0143434D03*
X0032679Y0155166D03*
X0032679Y0163434D03*
D17*
X0050179Y0298100D03*
X0098929Y0298100D03*
X0147679Y0298100D03*
D18*
X0157679Y0256337D03*
X0137679Y0256337D03*
X0108929Y0256337D03*
X0088929Y0256337D03*
X0060179Y0256337D03*
X0040179Y0256337D03*
D19*
X0072679Y0244487D03*
X0072679Y0236613D03*
X0025179Y0163237D03*
X0025179Y0155363D03*
X0056429Y0133237D03*
X0056429Y0125363D03*
X0063929Y0063237D03*
X0063929Y0055363D03*
X0072679Y0055363D03*
X0072679Y0063237D03*
X0085179Y0063237D03*
X0085179Y0055363D03*
X0093929Y0055363D03*
X0093929Y0063237D03*
X0170179Y0038237D03*
X0170179Y0030363D03*
X0178929Y0030363D03*
X0178929Y0038237D03*
X0187679Y0038237D03*
X0187679Y0030363D03*
X0158929Y0235363D03*
X0158929Y0243237D03*
X0147679Y0243237D03*
X0140179Y0243237D03*
X0140179Y0235363D03*
X0147679Y0235363D03*
D20*
X0141616Y0224300D03*
X0141616Y0216800D03*
X0141616Y0209300D03*
X0141616Y0201800D03*
X0133742Y0201800D03*
X0133742Y0209300D03*
X0133742Y0216800D03*
X0133742Y0224300D03*
X0125366Y0244300D03*
X0117492Y0244300D03*
X0109116Y0244300D03*
X0101242Y0244300D03*
X0092866Y0244300D03*
X0092866Y0236800D03*
X0084992Y0236800D03*
X0084992Y0244300D03*
X0062866Y0244300D03*
X0054992Y0244300D03*
X0054992Y0235550D03*
X0062866Y0235550D03*
X0064116Y0186800D03*
X0056242Y0186800D03*
X0055366Y0141800D03*
X0047492Y0141800D03*
X0072492Y0134300D03*
X0080366Y0134300D03*
X0054116Y0085550D03*
X0054116Y0076800D03*
X0054116Y0068050D03*
X0054116Y0059300D03*
X0054116Y0050550D03*
X0046242Y0050550D03*
X0046242Y0059300D03*
X0046242Y0068050D03*
X0046242Y0076800D03*
X0046242Y0085550D03*
X0129992Y0139300D03*
X0137866Y0139300D03*
D21*
X0103437Y0203286D03*
X0103437Y0222814D03*
X0060937Y0222814D03*
X0060937Y0203286D03*
D22*
X0081153Y0203286D03*
X0081153Y0222814D03*
X0123653Y0222814D03*
X0123653Y0203286D03*
D23*
X0130189Y0170402D03*
X0133929Y0170402D03*
X0137669Y0158198D03*
X0130189Y0158198D03*
D24*
X0137669Y0170402D03*
D25*
X0143929Y0062036D03*
X0148929Y0062036D03*
X0153929Y0062036D03*
X0158929Y0062036D03*
X0158929Y0041564D03*
X0153929Y0041564D03*
X0148929Y0041564D03*
X0143929Y0041564D03*
D26*
X0165848Y0082400D03*
X0165848Y0088700D03*
X0174510Y0088700D03*
X0174510Y0082400D03*
D27*
X0034903Y0143050D03*
X0025454Y0139310D03*
X0025454Y0146790D03*
D28*
X0034057Y0021800D03*
X0041931Y0021800D03*
X0049805Y0021800D03*
X0057679Y0021800D03*
X0065553Y0021800D03*
X0073427Y0021800D03*
X0081301Y0021800D03*
X0033929Y0046928D03*
X0033929Y0054802D03*
X0033929Y0062676D03*
X0033929Y0070550D03*
X0033929Y0078424D03*
X0033929Y0086298D03*
X0033929Y0094172D03*
X0139057Y0021800D03*
X0146931Y0021800D03*
X0154805Y0021800D03*
X0162679Y0021800D03*
X0170553Y0021800D03*
X0178427Y0021800D03*
X0186301Y0021800D03*
X0187679Y0061928D03*
X0187679Y0069802D03*
X0187679Y0077676D03*
X0187679Y0085550D03*
X0187679Y0093424D03*
X0187679Y0101298D03*
X0187679Y0109172D03*
X0187679Y0129428D03*
X0187679Y0137302D03*
X0187679Y0145176D03*
X0187679Y0153050D03*
X0187679Y0160924D03*
X0187679Y0168798D03*
X0187679Y0176672D03*
D29*
X0185929Y0329250D03*
X0169429Y0329250D03*
X0106179Y0329250D03*
X0089679Y0329250D03*
X0073179Y0329250D03*
D30*
X0036941Y0189300D03*
X0036941Y0181800D03*
X0036941Y0174300D03*
X0025917Y0174300D03*
X0025917Y0181800D03*
X0025917Y0189300D03*
D31*
X0032679Y0201600D03*
X0032679Y0222000D03*
D32*
X0041429Y0223050D03*
X0043929Y0214300D03*
X0051429Y0214300D03*
X0056429Y0215550D03*
X0060179Y0210550D03*
X0067679Y0230550D03*
X0066429Y0243050D03*
X0078929Y0240550D03*
X0078929Y0245550D03*
X0082679Y0236800D03*
X0090179Y0230550D03*
X0098319Y0234940D03*
X0105179Y0235550D03*
X0110179Y0230550D03*
X0098929Y0244300D03*
X0080179Y0213050D03*
X0082679Y0180550D03*
X0086429Y0180550D03*
X0090179Y0180550D03*
X0093929Y0180550D03*
X0097679Y0180550D03*
X0101429Y0180550D03*
X0106429Y0176800D03*
X0106429Y0173050D03*
X0106429Y0169300D03*
X0106429Y0165550D03*
X0110179Y0164300D03*
X0110179Y0168050D03*
X0110179Y0171800D03*
X0110179Y0175550D03*
X0107679Y0180550D03*
X0102679Y0163050D03*
X0098929Y0163050D03*
X0095179Y0163050D03*
X0091429Y0163050D03*
X0087679Y0163050D03*
X0083929Y0163050D03*
X0080179Y0163050D03*
X0076429Y0165550D03*
X0076429Y0169300D03*
X0076429Y0173050D03*
X0072679Y0170550D03*
X0072679Y0166800D03*
X0072679Y0163050D03*
X0071429Y0176800D03*
X0071429Y0180550D03*
X0077679Y0180550D03*
X0053840Y0156800D03*
X0042679Y0156800D03*
X0026429Y0141800D03*
X0025917Y0174300D03*
X0025917Y0181800D03*
X0025917Y0189300D03*
X0032679Y0196800D03*
X0050179Y0230550D03*
X0052679Y0243050D03*
X0043929Y0298050D03*
X0043929Y0301800D03*
X0040179Y0301800D03*
X0040179Y0298050D03*
X0036429Y0298050D03*
X0036429Y0301800D03*
X0033929Y0305550D03*
X0033929Y0309300D03*
X0046429Y0309300D03*
X0046429Y0305550D03*
X0073929Y0299300D03*
X0082679Y0305550D03*
X0082679Y0309300D03*
X0085179Y0301800D03*
X0088929Y0301800D03*
X0092679Y0301800D03*
X0092679Y0298050D03*
X0088929Y0298050D03*
X0085179Y0298050D03*
X0095179Y0305550D03*
X0095179Y0309300D03*
X0122679Y0299300D03*
X0131429Y0306800D03*
X0131429Y0310550D03*
X0133929Y0301800D03*
X0137679Y0301800D03*
X0141429Y0301800D03*
X0141429Y0298050D03*
X0137679Y0298050D03*
X0133929Y0298050D03*
X0143929Y0306800D03*
X0143929Y0310550D03*
X0170179Y0300550D03*
X0182679Y0296800D03*
X0182679Y0269300D03*
X0175179Y0255550D03*
X0173929Y0250550D03*
X0182679Y0254300D03*
X0193929Y0254300D03*
X0193929Y0269300D03*
X0193929Y0228050D03*
X0193929Y0224300D03*
X0193929Y0220550D03*
X0193929Y0216800D03*
X0193929Y0213050D03*
X0190179Y0213050D03*
X0190179Y0216800D03*
X0190179Y0220550D03*
X0190179Y0224300D03*
X0186429Y0220550D03*
X0186429Y0216800D03*
X0186429Y0213050D03*
X0182679Y0220550D03*
X0183929Y0189300D03*
X0178929Y0189300D03*
X0190179Y0185550D03*
X0177679Y0173050D03*
X0173929Y0173050D03*
X0166429Y0149300D03*
X0166429Y0144300D03*
X0161429Y0140550D03*
X0160179Y0133050D03*
X0152679Y0120550D03*
X0148929Y0120550D03*
X0142679Y0109300D03*
X0146429Y0105550D03*
X0150179Y0105550D03*
X0153929Y0104300D03*
X0157679Y0106800D03*
X0161429Y0108050D03*
X0155179Y0095550D03*
X0160179Y0088050D03*
X0161429Y0084300D03*
X0155179Y0076800D03*
X0151429Y0076800D03*
X0146429Y0076800D03*
X0141429Y0081800D03*
X0140179Y0085550D03*
X0132679Y0086800D03*
X0131429Y0083050D03*
X0133929Y0091800D03*
X0136429Y0095550D03*
X0131429Y0095550D03*
X0128929Y0091800D03*
X0131429Y0103050D03*
X0138929Y0101800D03*
X0126429Y0126800D03*
X0126429Y0134300D03*
X0123929Y0151800D03*
X0120179Y0153050D03*
X0105179Y0140550D03*
X0101429Y0136800D03*
X0103929Y0129300D03*
X0108929Y0129300D03*
X0097679Y0119300D03*
X0103929Y0109300D03*
X0096429Y0098050D03*
X0092679Y0098050D03*
X0088929Y0098050D03*
X0085179Y0098050D03*
X0081429Y0098050D03*
X0083929Y0080550D03*
X0080179Y0071800D03*
X0080179Y0063050D03*
X0085179Y0046800D03*
X0103929Y0065550D03*
X0103929Y0070550D03*
X0103929Y0075550D03*
X0103929Y0080550D03*
X0108929Y0089300D03*
X0122679Y0110550D03*
X0092679Y0130550D03*
X0087679Y0126800D03*
X0085179Y0139300D03*
X0083929Y0143050D03*
X0076429Y0141800D03*
X0072679Y0143050D03*
X0068929Y0143050D03*
X0062679Y0133050D03*
X0056429Y0121800D03*
X0047679Y0093050D03*
X0065179Y0075550D03*
X0063929Y0065550D03*
X0057679Y0064300D03*
X0057679Y0059300D03*
X0057679Y0050550D03*
X0092679Y0080550D03*
X0122679Y0040550D03*
X0133929Y0039300D03*
X0135179Y0034300D03*
X0132679Y0051800D03*
X0128929Y0063050D03*
X0137679Y0065550D03*
X0150179Y0055550D03*
X0155179Y0051800D03*
X0163929Y0065550D03*
X0170179Y0055550D03*
X0177679Y0069300D03*
X0178929Y0075550D03*
X0180179Y0083050D03*
X0182679Y0086800D03*
X0182679Y0096800D03*
X0180179Y0118050D03*
X0175179Y0131800D03*
X0153929Y0146800D03*
X0152679Y0159300D03*
X0141429Y0158050D03*
X0133929Y0175550D03*
X0147679Y0196800D03*
X0155179Y0190550D03*
X0160179Y0188050D03*
X0157679Y0196800D03*
X0151429Y0181800D03*
X0145179Y0210560D03*
X0148929Y0220550D03*
X0155179Y0224300D03*
X0153929Y0228050D03*
X0147679Y0245550D03*
X0135179Y0243050D03*
X0192679Y0031800D03*
M02*
