G75*
%MOIN*%
%OFA0B0*%
%FSLAX25Y25*%
%IPPOS*%
%LPD*%
%AMOC8*
5,1,8,0,0,1.08239X$1,22.5*
%
%ADD10C,0.15600*%
%ADD11R,0.06506X0.05718*%
%ADD12R,0.05718X0.06506*%
%ADD13C,0.06309*%
%ADD14C,0.08277*%
%ADD15R,0.01387X0.05128*%
%ADD16R,0.05324X0.05324*%
%ADD17R,0.41200X0.35700*%
%ADD18R,0.05800X0.15200*%
%ADD19R,0.04931X0.06112*%
%ADD20R,0.06112X0.04931*%
%ADD21R,0.25600X0.14773*%
%ADD22R,0.01781X0.14576*%
%ADD23R,0.06400X0.01700*%
%ADD24R,0.01700X0.06400*%
%ADD25R,0.04931X0.04537*%
%ADD26C,0.05324*%
%ADD27C,0.11100*%
%ADD28R,0.11624X0.20285*%
%ADD29R,0.07687X0.06899*%
%ADD30R,0.21500X0.07000*%
%ADD31C,0.03553*%
D10*
X0063929Y0103050D03*
X0032679Y0235550D03*
X0178929Y0235550D03*
D11*
X0193929Y0256810D03*
X0193929Y0264290D03*
X0182679Y0271810D03*
X0182679Y0279290D03*
X0103929Y0231790D03*
X0103929Y0224310D03*
X0086429Y0221790D03*
X0086429Y0214310D03*
X0062679Y0216810D03*
X0062679Y0224290D03*
X0063929Y0128040D03*
X0063929Y0120560D03*
X0071429Y0120560D03*
X0071429Y0128040D03*
X0078929Y0128040D03*
X0078929Y0120560D03*
X0117679Y0063040D03*
X0117679Y0055560D03*
X0125179Y0055560D03*
X0125179Y0063040D03*
X0161429Y0063040D03*
X0161429Y0055560D03*
X0172679Y0061810D03*
X0172679Y0069290D03*
X0176429Y0089310D03*
X0176429Y0096790D03*
X0176429Y0118060D03*
X0176429Y0125540D03*
X0135179Y0124310D03*
X0135179Y0131790D03*
X0126429Y0131790D03*
X0126429Y0124310D03*
X0038929Y0124290D03*
X0038929Y0116810D03*
D12*
X0038939Y0133050D03*
X0046419Y0133050D03*
X0057689Y0136800D03*
X0065169Y0136800D03*
X0065189Y0071800D03*
X0072669Y0071800D03*
X0086439Y0071800D03*
X0093919Y0071800D03*
X0126439Y0145550D03*
X0126439Y0153050D03*
X0133919Y0153050D03*
X0133919Y0145550D03*
X0133919Y0160550D03*
X0133919Y0168050D03*
X0126439Y0168050D03*
X0126439Y0160550D03*
X0151439Y0134300D03*
X0151439Y0126800D03*
X0158919Y0126800D03*
X0158919Y0134300D03*
D13*
X0120021Y0028130D03*
X0100336Y0028130D03*
D14*
X0096399Y0017500D03*
X0123958Y0017500D03*
D15*
X0115297Y0028031D03*
X0112738Y0028031D03*
X0110179Y0028031D03*
X0107620Y0028031D03*
X0105061Y0028031D03*
D16*
X0167295Y0038050D03*
X0175563Y0038050D03*
X0175563Y0046800D03*
X0167295Y0046800D03*
X0163545Y0195550D03*
X0163545Y0203050D03*
X0171813Y0203050D03*
X0171813Y0195550D03*
D17*
X0147679Y0270500D03*
X0098929Y0270500D03*
X0050179Y0270500D03*
D18*
X0060179Y0312263D03*
X0040179Y0312263D03*
X0088929Y0312263D03*
X0108929Y0312263D03*
X0137679Y0312263D03*
X0157679Y0312263D03*
D19*
X0178742Y0203050D03*
X0178742Y0195550D03*
X0186616Y0195550D03*
X0186616Y0203050D03*
X0190366Y0046800D03*
X0190366Y0038050D03*
X0182492Y0038050D03*
X0182492Y0046800D03*
X0096616Y0046800D03*
X0088742Y0046800D03*
X0090366Y0036800D03*
X0082492Y0036800D03*
X0046616Y0141800D03*
X0038742Y0141800D03*
D20*
X0046429Y0124487D03*
X0046429Y0116613D03*
X0063929Y0063237D03*
X0063929Y0055363D03*
X0072679Y0055363D03*
X0072679Y0063237D03*
X0085179Y0063237D03*
X0085179Y0055363D03*
X0093929Y0055363D03*
X0093929Y0063237D03*
X0105179Y0046987D03*
X0105179Y0039113D03*
X0112679Y0039113D03*
X0112679Y0046987D03*
X0152679Y0161613D03*
X0160179Y0161613D03*
X0160179Y0169487D03*
X0160179Y0176613D03*
X0152679Y0176613D03*
X0152679Y0169487D03*
X0152679Y0184487D03*
X0160179Y0184487D03*
X0167679Y0184487D03*
X0167679Y0176613D03*
X0167679Y0169487D03*
X0167679Y0161613D03*
X0193929Y0271613D03*
X0193929Y0279487D03*
X0193929Y0286613D03*
X0193929Y0294487D03*
X0182679Y0294487D03*
X0182679Y0286613D03*
D21*
X0091429Y0171800D03*
D22*
X0092413Y0153099D03*
X0090445Y0153099D03*
X0088476Y0153099D03*
X0086508Y0153099D03*
X0084539Y0153099D03*
X0082571Y0153099D03*
X0080602Y0153099D03*
X0078634Y0153099D03*
X0076665Y0153099D03*
X0074697Y0153099D03*
X0072728Y0153099D03*
X0070760Y0153099D03*
X0068791Y0153099D03*
X0066823Y0153099D03*
X0064854Y0153099D03*
X0064854Y0190501D03*
X0066823Y0190501D03*
X0068791Y0190501D03*
X0070760Y0190501D03*
X0072728Y0190501D03*
X0074697Y0190501D03*
X0076665Y0190501D03*
X0078634Y0190501D03*
X0080602Y0190501D03*
X0082571Y0190501D03*
X0084539Y0190501D03*
X0086508Y0190501D03*
X0088476Y0190501D03*
X0090445Y0190501D03*
X0092413Y0190501D03*
X0094382Y0190501D03*
X0096350Y0190501D03*
X0098319Y0190501D03*
X0100287Y0190501D03*
X0102256Y0190501D03*
X0104224Y0190501D03*
X0106193Y0190501D03*
X0108161Y0190501D03*
X0110130Y0190501D03*
X0112098Y0190501D03*
X0114067Y0190501D03*
X0116035Y0190501D03*
X0118004Y0190501D03*
X0118004Y0153099D03*
X0116035Y0153099D03*
X0114067Y0153099D03*
X0112098Y0153099D03*
X0110130Y0153099D03*
X0108161Y0153099D03*
X0106193Y0153099D03*
X0104224Y0153099D03*
X0102256Y0153099D03*
X0100287Y0153099D03*
X0098319Y0153099D03*
X0096350Y0153099D03*
X0094382Y0153099D03*
D23*
X0123029Y0107814D03*
X0123029Y0105845D03*
X0123029Y0103877D03*
X0123029Y0101908D03*
X0123029Y0099940D03*
X0123029Y0097971D03*
X0123029Y0096003D03*
X0123029Y0094034D03*
X0123029Y0092066D03*
X0123029Y0090097D03*
X0123029Y0088129D03*
X0123029Y0086160D03*
X0123029Y0084192D03*
X0123029Y0082223D03*
X0123029Y0080255D03*
X0123029Y0078286D03*
X0167329Y0078286D03*
X0167329Y0080255D03*
X0167329Y0082223D03*
X0167329Y0084192D03*
X0167329Y0086160D03*
X0167329Y0088129D03*
X0167329Y0090097D03*
X0167329Y0092066D03*
X0167329Y0094034D03*
X0167329Y0096003D03*
X0167329Y0097971D03*
X0167329Y0099940D03*
X0167329Y0101908D03*
X0167329Y0103877D03*
X0167329Y0105845D03*
X0167329Y0107814D03*
D24*
X0159943Y0115200D03*
X0157974Y0115200D03*
X0156006Y0115200D03*
X0154037Y0115200D03*
X0152069Y0115200D03*
X0150100Y0115200D03*
X0148132Y0115200D03*
X0146163Y0115200D03*
X0144195Y0115200D03*
X0142226Y0115200D03*
X0140258Y0115200D03*
X0138289Y0115200D03*
X0136321Y0115200D03*
X0134352Y0115200D03*
X0132384Y0115200D03*
X0130415Y0115200D03*
X0130415Y0070900D03*
X0132384Y0070900D03*
X0134352Y0070900D03*
X0136321Y0070900D03*
X0138289Y0070900D03*
X0140258Y0070900D03*
X0142226Y0070900D03*
X0144195Y0070900D03*
X0146163Y0070900D03*
X0148132Y0070900D03*
X0150100Y0070900D03*
X0152069Y0070900D03*
X0154037Y0070900D03*
X0156006Y0070900D03*
X0157974Y0070900D03*
X0159943Y0070900D03*
D25*
X0182679Y0257204D03*
X0182679Y0263896D03*
D26*
X0034057Y0021800D03*
X0041931Y0021800D03*
X0049805Y0021800D03*
X0057679Y0021800D03*
X0065553Y0021800D03*
X0073427Y0021800D03*
X0081301Y0021800D03*
X0033929Y0046928D03*
X0033929Y0054802D03*
X0033929Y0062676D03*
X0033929Y0070550D03*
X0033929Y0078424D03*
X0033929Y0086298D03*
X0033929Y0094172D03*
X0139057Y0021800D03*
X0146931Y0021800D03*
X0154805Y0021800D03*
X0162679Y0021800D03*
X0170553Y0021800D03*
X0178427Y0021800D03*
X0186301Y0021800D03*
X0187679Y0061928D03*
X0187679Y0069802D03*
X0187679Y0077676D03*
X0187679Y0085550D03*
X0187679Y0093424D03*
X0187679Y0101298D03*
X0187679Y0109172D03*
X0187679Y0129428D03*
X0187679Y0137302D03*
X0187679Y0145176D03*
X0187679Y0153050D03*
X0187679Y0160924D03*
X0187679Y0168798D03*
X0187679Y0176672D03*
D27*
X0185929Y0329250D03*
X0169429Y0329250D03*
X0106179Y0329250D03*
X0089679Y0329250D03*
X0073179Y0329250D03*
D28*
X0053840Y0156800D03*
X0036517Y0156800D03*
D29*
X0037679Y0205038D03*
X0037679Y0216062D03*
X0027679Y0216062D03*
X0027679Y0205038D03*
X0126429Y0198562D03*
X0133929Y0198562D03*
X0136429Y0207538D03*
X0136429Y0218562D03*
X0133929Y0187538D03*
X0126429Y0187538D03*
D30*
X0048929Y0194500D03*
X0048929Y0174100D03*
D31*
X0053840Y0156800D03*
X0042679Y0156800D03*
X0026429Y0141800D03*
X0025917Y0174300D03*
X0025917Y0181800D03*
X0025917Y0189300D03*
X0032679Y0196800D03*
X0043929Y0214300D03*
X0041429Y0223050D03*
X0050179Y0230550D03*
X0052679Y0243050D03*
X0066429Y0243050D03*
X0067679Y0230550D03*
X0078929Y0240550D03*
X0078929Y0245550D03*
X0082679Y0236800D03*
X0090179Y0230550D03*
X0098319Y0234940D03*
X0105179Y0235550D03*
X0110179Y0230550D03*
X0098929Y0244300D03*
X0080179Y0213050D03*
X0060179Y0210550D03*
X0056429Y0215550D03*
X0051429Y0214300D03*
X0071429Y0180550D03*
X0071429Y0176800D03*
X0072679Y0170550D03*
X0072679Y0166800D03*
X0072679Y0163050D03*
X0076429Y0165550D03*
X0076429Y0169300D03*
X0076429Y0173050D03*
X0077679Y0180550D03*
X0082679Y0180550D03*
X0086429Y0180550D03*
X0090179Y0180550D03*
X0093929Y0180550D03*
X0097679Y0180550D03*
X0101429Y0180550D03*
X0106429Y0176800D03*
X0106429Y0173050D03*
X0106429Y0169300D03*
X0106429Y0165550D03*
X0110179Y0164300D03*
X0110179Y0168050D03*
X0110179Y0171800D03*
X0110179Y0175550D03*
X0107679Y0180550D03*
X0102679Y0163050D03*
X0098929Y0163050D03*
X0095179Y0163050D03*
X0091429Y0163050D03*
X0087679Y0163050D03*
X0083929Y0163050D03*
X0080179Y0163050D03*
X0083929Y0143050D03*
X0085179Y0139300D03*
X0092679Y0130550D03*
X0087679Y0126800D03*
X0097679Y0119300D03*
X0103929Y0109300D03*
X0096429Y0098050D03*
X0092679Y0098050D03*
X0088929Y0098050D03*
X0085179Y0098050D03*
X0081429Y0098050D03*
X0083929Y0080550D03*
X0080179Y0071800D03*
X0080179Y0063050D03*
X0085179Y0046800D03*
X0103929Y0065550D03*
X0103929Y0070550D03*
X0103929Y0075550D03*
X0103929Y0080550D03*
X0108929Y0089300D03*
X0122679Y0110550D03*
X0131429Y0103050D03*
X0131429Y0095550D03*
X0133929Y0091800D03*
X0136429Y0095550D03*
X0132679Y0086800D03*
X0131429Y0083050D03*
X0128929Y0091800D03*
X0140179Y0085550D03*
X0141429Y0081800D03*
X0146429Y0076800D03*
X0151429Y0076800D03*
X0155179Y0076800D03*
X0161429Y0084300D03*
X0160179Y0088050D03*
X0155179Y0095550D03*
X0153929Y0104300D03*
X0150179Y0105550D03*
X0146429Y0105550D03*
X0142679Y0109300D03*
X0138929Y0101800D03*
X0148929Y0120550D03*
X0152679Y0120550D03*
X0160179Y0133050D03*
X0161429Y0140550D03*
X0166429Y0144300D03*
X0166429Y0149300D03*
X0153929Y0146800D03*
X0152679Y0159300D03*
X0141429Y0158050D03*
X0133929Y0175550D03*
X0147679Y0196800D03*
X0155179Y0190550D03*
X0160179Y0188050D03*
X0157679Y0196800D03*
X0151429Y0181800D03*
X0145179Y0210560D03*
X0148929Y0220550D03*
X0155179Y0224300D03*
X0153929Y0228050D03*
X0147679Y0245550D03*
X0135179Y0243050D03*
X0133929Y0298050D03*
X0137679Y0298050D03*
X0141429Y0298050D03*
X0141429Y0301800D03*
X0137679Y0301800D03*
X0133929Y0301800D03*
X0131429Y0306800D03*
X0131429Y0310550D03*
X0122679Y0299300D03*
X0143929Y0306800D03*
X0143929Y0310550D03*
X0170179Y0300550D03*
X0182679Y0296800D03*
X0182679Y0269300D03*
X0175179Y0255550D03*
X0173929Y0250550D03*
X0182679Y0254300D03*
X0193929Y0254300D03*
X0193929Y0269300D03*
X0193929Y0228050D03*
X0193929Y0224300D03*
X0193929Y0220550D03*
X0193929Y0216800D03*
X0193929Y0213050D03*
X0190179Y0213050D03*
X0190179Y0216800D03*
X0190179Y0220550D03*
X0190179Y0224300D03*
X0186429Y0220550D03*
X0186429Y0216800D03*
X0186429Y0213050D03*
X0182679Y0220550D03*
X0183929Y0189300D03*
X0178929Y0189300D03*
X0190179Y0185550D03*
X0177679Y0173050D03*
X0173929Y0173050D03*
X0175179Y0131800D03*
X0180179Y0118050D03*
X0182679Y0096800D03*
X0182679Y0086800D03*
X0180179Y0083050D03*
X0178929Y0075550D03*
X0177679Y0069300D03*
X0170179Y0055550D03*
X0163929Y0065550D03*
X0155179Y0051800D03*
X0150179Y0055550D03*
X0137679Y0065550D03*
X0128929Y0063050D03*
X0132679Y0051800D03*
X0133929Y0039300D03*
X0135179Y0034300D03*
X0122679Y0040550D03*
X0092679Y0080550D03*
X0065179Y0075550D03*
X0063929Y0065550D03*
X0057679Y0064300D03*
X0057679Y0059300D03*
X0057679Y0050550D03*
X0047679Y0093050D03*
X0056429Y0121800D03*
X0062679Y0133050D03*
X0068929Y0143050D03*
X0072679Y0143050D03*
X0076429Y0141800D03*
X0101429Y0136800D03*
X0105179Y0140550D03*
X0103929Y0129300D03*
X0108929Y0129300D03*
X0120179Y0153050D03*
X0123929Y0151800D03*
X0126429Y0134300D03*
X0126429Y0126800D03*
X0157679Y0106800D03*
X0161429Y0108050D03*
X0192679Y0031800D03*
X0092679Y0298050D03*
X0092679Y0301800D03*
X0088929Y0301800D03*
X0088929Y0298050D03*
X0085179Y0298050D03*
X0085179Y0301800D03*
X0082679Y0305550D03*
X0082679Y0309300D03*
X0073929Y0299300D03*
X0095179Y0305550D03*
X0095179Y0309300D03*
X0046429Y0309300D03*
X0046429Y0305550D03*
X0043929Y0301800D03*
X0043929Y0298050D03*
X0040179Y0298050D03*
X0040179Y0301800D03*
X0036429Y0301800D03*
X0036429Y0298050D03*
X0033929Y0305550D03*
X0033929Y0309300D03*
M02*
