%
M48
M72
T01C0.01969
T02C0.03150
T03C0.05118
T04C0.07000
T05C0.15000
%
T01
X57679Y50550
X57679Y59300
X57679Y64300
X63929Y65550
X65179Y75550
X80179Y71800
X80179Y63050
X83929Y80550
X92679Y80550
X103929Y80550
X103929Y75550
X103929Y70550
X103929Y65550
X108929Y89300
X96429Y98050
X92679Y98050
X88929Y98050
X85179Y98050
X81429Y98050
X97679Y119300
X103929Y109300
X103929Y129300
X108929Y129300
X101429Y136800
X105179Y140550
X92679Y130550
X87679Y126800
X85179Y139300
X83929Y143050
X76429Y141800
X72679Y143050
X68929Y143050
X62679Y133050
X56429Y121800
X47679Y93050
X26429Y141800
X42679Y156800
X53840Y156800
X71429Y176800
X71429Y180550
X77679Y180550
X82679Y180550
X86429Y180550
X90179Y180550
X93929Y180550
X97679Y180550
X101429Y180550
X106429Y176800
X106429Y173050
X106429Y169300
X106429Y165550
X110179Y164300
X110179Y168050
X110179Y171800
X110179Y175550
X107679Y180550
X102679Y163050
X98929Y163050
X95179Y163050
X91429Y163050
X87679Y163050
X83929Y163050
X80179Y163050
X76429Y165550
X76429Y169300
X76429Y173050
X72679Y170550
X72679Y166800
X72679Y163050
X60179Y210550
X56429Y215550
X51429Y214300
X43929Y214300
X41429Y223050
X50179Y230550
X52679Y243050
X66429Y243050
X67679Y230550
X78929Y240550
X78929Y245550
X82679Y236800
X90179Y230550
X98319Y234940
X105179Y235550
X110179Y230550
X98929Y244300
X80179Y213050
X120179Y153050
X123929Y151800
X126429Y134300
X126429Y126800
X122679Y110550
X131429Y103050
X131429Y95550
X133929Y91800
X136429Y95550
X132679Y86800
X131429Y83050
X128929Y91800
X140179Y85550
X141429Y81800
X146429Y76800
X151429Y76800
X155179Y76800
X161429Y84300
X160179Y88050
X155179Y95550
X153929Y104300
X150179Y105550
X146429Y105550
X142679Y109300
X138929Y101800
X148929Y120550
X152679Y120550
X160179Y133050
X161429Y140550
X166429Y144300
X166429Y149300
X153929Y146800
X152679Y159300
X141429Y158050
X133929Y175550
X147679Y196800
X155179Y190550
X160179Y188050
X157679Y196800
X151429Y181800
X145179Y210560
X148929Y220550
X155179Y224300
X153929Y228050
X147679Y245550
X135179Y243050
X133929Y298050
X137679Y298050
X141429Y298050
X141429Y301800
X137679Y301800
X133929Y301800
X131429Y306800
X131429Y310550
X122679Y299300
X143929Y306800
X143929Y310550
X170179Y300550
X182679Y296800
X182679Y269300
X175179Y255550
X173929Y250550
X182679Y254300
X193929Y254300
X193929Y269300
X193929Y228050
X193929Y224300
X193929Y220550
X193929Y216800
X193929Y213050
X190179Y213050
X190179Y216800
X190179Y220550
X190179Y224300
X186429Y220550
X186429Y216800
X186429Y213050
X182679Y220550
X183929Y189300
X178929Y189300
X190179Y185550
X177679Y173050
X173929Y173050
X175179Y131800
X180179Y118050
X182679Y96800
X182679Y86800
X180179Y83050
X178929Y75550
X177679Y69300
X170179Y55550
X163929Y65550
X155179Y51800
X150179Y55550
X137679Y65550
X128929Y63050
X132679Y51800
X133929Y39300
X135179Y34300
X122679Y40550
X85179Y46800
X157679Y106800
X161429Y108050
X192679Y31800
X32679Y196800
X25917Y189300
X25917Y181800
X25917Y174300
X36429Y298050
X40179Y298050
X43929Y298050
X43929Y301800
X40179Y301800
X36429Y301800
X33929Y305550
X33929Y309300
X46429Y309300
X46429Y305550
X73929Y299300
X82679Y305550
X82679Y309300
X85179Y301800
X88929Y301800
X92679Y301800
X92679Y298050
X88929Y298050
X85179Y298050
X95179Y305550
X95179Y309300
T02
X34057Y21800
X41931Y21800
X49805Y21800
X57679Y21800
X65553Y21800
X73427Y21800
X81301Y21800
X100336Y28130
X120021Y28130
X139057Y21800
X146931Y21800
X154805Y21800
X162679Y21800
X170553Y21800
X178427Y21800
X186301Y21800
X187679Y61928
X187679Y69802
X187679Y77676
X187679Y85550
X187679Y93424
X187679Y101298
X187679Y109172
X187679Y129428
X187679Y137302
X187679Y145176
X187679Y153050
X187679Y160924
X187679Y168798
X187679Y176672
X33929Y94172
X33929Y86298
X33929Y78424
X33929Y70550
X33929Y62676
X33929Y54802
X33929Y46928
T03
X96399Y17500
X123958Y17500
T04
X106179Y329250
X89679Y329250
X73179Y329250
X169429Y329250
X185929Y329250
T05
X178929Y235550
X63929Y103050
X32679Y235550
M30
