G75*
%MOIN*%
%OFA0B0*%
%FSLAX25Y25*%
%IPPOS*%
%LPD*%
%AMOC8*
5,1,8,0,0,1.08239X$1,22.5*
%
%ADD10R,0.05118X0.05906*%
%ADD11R,0.05906X0.05118*%
%ADD12R,0.07098X0.06299*%
%ADD13C,0.05709*%
%ADD14C,0.07677*%
%ADD15R,0.04724X0.04724*%
%ADD16R,0.40600X0.35100*%
%ADD17R,0.05200X0.14600*%
%ADD18R,0.05512X0.04331*%
%ADD19R,0.04331X0.05512*%
%ADD20R,0.25984X0.09606*%
%ADD21R,0.07441X0.09606*%
%ADD22R,0.02362X0.05709*%
%ADD23R,0.02362X0.05512*%
%ADD24R,0.02200X0.09843*%
%ADD25R,0.03937X0.03661*%
%ADD26R,0.05118X0.03150*%
%ADD27C,0.04724*%
%ADD28C,0.10500*%
%ADD29R,0.06299X0.07087*%
%ADD30R,0.20900X0.06400*%
%ADD31C,0.02953*%
%ADD32C,0.01000*%
%ADD33C,0.01600*%
%ADD34C,0.01200*%
D10*
X0065189Y0071800D03*
X0072669Y0071800D03*
X0086439Y0071800D03*
X0093919Y0071800D03*
X0147689Y0030550D03*
X0155169Y0030550D03*
X0166439Y0075550D03*
X0173919Y0075550D03*
X0173919Y0095550D03*
X0166439Y0095550D03*
X0137669Y0149300D03*
X0130189Y0149300D03*
X0063919Y0176800D03*
X0056439Y0176800D03*
X0055169Y0149300D03*
X0047689Y0149300D03*
D11*
X0136429Y0051790D03*
X0136429Y0044310D03*
X0166429Y0048060D03*
X0166429Y0055540D03*
X0147679Y0150560D03*
X0147679Y0158040D03*
X0147679Y0166810D03*
X0147679Y0174290D03*
X0150179Y0209310D03*
X0150179Y0216790D03*
X0157679Y0216790D03*
X0157679Y0209310D03*
D12*
X0063929Y0168648D03*
X0063929Y0157452D03*
D13*
X0100336Y0028130D03*
X0120021Y0028130D03*
D14*
X0123958Y0017500D03*
X0096399Y0017500D03*
D15*
X0147679Y0135166D03*
X0147679Y0143434D03*
X0032679Y0155166D03*
X0032679Y0163434D03*
D16*
X0050179Y0298100D03*
X0098929Y0298100D03*
X0147679Y0298100D03*
D17*
X0157679Y0256337D03*
X0137679Y0256337D03*
X0108929Y0256337D03*
X0088929Y0256337D03*
X0060179Y0256337D03*
X0040179Y0256337D03*
D18*
X0072679Y0244487D03*
X0072679Y0236613D03*
X0025179Y0163237D03*
X0025179Y0155363D03*
X0056429Y0133237D03*
X0056429Y0125363D03*
X0063929Y0063237D03*
X0063929Y0055363D03*
X0072679Y0055363D03*
X0072679Y0063237D03*
X0085179Y0063237D03*
X0085179Y0055363D03*
X0093929Y0055363D03*
X0093929Y0063237D03*
X0170179Y0038237D03*
X0170179Y0030363D03*
X0178929Y0030363D03*
X0178929Y0038237D03*
X0187679Y0038237D03*
X0187679Y0030363D03*
X0158929Y0235363D03*
X0158929Y0243237D03*
X0147679Y0243237D03*
X0140179Y0243237D03*
X0140179Y0235363D03*
X0147679Y0235363D03*
D19*
X0141616Y0224300D03*
X0141616Y0216800D03*
X0141616Y0209300D03*
X0141616Y0201800D03*
X0133742Y0201800D03*
X0133742Y0209300D03*
X0133742Y0216800D03*
X0133742Y0224300D03*
X0125366Y0244300D03*
X0117492Y0244300D03*
X0109116Y0244300D03*
X0101242Y0244300D03*
X0092866Y0244300D03*
X0092866Y0236800D03*
X0084992Y0236800D03*
X0084992Y0244300D03*
X0062866Y0244300D03*
X0054992Y0244300D03*
X0054992Y0235550D03*
X0062866Y0235550D03*
X0064116Y0186800D03*
X0056242Y0186800D03*
X0055366Y0141800D03*
X0047492Y0141800D03*
X0072492Y0134300D03*
X0080366Y0134300D03*
X0054116Y0085550D03*
X0054116Y0076800D03*
X0054116Y0068050D03*
X0054116Y0059300D03*
X0054116Y0050550D03*
X0046242Y0050550D03*
X0046242Y0059300D03*
X0046242Y0068050D03*
X0046242Y0076800D03*
X0046242Y0085550D03*
X0129992Y0139300D03*
X0137866Y0139300D03*
D20*
X0103437Y0203286D03*
X0103437Y0222814D03*
X0060937Y0222814D03*
X0060937Y0203286D03*
D21*
X0081153Y0203286D03*
X0081153Y0222814D03*
X0123653Y0222814D03*
X0123653Y0203286D03*
D22*
X0130189Y0170402D03*
X0133929Y0170402D03*
X0137669Y0158198D03*
X0130189Y0158198D03*
D23*
X0137669Y0170402D03*
D24*
X0143929Y0062036D03*
X0148929Y0062036D03*
X0153929Y0062036D03*
X0158929Y0062036D03*
X0158929Y0041564D03*
X0153929Y0041564D03*
X0148929Y0041564D03*
X0143929Y0041564D03*
D25*
X0165848Y0082400D03*
X0165848Y0088700D03*
X0174510Y0088700D03*
X0174510Y0082400D03*
D26*
X0034903Y0143050D03*
X0025454Y0139310D03*
X0025454Y0146790D03*
D27*
X0033929Y0094172D03*
X0033929Y0086298D03*
X0033929Y0078424D03*
X0033929Y0070550D03*
X0033929Y0062676D03*
X0033929Y0054802D03*
X0033929Y0046928D03*
X0034057Y0021800D03*
X0041931Y0021800D03*
X0049805Y0021800D03*
X0057679Y0021800D03*
X0065553Y0021800D03*
X0073427Y0021800D03*
X0081301Y0021800D03*
X0139057Y0021800D03*
X0146931Y0021800D03*
X0154805Y0021800D03*
X0162679Y0021800D03*
X0170553Y0021800D03*
X0178427Y0021800D03*
X0186301Y0021800D03*
X0187679Y0061928D03*
X0187679Y0069802D03*
X0187679Y0077676D03*
X0187679Y0085550D03*
X0187679Y0093424D03*
X0187679Y0101298D03*
X0187679Y0109172D03*
X0187679Y0129428D03*
X0187679Y0137302D03*
X0187679Y0145176D03*
X0187679Y0153050D03*
X0187679Y0160924D03*
X0187679Y0168798D03*
X0187679Y0176672D03*
D28*
X0185929Y0329250D03*
X0169429Y0329250D03*
X0106179Y0329250D03*
X0089679Y0329250D03*
X0073179Y0329250D03*
D29*
X0036941Y0189300D03*
X0036941Y0181800D03*
X0036941Y0174300D03*
X0025917Y0174300D03*
X0025917Y0181800D03*
X0025917Y0189300D03*
D30*
X0032679Y0201600D03*
X0032679Y0222000D03*
D31*
X0041429Y0223050D03*
X0043929Y0214300D03*
X0051429Y0214300D03*
X0056429Y0215550D03*
X0060179Y0210550D03*
X0067679Y0230550D03*
X0066429Y0243050D03*
X0078929Y0240550D03*
X0078929Y0245550D03*
X0082679Y0236800D03*
X0090179Y0230550D03*
X0098319Y0234940D03*
X0105179Y0235550D03*
X0110179Y0230550D03*
X0098929Y0244300D03*
X0080179Y0213050D03*
X0082679Y0180550D03*
X0086429Y0180550D03*
X0090179Y0180550D03*
X0093929Y0180550D03*
X0097679Y0180550D03*
X0101429Y0180550D03*
X0106429Y0176800D03*
X0106429Y0173050D03*
X0106429Y0169300D03*
X0106429Y0165550D03*
X0110179Y0164300D03*
X0110179Y0168050D03*
X0110179Y0171800D03*
X0110179Y0175550D03*
X0107679Y0180550D03*
X0102679Y0163050D03*
X0098929Y0163050D03*
X0095179Y0163050D03*
X0091429Y0163050D03*
X0087679Y0163050D03*
X0083929Y0163050D03*
X0080179Y0163050D03*
X0076429Y0165550D03*
X0076429Y0169300D03*
X0076429Y0173050D03*
X0072679Y0170550D03*
X0072679Y0166800D03*
X0072679Y0163050D03*
X0071429Y0176800D03*
X0071429Y0180550D03*
X0077679Y0180550D03*
X0053840Y0156800D03*
X0042679Y0156800D03*
X0026429Y0141800D03*
X0025917Y0174300D03*
X0025917Y0181800D03*
X0025917Y0189300D03*
X0032679Y0196800D03*
X0050179Y0230550D03*
X0052679Y0243050D03*
X0043929Y0298050D03*
X0043929Y0301800D03*
X0040179Y0301800D03*
X0040179Y0298050D03*
X0036429Y0298050D03*
X0036429Y0301800D03*
X0033929Y0305550D03*
X0033929Y0309300D03*
X0046429Y0309300D03*
X0046429Y0305550D03*
X0073929Y0299300D03*
X0082679Y0305550D03*
X0082679Y0309300D03*
X0085179Y0301800D03*
X0088929Y0301800D03*
X0092679Y0301800D03*
X0092679Y0298050D03*
X0088929Y0298050D03*
X0085179Y0298050D03*
X0095179Y0305550D03*
X0095179Y0309300D03*
X0122679Y0299300D03*
X0131429Y0306800D03*
X0131429Y0310550D03*
X0133929Y0301800D03*
X0137679Y0301800D03*
X0141429Y0301800D03*
X0141429Y0298050D03*
X0137679Y0298050D03*
X0133929Y0298050D03*
X0143929Y0306800D03*
X0143929Y0310550D03*
X0170179Y0300550D03*
X0182679Y0296800D03*
X0182679Y0269300D03*
X0175179Y0255550D03*
X0173929Y0250550D03*
X0182679Y0254300D03*
X0193929Y0254300D03*
X0193929Y0269300D03*
X0193929Y0228050D03*
X0193929Y0224300D03*
X0193929Y0220550D03*
X0193929Y0216800D03*
X0193929Y0213050D03*
X0190179Y0213050D03*
X0190179Y0216800D03*
X0190179Y0220550D03*
X0190179Y0224300D03*
X0186429Y0220550D03*
X0186429Y0216800D03*
X0186429Y0213050D03*
X0182679Y0220550D03*
X0183929Y0189300D03*
X0178929Y0189300D03*
X0190179Y0185550D03*
X0177679Y0173050D03*
X0173929Y0173050D03*
X0166429Y0149300D03*
X0166429Y0144300D03*
X0161429Y0140550D03*
X0160179Y0133050D03*
X0152679Y0120550D03*
X0148929Y0120550D03*
X0142679Y0109300D03*
X0146429Y0105550D03*
X0150179Y0105550D03*
X0153929Y0104300D03*
X0157679Y0106800D03*
X0161429Y0108050D03*
X0155179Y0095550D03*
X0160179Y0088050D03*
X0161429Y0084300D03*
X0155179Y0076800D03*
X0151429Y0076800D03*
X0146429Y0076800D03*
X0141429Y0081800D03*
X0140179Y0085550D03*
X0132679Y0086800D03*
X0131429Y0083050D03*
X0133929Y0091800D03*
X0136429Y0095550D03*
X0131429Y0095550D03*
X0128929Y0091800D03*
X0131429Y0103050D03*
X0138929Y0101800D03*
X0126429Y0126800D03*
X0126429Y0134300D03*
X0123929Y0151800D03*
X0120179Y0153050D03*
X0105179Y0140550D03*
X0101429Y0136800D03*
X0103929Y0129300D03*
X0108929Y0129300D03*
X0097679Y0119300D03*
X0103929Y0109300D03*
X0096429Y0098050D03*
X0092679Y0098050D03*
X0088929Y0098050D03*
X0085179Y0098050D03*
X0081429Y0098050D03*
X0083929Y0080550D03*
X0080179Y0071800D03*
X0080179Y0063050D03*
X0085179Y0046800D03*
X0103929Y0065550D03*
X0103929Y0070550D03*
X0103929Y0075550D03*
X0103929Y0080550D03*
X0108929Y0089300D03*
X0122679Y0110550D03*
X0092679Y0130550D03*
X0087679Y0126800D03*
X0085179Y0139300D03*
X0083929Y0143050D03*
X0076429Y0141800D03*
X0072679Y0143050D03*
X0068929Y0143050D03*
X0062679Y0133050D03*
X0056429Y0121800D03*
X0047679Y0093050D03*
X0065179Y0075550D03*
X0063929Y0065550D03*
X0057679Y0064300D03*
X0057679Y0059300D03*
X0057679Y0050550D03*
X0092679Y0080550D03*
X0122679Y0040550D03*
X0133929Y0039300D03*
X0135179Y0034300D03*
X0132679Y0051800D03*
X0128929Y0063050D03*
X0137679Y0065550D03*
X0150179Y0055550D03*
X0155179Y0051800D03*
X0163929Y0065550D03*
X0170179Y0055550D03*
X0177679Y0069300D03*
X0178929Y0075550D03*
X0180179Y0083050D03*
X0182679Y0086800D03*
X0182679Y0096800D03*
X0180179Y0118050D03*
X0175179Y0131800D03*
X0153929Y0146800D03*
X0152679Y0159300D03*
X0141429Y0158050D03*
X0133929Y0175550D03*
X0147679Y0196800D03*
X0155179Y0190550D03*
X0160179Y0188050D03*
X0157679Y0196800D03*
X0151429Y0181800D03*
X0145179Y0210560D03*
X0148929Y0220550D03*
X0155179Y0224300D03*
X0153929Y0228050D03*
X0147679Y0245550D03*
X0135179Y0243050D03*
X0192679Y0031800D03*
D32*
X0194579Y0033544D02*
X0194579Y0034024D01*
X0193466Y0035137D01*
X0193466Y0035137D01*
X0191535Y0037068D01*
X0191535Y0040858D01*
X0190890Y0041502D01*
X0184467Y0041502D01*
X0183823Y0040858D01*
X0183823Y0040137D01*
X0182785Y0040137D01*
X0182785Y0040858D01*
X0182140Y0041502D01*
X0175717Y0041502D01*
X0175073Y0040858D01*
X0175073Y0040137D01*
X0174035Y0040137D01*
X0174035Y0040858D01*
X0173390Y0041502D01*
X0166967Y0041502D01*
X0166323Y0040858D01*
X0166323Y0035616D01*
X0166967Y0034972D01*
X0173390Y0034972D01*
X0174035Y0035616D01*
X0174035Y0036337D01*
X0175073Y0036337D01*
X0175073Y0035616D01*
X0175717Y0034972D01*
X0182140Y0034972D01*
X0182785Y0035616D01*
X0182785Y0036337D01*
X0183823Y0036337D01*
X0183823Y0035616D01*
X0184467Y0034972D01*
X0188257Y0034972D01*
X0189601Y0033628D01*
X0184467Y0033628D01*
X0183823Y0032984D01*
X0183823Y0027742D01*
X0184467Y0027098D01*
X0186079Y0027098D01*
X0186079Y0025262D01*
X0185612Y0025262D01*
X0184340Y0024735D01*
X0183366Y0023761D01*
X0182839Y0022489D01*
X0182839Y0021111D01*
X0183366Y0019839D01*
X0184340Y0018865D01*
X0185612Y0018338D01*
X0186990Y0018338D01*
X0188262Y0018865D01*
X0189236Y0019839D01*
X0189763Y0021111D01*
X0189763Y0022489D01*
X0189279Y0023658D01*
X0189279Y0027098D01*
X0190890Y0027098D01*
X0191535Y0027742D01*
X0191535Y0029485D01*
X0192166Y0029224D01*
X0193191Y0029224D01*
X0194138Y0029616D01*
X0194863Y0030341D01*
X0195255Y0031288D01*
X0195255Y0032312D01*
X0194863Y0033259D01*
X0194579Y0033544D01*
X0194858Y0033264D02*
X0198130Y0033264D01*
X0198130Y0032266D02*
X0195255Y0032266D01*
X0195247Y0031267D02*
X0198130Y0031267D01*
X0198130Y0030269D02*
X0194791Y0030269D01*
X0193304Y0029270D02*
X0198130Y0029270D01*
X0198130Y0028272D02*
X0191535Y0028272D01*
X0191535Y0029270D02*
X0192054Y0029270D01*
X0191066Y0027273D02*
X0198130Y0027273D01*
X0198130Y0026275D02*
X0189279Y0026275D01*
X0189279Y0025276D02*
X0198130Y0025276D01*
X0198130Y0024278D02*
X0189279Y0024278D01*
X0189436Y0023279D02*
X0198130Y0023279D01*
X0198130Y0022281D02*
X0189763Y0022281D01*
X0189763Y0021282D02*
X0198130Y0021282D01*
X0198130Y0020284D02*
X0189420Y0020284D01*
X0188682Y0019285D02*
X0198130Y0019285D01*
X0198130Y0018287D02*
X0156415Y0018287D01*
X0156993Y0018526D02*
X0158079Y0019612D01*
X0158667Y0021032D01*
X0158667Y0022568D01*
X0158079Y0023988D01*
X0156993Y0025074D01*
X0156805Y0025152D01*
X0156805Y0026097D01*
X0158349Y0026097D01*
X0159228Y0026976D01*
X0159228Y0030550D01*
X0163929Y0030550D01*
X0163929Y0044001D01*
X0165929Y0044001D01*
X0165929Y0047560D01*
X0166929Y0047560D01*
X0166929Y0048560D01*
X0170882Y0048560D01*
X0170882Y0050816D01*
X0170779Y0051198D01*
X0170582Y0051540D01*
X0170303Y0051819D01*
X0169968Y0052012D01*
X0170482Y0052525D01*
X0170482Y0052974D01*
X0170691Y0052974D01*
X0171638Y0053366D01*
X0172363Y0054091D01*
X0172755Y0055038D01*
X0172755Y0056062D01*
X0172363Y0057009D01*
X0171638Y0057734D01*
X0170691Y0058126D01*
X0170482Y0058126D01*
X0170482Y0058555D01*
X0169837Y0059199D01*
X0163929Y0059199D01*
X0163929Y0071497D01*
X0169453Y0071497D01*
X0170098Y0072142D01*
X0170098Y0076946D01*
X0170260Y0077109D01*
X0170260Y0072142D01*
X0170904Y0071497D01*
X0176934Y0071497D01*
X0177578Y0072142D01*
X0177578Y0073321D01*
X0178416Y0072974D01*
X0179441Y0072974D01*
X0180388Y0073366D01*
X0181113Y0074091D01*
X0181505Y0075038D01*
X0181505Y0076062D01*
X0181113Y0077009D01*
X0180388Y0077734D01*
X0179441Y0078126D01*
X0178416Y0078126D01*
X0177578Y0077779D01*
X0177578Y0078958D01*
X0177000Y0079536D01*
X0177578Y0080114D01*
X0177578Y0081450D01*
X0178135Y0081450D01*
X0178719Y0080866D01*
X0179666Y0080474D01*
X0180691Y0080474D01*
X0181638Y0080866D01*
X0182363Y0081591D01*
X0182755Y0082538D01*
X0182755Y0083562D01*
X0182481Y0084224D01*
X0183191Y0084224D01*
X0184138Y0084616D01*
X0184266Y0084743D01*
X0184744Y0083589D01*
X0185718Y0082615D01*
X0186990Y0082088D01*
X0188368Y0082088D01*
X0189640Y0082615D01*
X0190614Y0083589D01*
X0191141Y0084861D01*
X0191141Y0086239D01*
X0190614Y0087511D01*
X0189640Y0088485D01*
X0188368Y0089012D01*
X0186990Y0089012D01*
X0185718Y0088485D01*
X0185047Y0087815D01*
X0184863Y0088259D01*
X0184138Y0088984D01*
X0183191Y0089376D01*
X0182365Y0089376D01*
X0181442Y0090300D01*
X0177578Y0090300D01*
X0177578Y0090986D01*
X0177000Y0091564D01*
X0177578Y0092142D01*
X0177578Y0098958D01*
X0176934Y0099603D01*
X0170904Y0099603D01*
X0170260Y0098958D01*
X0170260Y0092142D01*
X0170904Y0091497D01*
X0171952Y0091497D01*
X0171441Y0090986D01*
X0171441Y0087894D01*
X0168575Y0085028D01*
X0168272Y0085331D01*
X0163929Y0085331D01*
X0163929Y0085769D01*
X0168272Y0085769D01*
X0168917Y0086413D01*
X0168917Y0090986D01*
X0168405Y0091497D01*
X0169453Y0091497D01*
X0170098Y0092142D01*
X0170098Y0098958D01*
X0169453Y0099603D01*
X0163929Y0099603D01*
X0163929Y0099698D01*
X0184594Y0099698D01*
X0184744Y0099337D01*
X0185718Y0098363D01*
X0186990Y0097836D01*
X0188368Y0097836D01*
X0189640Y0098363D01*
X0190614Y0099337D01*
X0191141Y0100609D01*
X0191141Y0101987D01*
X0190614Y0103259D01*
X0189640Y0104233D01*
X0188368Y0104760D01*
X0186990Y0104760D01*
X0185718Y0104233D01*
X0184744Y0103259D01*
X0184594Y0102898D01*
X0163929Y0102898D01*
X0163929Y0103287D01*
X0168214Y0107572D01*
X0184594Y0107572D01*
X0184744Y0107211D01*
X0185718Y0106237D01*
X0186990Y0105710D01*
X0188368Y0105710D01*
X0189640Y0106237D01*
X0190614Y0107211D01*
X0191141Y0108483D01*
X0191141Y0109861D01*
X0190614Y0111133D01*
X0189640Y0112107D01*
X0188368Y0112634D01*
X0186990Y0112634D01*
X0185718Y0112107D01*
X0184744Y0111133D01*
X0184594Y0110772D01*
X0166888Y0110772D01*
X0164005Y0107889D01*
X0164005Y0108562D01*
X0163929Y0108747D01*
X0163929Y0112037D01*
X0175842Y0123950D01*
X0176779Y0124887D01*
X0176779Y0129756D01*
X0177363Y0130341D01*
X0177755Y0131288D01*
X0177755Y0132312D01*
X0177363Y0133259D01*
X0176638Y0133984D01*
X0175691Y0134376D01*
X0175018Y0134376D01*
X0176344Y0135702D01*
X0184594Y0135702D01*
X0184744Y0135341D01*
X0185718Y0134367D01*
X0186990Y0133840D01*
X0188368Y0133840D01*
X0189640Y0134367D01*
X0190614Y0135341D01*
X0191141Y0136613D01*
X0191141Y0137991D01*
X0190614Y0139263D01*
X0189640Y0140237D01*
X0188368Y0140764D01*
X0186990Y0140764D01*
X0185718Y0140237D01*
X0184744Y0139263D01*
X0184594Y0138902D01*
X0175794Y0138902D01*
X0180468Y0143576D01*
X0184594Y0143576D01*
X0184744Y0143215D01*
X0185718Y0142241D01*
X0186990Y0141714D01*
X0188368Y0141714D01*
X0189640Y0142241D01*
X0190614Y0143215D01*
X0191141Y0144487D01*
X0191141Y0145865D01*
X0190614Y0147137D01*
X0189640Y0148111D01*
X0188368Y0148638D01*
X0186990Y0148638D01*
X0185718Y0148111D01*
X0184744Y0147137D01*
X0184594Y0146776D01*
X0179918Y0146776D01*
X0184592Y0151450D01*
X0184594Y0151450D01*
X0184744Y0151089D01*
X0185718Y0150115D01*
X0186990Y0149588D01*
X0188368Y0149588D01*
X0189640Y0150115D01*
X0190614Y0151089D01*
X0191141Y0152361D01*
X0191141Y0153739D01*
X0190614Y0155011D01*
X0189640Y0155985D01*
X0188368Y0156512D01*
X0186990Y0156512D01*
X0185718Y0155985D01*
X0184744Y0155011D01*
X0184594Y0154650D01*
X0184042Y0154650D01*
X0186893Y0157502D01*
X0186990Y0157462D01*
X0188368Y0157462D01*
X0189640Y0157989D01*
X0190614Y0158963D01*
X0191141Y0160235D01*
X0191141Y0161613D01*
X0190614Y0162885D01*
X0189640Y0163859D01*
X0188368Y0164386D01*
X0186990Y0164386D01*
X0185718Y0163859D01*
X0184744Y0162885D01*
X0184217Y0161613D01*
X0184217Y0160235D01*
X0184476Y0159610D01*
X0169279Y0144413D01*
X0169279Y0144887D01*
X0178342Y0153950D01*
X0179279Y0154887D01*
X0179279Y0171006D01*
X0179863Y0171591D01*
X0180255Y0172538D01*
X0180255Y0173562D01*
X0179863Y0174509D01*
X0179138Y0175234D01*
X0178191Y0175626D01*
X0177166Y0175626D01*
X0176219Y0175234D01*
X0175804Y0174819D01*
X0175388Y0175234D01*
X0174441Y0175626D01*
X0173416Y0175626D01*
X0172469Y0175234D01*
X0171745Y0174509D01*
X0171352Y0173562D01*
X0171352Y0172538D01*
X0171745Y0171591D01*
X0172329Y0171006D01*
X0172329Y0157463D01*
X0166742Y0151876D01*
X0165916Y0151876D01*
X0164969Y0151484D01*
X0164245Y0150759D01*
X0163852Y0149812D01*
X0163852Y0148788D01*
X0164245Y0147841D01*
X0164969Y0147116D01*
X0165732Y0146800D01*
X0164969Y0146484D01*
X0164245Y0145759D01*
X0163852Y0144812D01*
X0163852Y0143788D01*
X0164245Y0142841D01*
X0164969Y0142116D01*
X0165916Y0141724D01*
X0166590Y0141724D01*
X0163929Y0139063D01*
X0163929Y0139300D01*
X0142679Y0139300D01*
X0142679Y0144300D01*
X0133929Y0144300D01*
X0133929Y0145407D01*
X0134189Y0145147D01*
X0134531Y0144949D01*
X0134912Y0144847D01*
X0137169Y0144847D01*
X0137169Y0148800D01*
X0138169Y0148800D01*
X0138169Y0149800D01*
X0137169Y0149800D01*
X0137169Y0153753D01*
X0134912Y0153753D01*
X0134531Y0153651D01*
X0134189Y0153453D01*
X0133929Y0153193D01*
X0133929Y0163650D01*
X0141429Y0163650D01*
X0141429Y0160626D01*
X0140916Y0160626D01*
X0140350Y0160392D01*
X0140350Y0161249D01*
X0140248Y0161631D01*
X0140050Y0161973D01*
X0139771Y0162252D01*
X0139429Y0162450D01*
X0139048Y0162552D01*
X0137760Y0162552D01*
X0137760Y0158288D01*
X0137578Y0158288D01*
X0137578Y0158107D01*
X0134988Y0158107D01*
X0134988Y0155146D01*
X0135090Y0154764D01*
X0135288Y0154422D01*
X0135567Y0154143D01*
X0135909Y0153946D01*
X0136290Y0153843D01*
X0137578Y0153843D01*
X0137578Y0158107D01*
X0137760Y0158107D01*
X0137760Y0153843D01*
X0139048Y0153843D01*
X0139429Y0153946D01*
X0139771Y0154143D01*
X0140050Y0154422D01*
X0140248Y0154764D01*
X0140350Y0155146D01*
X0140350Y0155708D01*
X0140916Y0155474D01*
X0141941Y0155474D01*
X0142517Y0155712D01*
X0143871Y0154357D01*
X0143805Y0154319D01*
X0143526Y0154040D01*
X0143328Y0153698D01*
X0143226Y0153316D01*
X0143226Y0151060D01*
X0147179Y0151060D01*
X0147179Y0150060D01*
X0143226Y0150060D01*
X0143226Y0147803D01*
X0143328Y0147422D01*
X0143526Y0147080D01*
X0143805Y0146800D01*
X0144075Y0146645D01*
X0143919Y0146375D01*
X0143817Y0145994D01*
X0143817Y0143934D01*
X0147179Y0143934D01*
X0147179Y0147296D01*
X0147179Y0150060D01*
X0148179Y0150060D01*
X0148179Y0151060D01*
X0152132Y0151060D01*
X0152132Y0153316D01*
X0152029Y0153698D01*
X0151832Y0154040D01*
X0151553Y0154319D01*
X0151486Y0154357D01*
X0152679Y0155550D01*
X0152679Y0156613D01*
X0152789Y0156724D01*
X0153191Y0156724D01*
X0154138Y0157116D01*
X0154863Y0157841D01*
X0155255Y0158788D01*
X0155255Y0159812D01*
X0154863Y0160759D01*
X0154138Y0161484D01*
X0153191Y0161876D01*
X0152679Y0161876D01*
X0152679Y0165363D01*
X0153329Y0166013D01*
X0155966Y0168650D01*
X0157079Y0169763D01*
X0157079Y0182400D01*
X0162216Y0182400D01*
X0163329Y0183513D01*
X0163466Y0183650D01*
X0180966Y0183650D01*
X0182079Y0184763D01*
X0184039Y0186724D01*
X0184441Y0186724D01*
X0185388Y0187116D01*
X0186113Y0187841D01*
X0186200Y0188050D01*
X0198130Y0188050D01*
X0198130Y0011300D01*
X0092679Y0011300D01*
X0092679Y0014236D01*
X0093602Y0013313D01*
X0095417Y0012561D01*
X0097382Y0012561D01*
X0099197Y0013313D01*
X0100586Y0014703D01*
X0101338Y0016518D01*
X0101338Y0018482D01*
X0100586Y0020297D01*
X0099197Y0021687D01*
X0097382Y0022439D01*
X0095417Y0022439D01*
X0093602Y0021687D01*
X0092679Y0020764D01*
X0092679Y0038650D01*
X0120935Y0038650D01*
X0121219Y0038366D01*
X0122166Y0037974D01*
X0123191Y0037974D01*
X0124138Y0038366D01*
X0124863Y0039091D01*
X0125255Y0040038D01*
X0125255Y0041062D01*
X0124863Y0042009D01*
X0124138Y0042734D01*
X0123191Y0043126D01*
X0122166Y0043126D01*
X0121219Y0042734D01*
X0120935Y0042450D01*
X0092679Y0042450D01*
X0092679Y0050550D01*
X0082629Y0050550D01*
X0084176Y0052098D01*
X0088390Y0052098D01*
X0089035Y0052742D01*
X0089035Y0053763D01*
X0090073Y0053763D01*
X0090073Y0052742D01*
X0090717Y0052098D01*
X0097140Y0052098D01*
X0097785Y0052742D01*
X0097785Y0057984D01*
X0097140Y0058628D01*
X0090717Y0058628D01*
X0090073Y0057984D01*
X0090073Y0056963D01*
X0089035Y0056963D01*
X0089035Y0057984D01*
X0088390Y0058628D01*
X0081967Y0058628D01*
X0081323Y0057984D01*
X0081323Y0053770D01*
X0078103Y0050550D01*
X0074279Y0050550D01*
X0074279Y0052098D01*
X0075890Y0052098D01*
X0076535Y0052742D01*
X0076535Y0057984D01*
X0075890Y0058628D01*
X0069467Y0058628D01*
X0068823Y0057984D01*
X0068823Y0056963D01*
X0067785Y0056963D01*
X0067785Y0057984D01*
X0067140Y0058628D01*
X0060717Y0058628D01*
X0060073Y0057984D01*
X0060073Y0052742D01*
X0060717Y0052098D01*
X0067140Y0052098D01*
X0067785Y0052742D01*
X0067785Y0053763D01*
X0068823Y0053763D01*
X0068823Y0052742D01*
X0069467Y0052098D01*
X0071079Y0052098D01*
X0071079Y0050550D01*
X0060255Y0050550D01*
X0060255Y0051062D01*
X0059863Y0052009D01*
X0059138Y0052734D01*
X0058191Y0053126D01*
X0057381Y0053126D01*
X0057381Y0053762D01*
X0056737Y0054406D01*
X0051495Y0054406D01*
X0050850Y0053762D01*
X0050850Y0050550D01*
X0049507Y0050550D01*
X0049507Y0053762D01*
X0048863Y0054406D01*
X0044649Y0054406D01*
X0042653Y0056402D01*
X0041429Y0056402D01*
X0041429Y0061076D01*
X0042203Y0061076D01*
X0042976Y0060303D01*
X0042976Y0056088D01*
X0043621Y0055444D01*
X0048863Y0055444D01*
X0049507Y0056088D01*
X0049507Y0062512D01*
X0048863Y0063156D01*
X0044649Y0063156D01*
X0043529Y0064276D01*
X0041429Y0064276D01*
X0041429Y0068950D01*
X0042976Y0068950D01*
X0042976Y0064838D01*
X0043621Y0064194D01*
X0048863Y0064194D01*
X0049507Y0064838D01*
X0049507Y0071262D01*
X0048863Y0071906D01*
X0044649Y0071906D01*
X0044405Y0072150D01*
X0041429Y0072150D01*
X0041429Y0076824D01*
X0042976Y0076824D01*
X0042976Y0073588D01*
X0043621Y0072944D01*
X0048863Y0072944D01*
X0049507Y0073588D01*
X0049507Y0080012D01*
X0048863Y0080656D01*
X0043621Y0080656D01*
X0042989Y0080024D01*
X0041429Y0080024D01*
X0041429Y0084698D01*
X0042976Y0084698D01*
X0042976Y0082338D01*
X0043621Y0081694D01*
X0048863Y0081694D01*
X0049507Y0082338D01*
X0049507Y0088762D01*
X0048863Y0089406D01*
X0043621Y0089406D01*
X0042976Y0088762D01*
X0042976Y0087898D01*
X0041429Y0087898D01*
X0041429Y0118050D01*
X0052679Y0129300D01*
X0052679Y0130510D01*
X0053217Y0129972D01*
X0059640Y0129972D01*
X0060285Y0130616D01*
X0060285Y0135858D01*
X0059640Y0136502D01*
X0058029Y0136502D01*
X0058029Y0137986D01*
X0058631Y0138588D01*
X0058631Y0141450D01*
X0066885Y0141450D01*
X0067469Y0140866D01*
X0068009Y0140643D01*
X0065766Y0138400D01*
X0064829Y0137463D01*
X0064829Y0129887D01*
X0065766Y0128950D01*
X0066079Y0128637D01*
X0067016Y0127700D01*
X0084516Y0127700D01*
X0085102Y0127114D01*
X0085102Y0126288D01*
X0085495Y0125341D01*
X0086219Y0124616D01*
X0087166Y0124224D01*
X0087840Y0124224D01*
X0079829Y0116213D01*
X0079829Y0100094D01*
X0079245Y0099509D01*
X0078852Y0098562D01*
X0078852Y0097538D01*
X0079245Y0096591D01*
X0079969Y0095866D01*
X0080916Y0095474D01*
X0081941Y0095474D01*
X0082888Y0095866D01*
X0083304Y0096281D01*
X0083719Y0095866D01*
X0084666Y0095474D01*
X0085691Y0095474D01*
X0086638Y0095866D01*
X0087054Y0096281D01*
X0087469Y0095866D01*
X0088416Y0095474D01*
X0089441Y0095474D01*
X0090388Y0095866D01*
X0090804Y0096281D01*
X0091219Y0095866D01*
X0092166Y0095474D01*
X0093191Y0095474D01*
X0094138Y0095866D01*
X0094554Y0096281D01*
X0094969Y0095866D01*
X0095916Y0095474D01*
X0096941Y0095474D01*
X0097888Y0095866D01*
X0098613Y0096591D01*
X0099005Y0097538D01*
X0099005Y0098562D01*
X0098613Y0099509D01*
X0098029Y0100094D01*
X0098029Y0108637D01*
X0100842Y0111450D01*
X0102435Y0111450D01*
X0101745Y0110759D01*
X0101352Y0109812D01*
X0101352Y0108788D01*
X0101745Y0107841D01*
X0102469Y0107116D01*
X0103416Y0106724D01*
X0104242Y0106724D01*
X0123579Y0087387D01*
X0124516Y0086450D01*
X0128029Y0086450D01*
X0129607Y0084872D01*
X0129245Y0084509D01*
X0128852Y0083562D01*
X0128852Y0082538D01*
X0129245Y0081591D01*
X0129935Y0080900D01*
X0119592Y0080900D01*
X0111505Y0088986D01*
X0111505Y0089812D01*
X0111113Y0090759D01*
X0110388Y0091484D01*
X0109441Y0091876D01*
X0108416Y0091876D01*
X0107469Y0091484D01*
X0106745Y0090759D01*
X0106352Y0089812D01*
X0106352Y0088788D01*
X0106745Y0087841D01*
X0107469Y0087116D01*
X0108416Y0086724D01*
X0109242Y0086724D01*
X0117329Y0078637D01*
X0117566Y0078400D01*
X0108342Y0078400D01*
X0106505Y0080236D01*
X0106505Y0081062D01*
X0106113Y0082009D01*
X0105388Y0082734D01*
X0104441Y0083126D01*
X0103416Y0083126D01*
X0102469Y0082734D01*
X0101745Y0082009D01*
X0101352Y0081062D01*
X0101352Y0080038D01*
X0101745Y0079091D01*
X0102469Y0078366D01*
X0103232Y0078050D01*
X0102469Y0077734D01*
X0101745Y0077009D01*
X0101352Y0076062D01*
X0101352Y0075038D01*
X0101745Y0074091D01*
X0102469Y0073366D01*
X0103232Y0073050D01*
X0102469Y0072734D01*
X0101745Y0072009D01*
X0101352Y0071062D01*
X0101352Y0070038D01*
X0101745Y0069091D01*
X0102469Y0068366D01*
X0103232Y0068050D01*
X0102469Y0067734D01*
X0101745Y0067009D01*
X0101352Y0066062D01*
X0101352Y0065038D01*
X0101745Y0064091D01*
X0102469Y0063366D01*
X0103416Y0062974D01*
X0104441Y0062974D01*
X0105388Y0063366D01*
X0106113Y0064091D01*
X0106505Y0065038D01*
X0106505Y0065864D01*
X0108342Y0067700D01*
X0133266Y0067700D01*
X0135102Y0065864D01*
X0135102Y0065038D01*
X0135495Y0064091D01*
X0136219Y0063366D01*
X0136429Y0063279D01*
X0136429Y0055449D01*
X0133020Y0055449D01*
X0132376Y0054805D01*
X0132376Y0054376D01*
X0132166Y0054376D01*
X0131219Y0053984D01*
X0130495Y0053259D01*
X0130102Y0052312D01*
X0130102Y0051288D01*
X0130495Y0050341D01*
X0131219Y0049616D01*
X0132166Y0049224D01*
X0132376Y0049224D01*
X0132376Y0048775D01*
X0133020Y0048131D01*
X0136429Y0048131D01*
X0136429Y0047969D01*
X0133020Y0047969D01*
X0132376Y0047325D01*
X0132376Y0042520D01*
X0132329Y0042473D01*
X0132329Y0041344D01*
X0131745Y0040759D01*
X0131352Y0039812D01*
X0131352Y0038788D01*
X0131745Y0037841D01*
X0132469Y0037116D01*
X0133416Y0036724D01*
X0134298Y0036724D01*
X0133719Y0036484D01*
X0132995Y0035759D01*
X0132602Y0034812D01*
X0132602Y0033788D01*
X0132995Y0032841D01*
X0133719Y0032116D01*
X0134666Y0031724D01*
X0135691Y0031724D01*
X0136638Y0032116D01*
X0137222Y0032700D01*
X0138342Y0032700D01*
X0141779Y0036137D01*
X0142373Y0035543D01*
X0145484Y0035543D01*
X0146129Y0036187D01*
X0146129Y0037100D01*
X0146329Y0036900D01*
X0146329Y0036021D01*
X0147200Y0035150D01*
X0147053Y0035003D01*
X0144508Y0035003D01*
X0143630Y0034124D01*
X0143630Y0026976D01*
X0144508Y0026097D01*
X0144931Y0026097D01*
X0144931Y0025152D01*
X0144743Y0025074D01*
X0143657Y0023988D01*
X0143069Y0022568D01*
X0143069Y0021032D01*
X0143657Y0019612D01*
X0144743Y0018526D01*
X0146163Y0017938D01*
X0147699Y0017938D01*
X0149119Y0018526D01*
X0150205Y0019612D01*
X0150793Y0021032D01*
X0150793Y0022568D01*
X0150205Y0023988D01*
X0149119Y0025074D01*
X0148931Y0025152D01*
X0148931Y0026097D01*
X0150869Y0026097D01*
X0151429Y0026657D01*
X0151989Y0026097D01*
X0152805Y0026097D01*
X0152805Y0025152D01*
X0152617Y0025074D01*
X0151531Y0023988D01*
X0150943Y0022568D01*
X0150943Y0021032D01*
X0151531Y0019612D01*
X0152617Y0018526D01*
X0154037Y0017938D01*
X0155573Y0017938D01*
X0156993Y0018526D01*
X0157752Y0019285D02*
X0160297Y0019285D01*
X0160718Y0018865D02*
X0159744Y0019839D01*
X0159217Y0021111D01*
X0159217Y0022489D01*
X0159744Y0023761D01*
X0160718Y0024735D01*
X0161990Y0025262D01*
X0163368Y0025262D01*
X0164640Y0024735D01*
X0165614Y0023761D01*
X0166141Y0022489D01*
X0166141Y0021111D01*
X0165614Y0019839D01*
X0164640Y0018865D01*
X0163368Y0018338D01*
X0161990Y0018338D01*
X0160718Y0018865D01*
X0159559Y0020284D02*
X0158357Y0020284D01*
X0158667Y0021282D02*
X0159217Y0021282D01*
X0159217Y0022281D02*
X0158667Y0022281D01*
X0158373Y0023279D02*
X0159544Y0023279D01*
X0160260Y0024278D02*
X0157789Y0024278D01*
X0156805Y0025276D02*
X0168579Y0025276D01*
X0168579Y0024722D02*
X0167618Y0023761D01*
X0167091Y0022489D01*
X0167091Y0021111D01*
X0167618Y0019839D01*
X0168592Y0018865D01*
X0169864Y0018338D01*
X0171242Y0018338D01*
X0172514Y0018865D01*
X0173488Y0019839D01*
X0174015Y0021111D01*
X0174015Y0022489D01*
X0173488Y0023761D01*
X0172514Y0024735D01*
X0171779Y0025040D01*
X0171779Y0027098D01*
X0173390Y0027098D01*
X0174035Y0027742D01*
X0174035Y0032984D01*
X0173390Y0033628D01*
X0166967Y0033628D01*
X0166323Y0032984D01*
X0166323Y0027742D01*
X0166967Y0027098D01*
X0168579Y0027098D01*
X0168579Y0024722D01*
X0168134Y0024278D02*
X0165097Y0024278D01*
X0165814Y0023279D02*
X0167418Y0023279D01*
X0167091Y0022281D02*
X0166141Y0022281D01*
X0166141Y0021282D02*
X0167091Y0021282D01*
X0167433Y0020284D02*
X0165798Y0020284D01*
X0165060Y0019285D02*
X0168171Y0019285D01*
X0170553Y0021800D02*
X0170179Y0022174D01*
X0170179Y0030363D01*
X0166323Y0030269D02*
X0159228Y0030269D01*
X0159228Y0029270D02*
X0166323Y0029270D01*
X0166323Y0028272D02*
X0159228Y0028272D01*
X0159228Y0027273D02*
X0166792Y0027273D01*
X0168579Y0026275D02*
X0158527Y0026275D01*
X0154805Y0030186D02*
X0154805Y0021800D01*
X0153194Y0018287D02*
X0148541Y0018287D01*
X0149878Y0019285D02*
X0151858Y0019285D01*
X0151252Y0020284D02*
X0150483Y0020284D01*
X0150793Y0021282D02*
X0150943Y0021282D01*
X0150943Y0022281D02*
X0150793Y0022281D01*
X0150499Y0023279D02*
X0151237Y0023279D01*
X0151821Y0024278D02*
X0149915Y0024278D01*
X0148931Y0025276D02*
X0152805Y0025276D01*
X0151811Y0026275D02*
X0151047Y0026275D01*
X0146931Y0029792D02*
X0146931Y0021800D01*
X0143363Y0023279D02*
X0142192Y0023279D01*
X0141992Y0023761D02*
X0141018Y0024735D01*
X0139745Y0025262D01*
X0138368Y0025262D01*
X0137096Y0024735D01*
X0136122Y0023761D01*
X0135595Y0022489D01*
X0135595Y0021111D01*
X0136122Y0019839D01*
X0137096Y0018865D01*
X0138368Y0018338D01*
X0139745Y0018338D01*
X0141018Y0018865D01*
X0141992Y0019839D01*
X0142519Y0021111D01*
X0142519Y0022489D01*
X0141992Y0023761D01*
X0141475Y0024278D02*
X0143946Y0024278D01*
X0144931Y0025276D02*
X0122760Y0025276D01*
X0122261Y0024778D02*
X0123374Y0025890D01*
X0123976Y0027343D01*
X0123976Y0028916D01*
X0123374Y0030370D01*
X0122261Y0031482D01*
X0120808Y0032084D01*
X0119235Y0032084D01*
X0117781Y0031482D01*
X0116669Y0030370D01*
X0116067Y0028916D01*
X0116067Y0027343D01*
X0116669Y0025890D01*
X0117781Y0024778D01*
X0119235Y0024176D01*
X0120808Y0024176D01*
X0122261Y0024778D01*
X0121054Y0024278D02*
X0136638Y0024278D01*
X0135922Y0023279D02*
X0092679Y0023279D01*
X0092679Y0022281D02*
X0095036Y0022281D01*
X0093197Y0021282D02*
X0092679Y0021282D01*
X0092679Y0024278D02*
X0099303Y0024278D01*
X0099550Y0024176D02*
X0101123Y0024176D01*
X0102576Y0024778D01*
X0103689Y0025890D01*
X0104291Y0027343D01*
X0104291Y0028916D01*
X0103689Y0030370D01*
X0102576Y0031482D01*
X0101123Y0032084D01*
X0099550Y0032084D01*
X0098096Y0031482D01*
X0096984Y0030370D01*
X0096382Y0028916D01*
X0096382Y0027343D01*
X0096984Y0025890D01*
X0098096Y0024778D01*
X0099550Y0024176D01*
X0101369Y0024278D02*
X0118988Y0024278D01*
X0117283Y0025276D02*
X0103075Y0025276D01*
X0103848Y0026275D02*
X0116510Y0026275D01*
X0116096Y0027273D02*
X0104262Y0027273D01*
X0104291Y0028272D02*
X0116067Y0028272D01*
X0116214Y0029270D02*
X0104144Y0029270D01*
X0103731Y0030269D02*
X0116627Y0030269D01*
X0117566Y0031267D02*
X0102791Y0031267D01*
X0097881Y0031267D02*
X0092679Y0031267D01*
X0092679Y0030269D02*
X0096942Y0030269D01*
X0096529Y0029270D02*
X0092679Y0029270D01*
X0092679Y0028272D02*
X0096382Y0028272D01*
X0096411Y0027273D02*
X0092679Y0027273D01*
X0092679Y0026275D02*
X0096825Y0026275D01*
X0097598Y0025276D02*
X0092679Y0025276D01*
X0097763Y0022281D02*
X0122595Y0022281D01*
X0122976Y0022439D02*
X0121161Y0021687D01*
X0119772Y0020297D01*
X0119020Y0018482D01*
X0119020Y0016518D01*
X0119772Y0014703D01*
X0121161Y0013313D01*
X0122976Y0012561D01*
X0124941Y0012561D01*
X0126756Y0013313D01*
X0128145Y0014703D01*
X0128897Y0016518D01*
X0128897Y0018482D01*
X0128145Y0020297D01*
X0126756Y0021687D01*
X0124941Y0022439D01*
X0122976Y0022439D01*
X0125322Y0022281D02*
X0135595Y0022281D01*
X0135595Y0021282D02*
X0127160Y0021282D01*
X0128151Y0020284D02*
X0135937Y0020284D01*
X0136675Y0019285D02*
X0128564Y0019285D01*
X0128897Y0018287D02*
X0145320Y0018287D01*
X0143984Y0019285D02*
X0141438Y0019285D01*
X0142176Y0020284D02*
X0143378Y0020284D01*
X0143069Y0021282D02*
X0142519Y0021282D01*
X0142519Y0022281D02*
X0143069Y0022281D01*
X0144331Y0026275D02*
X0123533Y0026275D01*
X0123947Y0027273D02*
X0143630Y0027273D01*
X0143630Y0028272D02*
X0123976Y0028272D01*
X0123829Y0029270D02*
X0143630Y0029270D01*
X0143630Y0030269D02*
X0123416Y0030269D01*
X0122476Y0031267D02*
X0143630Y0031267D01*
X0143630Y0032266D02*
X0136788Y0032266D01*
X0137679Y0034300D02*
X0135179Y0034300D01*
X0137679Y0034300D02*
X0143929Y0040550D01*
X0143929Y0041564D01*
X0146129Y0036260D02*
X0146329Y0036260D01*
X0147089Y0035261D02*
X0140903Y0035261D01*
X0139904Y0034263D02*
X0143768Y0034263D01*
X0143630Y0033264D02*
X0138906Y0033264D01*
X0133570Y0032266D02*
X0092679Y0032266D01*
X0092679Y0033264D02*
X0132819Y0033264D01*
X0132602Y0034263D02*
X0092679Y0034263D01*
X0092679Y0035261D02*
X0132788Y0035261D01*
X0133495Y0036260D02*
X0092679Y0036260D01*
X0092679Y0037258D02*
X0132327Y0037258D01*
X0131572Y0038257D02*
X0123875Y0038257D01*
X0124931Y0039255D02*
X0131352Y0039255D01*
X0131535Y0040254D02*
X0125255Y0040254D01*
X0125177Y0041252D02*
X0132238Y0041252D01*
X0132329Y0042251D02*
X0124622Y0042251D01*
X0121483Y0038257D02*
X0092679Y0038257D01*
X0092679Y0043249D02*
X0132376Y0043249D01*
X0132376Y0044248D02*
X0092679Y0044248D01*
X0092679Y0045246D02*
X0132376Y0045246D01*
X0132376Y0046245D02*
X0092679Y0046245D01*
X0092679Y0047243D02*
X0132376Y0047243D01*
X0132910Y0048242D02*
X0092679Y0048242D01*
X0092679Y0049240D02*
X0132126Y0049240D01*
X0130596Y0050239D02*
X0092679Y0050239D01*
X0090579Y0052236D02*
X0088529Y0052236D01*
X0089035Y0053234D02*
X0090073Y0053234D01*
X0090073Y0057229D02*
X0089035Y0057229D01*
X0088792Y0058227D02*
X0090316Y0058227D01*
X0090717Y0059972D02*
X0097140Y0059972D01*
X0097785Y0060616D01*
X0097785Y0065858D01*
X0097140Y0066502D01*
X0095519Y0066502D01*
X0095519Y0067747D01*
X0096934Y0067747D01*
X0097578Y0068392D01*
X0097578Y0073196D01*
X0098019Y0073637D01*
X0098019Y0074963D01*
X0097082Y0075900D01*
X0095756Y0075900D01*
X0095709Y0075853D01*
X0094279Y0075853D01*
X0094279Y0078506D01*
X0094863Y0079091D01*
X0095255Y0080038D01*
X0095255Y0081062D01*
X0094863Y0082009D01*
X0094138Y0082734D01*
X0093191Y0083126D01*
X0092166Y0083126D01*
X0091219Y0082734D01*
X0090495Y0082009D01*
X0090102Y0081062D01*
X0090102Y0080038D01*
X0090495Y0079091D01*
X0091079Y0078506D01*
X0091079Y0075853D01*
X0090904Y0075853D01*
X0090260Y0075208D01*
X0090260Y0068392D01*
X0090904Y0067747D01*
X0092319Y0067747D01*
X0092319Y0066502D01*
X0090717Y0066502D01*
X0090073Y0065858D01*
X0090073Y0060616D01*
X0090717Y0059972D01*
X0090465Y0060224D02*
X0089177Y0060224D01*
X0089135Y0060151D02*
X0089333Y0060493D01*
X0089435Y0060874D01*
X0089435Y0062737D01*
X0085679Y0062737D01*
X0085679Y0063737D01*
X0089435Y0063737D01*
X0089435Y0065600D01*
X0089333Y0065981D01*
X0089135Y0066323D01*
X0088856Y0066603D01*
X0088514Y0066800D01*
X0088132Y0066902D01*
X0085679Y0066902D01*
X0085679Y0063737D01*
X0084679Y0063737D01*
X0084679Y0066902D01*
X0082225Y0066902D01*
X0081844Y0066800D01*
X0081502Y0066603D01*
X0081223Y0066323D01*
X0081025Y0065981D01*
X0080923Y0065600D01*
X0080923Y0063737D01*
X0084679Y0063737D01*
X0084679Y0062737D01*
X0085679Y0062737D01*
X0085679Y0059572D01*
X0088132Y0059572D01*
X0088514Y0059674D01*
X0088856Y0059871D01*
X0089135Y0060151D01*
X0089435Y0061223D02*
X0090073Y0061223D01*
X0090073Y0062221D02*
X0089435Y0062221D01*
X0090073Y0063220D02*
X0085679Y0063220D01*
X0085679Y0064218D02*
X0084679Y0064218D01*
X0084679Y0063220D02*
X0076535Y0063220D01*
X0076535Y0064218D02*
X0080923Y0064218D01*
X0080923Y0065217D02*
X0076535Y0065217D01*
X0076535Y0065858D02*
X0075890Y0066502D01*
X0074269Y0066502D01*
X0074269Y0067747D01*
X0075684Y0067747D01*
X0076328Y0068392D01*
X0076328Y0075208D01*
X0076089Y0075447D01*
X0079592Y0078950D01*
X0081885Y0078950D01*
X0082469Y0078366D01*
X0083416Y0077974D01*
X0084441Y0077974D01*
X0085388Y0078366D01*
X0086113Y0079091D01*
X0086505Y0080038D01*
X0086505Y0081062D01*
X0086113Y0082009D01*
X0085388Y0082734D01*
X0084441Y0083126D01*
X0083416Y0083126D01*
X0082469Y0082734D01*
X0081885Y0082150D01*
X0078266Y0082150D01*
X0072016Y0075900D01*
X0071969Y0075853D01*
X0069654Y0075853D01*
X0069010Y0075208D01*
X0069010Y0068392D01*
X0069654Y0067747D01*
X0071069Y0067747D01*
X0071069Y0066502D01*
X0069467Y0066502D01*
X0068823Y0065858D01*
X0068823Y0060616D01*
X0069467Y0059972D01*
X0075890Y0059972D01*
X0076535Y0060616D01*
X0076535Y0065858D01*
X0076178Y0066215D02*
X0081160Y0066215D01*
X0082959Y0068212D02*
X0076149Y0068212D01*
X0076328Y0069211D02*
X0082780Y0069211D01*
X0082780Y0068392D02*
X0083424Y0067747D01*
X0089453Y0067747D01*
X0090098Y0068392D01*
X0090098Y0075208D01*
X0089453Y0075853D01*
X0083424Y0075853D01*
X0082780Y0075208D01*
X0082780Y0073500D01*
X0082122Y0073500D01*
X0081638Y0073984D01*
X0080691Y0074376D01*
X0079666Y0074376D01*
X0078719Y0073984D01*
X0077995Y0073259D01*
X0077602Y0072312D01*
X0077602Y0071288D01*
X0077995Y0070341D01*
X0078719Y0069616D01*
X0079666Y0069224D01*
X0080691Y0069224D01*
X0081638Y0069616D01*
X0082122Y0070100D01*
X0082780Y0070100D01*
X0082780Y0068392D01*
X0084679Y0066215D02*
X0085679Y0066215D01*
X0085679Y0065217D02*
X0084679Y0065217D01*
X0084679Y0062737D02*
X0080923Y0062737D01*
X0080923Y0060874D01*
X0081025Y0060493D01*
X0081223Y0060151D01*
X0081502Y0059871D01*
X0081844Y0059674D01*
X0082225Y0059572D01*
X0084679Y0059572D01*
X0084679Y0062737D01*
X0084679Y0062221D02*
X0085679Y0062221D01*
X0085679Y0061223D02*
X0084679Y0061223D01*
X0084679Y0060224D02*
X0085679Y0060224D01*
X0085179Y0055363D02*
X0057679Y0027863D01*
X0057679Y0021800D01*
X0057866Y0021800D01*
X0049805Y0021800D02*
X0049805Y0023926D01*
X0072679Y0046800D01*
X0072679Y0055363D01*
X0063929Y0055363D01*
X0060073Y0055232D02*
X0043823Y0055232D01*
X0042976Y0056230D02*
X0042825Y0056230D01*
X0042976Y0057229D02*
X0041429Y0057229D01*
X0041429Y0058227D02*
X0042976Y0058227D01*
X0042976Y0059226D02*
X0041429Y0059226D01*
X0041429Y0060224D02*
X0042976Y0060224D01*
X0042866Y0062676D02*
X0046242Y0059300D01*
X0049507Y0059226D02*
X0050850Y0059226D01*
X0050850Y0060224D02*
X0049507Y0060224D01*
X0049507Y0061223D02*
X0050850Y0061223D01*
X0050850Y0062221D02*
X0049507Y0062221D01*
X0050850Y0062512D02*
X0050850Y0056088D01*
X0051495Y0055444D01*
X0056737Y0055444D01*
X0057381Y0056088D01*
X0057381Y0056724D01*
X0058191Y0056724D01*
X0059138Y0057116D01*
X0059863Y0057841D01*
X0060255Y0058788D01*
X0060255Y0059812D01*
X0060216Y0059907D01*
X0060252Y0059871D01*
X0060594Y0059674D01*
X0060975Y0059572D01*
X0063429Y0059572D01*
X0063429Y0062737D01*
X0064429Y0062737D01*
X0064429Y0063737D01*
X0068185Y0063737D01*
X0068185Y0065600D01*
X0068083Y0065981D01*
X0067885Y0066323D01*
X0067606Y0066603D01*
X0067264Y0066800D01*
X0066882Y0066902D01*
X0064429Y0066902D01*
X0064429Y0063737D01*
X0063429Y0063737D01*
X0063429Y0066902D01*
X0060975Y0066902D01*
X0060594Y0066800D01*
X0060252Y0066603D01*
X0059973Y0066323D01*
X0059775Y0065981D01*
X0059747Y0065876D01*
X0059138Y0066484D01*
X0058191Y0066876D01*
X0057381Y0066876D01*
X0057381Y0071262D01*
X0056737Y0071906D01*
X0055716Y0071906D01*
X0055716Y0072944D01*
X0056737Y0072944D01*
X0057381Y0073588D01*
X0057381Y0080012D01*
X0056737Y0080656D01*
X0051495Y0080656D01*
X0050850Y0080012D01*
X0050850Y0073588D01*
X0051495Y0072944D01*
X0052516Y0072944D01*
X0052516Y0071906D01*
X0051495Y0071906D01*
X0050850Y0071262D01*
X0050850Y0064838D01*
X0051495Y0064194D01*
X0055102Y0064194D01*
X0055102Y0063788D01*
X0055364Y0063156D01*
X0051495Y0063156D01*
X0050850Y0062512D01*
X0051471Y0064218D02*
X0048887Y0064218D01*
X0049507Y0065217D02*
X0050850Y0065217D01*
X0050850Y0066215D02*
X0049507Y0066215D01*
X0049507Y0067214D02*
X0050850Y0067214D01*
X0050850Y0068212D02*
X0049507Y0068212D01*
X0049507Y0069211D02*
X0050850Y0069211D01*
X0050850Y0070209D02*
X0049507Y0070209D01*
X0049507Y0071208D02*
X0050850Y0071208D01*
X0052516Y0072206D02*
X0041429Y0072206D01*
X0041429Y0073205D02*
X0043360Y0073205D01*
X0042976Y0074203D02*
X0041429Y0074203D01*
X0041429Y0075202D02*
X0042976Y0075202D01*
X0042976Y0076200D02*
X0041429Y0076200D01*
X0044618Y0078424D02*
X0046242Y0076800D01*
X0044618Y0078424D02*
X0033929Y0078424D01*
X0033929Y0086298D02*
X0045494Y0086298D01*
X0046242Y0085550D01*
X0049507Y0085187D02*
X0050850Y0085187D01*
X0050850Y0086185D02*
X0049507Y0086185D01*
X0049507Y0087184D02*
X0050850Y0087184D01*
X0050850Y0088182D02*
X0049507Y0088182D01*
X0049088Y0089181D02*
X0051270Y0089181D01*
X0051495Y0089406D02*
X0050850Y0088762D01*
X0050850Y0082338D01*
X0051495Y0081694D01*
X0056737Y0081694D01*
X0057381Y0082338D01*
X0057381Y0088762D01*
X0056737Y0089406D01*
X0055716Y0089406D01*
X0055716Y0089776D01*
X0050842Y0094650D01*
X0049722Y0094650D01*
X0049138Y0095234D01*
X0048191Y0095626D01*
X0047166Y0095626D01*
X0046219Y0095234D01*
X0045495Y0094509D01*
X0045102Y0093562D01*
X0045102Y0092538D01*
X0045495Y0091591D01*
X0046219Y0090866D01*
X0047166Y0090474D01*
X0048191Y0090474D01*
X0049138Y0090866D01*
X0049619Y0091347D01*
X0051560Y0089406D01*
X0051495Y0089406D01*
X0050787Y0090179D02*
X0041429Y0090179D01*
X0041429Y0089181D02*
X0043396Y0089181D01*
X0042976Y0088182D02*
X0041429Y0088182D01*
X0041429Y0091178D02*
X0045907Y0091178D01*
X0045252Y0092176D02*
X0041429Y0092176D01*
X0041429Y0093175D02*
X0045102Y0093175D01*
X0045356Y0094173D02*
X0041429Y0094173D01*
X0041429Y0095172D02*
X0046157Y0095172D01*
X0047679Y0093050D02*
X0050179Y0093050D01*
X0054116Y0089113D01*
X0054116Y0085550D01*
X0057381Y0085187D02*
X0110779Y0085187D01*
X0109781Y0086185D02*
X0057381Y0086185D01*
X0057381Y0087184D02*
X0107401Y0087184D01*
X0106603Y0088182D02*
X0057381Y0088182D01*
X0056962Y0089181D02*
X0106352Y0089181D01*
X0106504Y0090179D02*
X0055312Y0090179D01*
X0054314Y0091178D02*
X0107163Y0091178D01*
X0108929Y0089300D02*
X0118929Y0079300D01*
X0133929Y0079300D01*
X0140179Y0085550D01*
X0140179Y0081800D02*
X0135179Y0076800D01*
X0107679Y0076800D01*
X0103929Y0080550D01*
X0102876Y0078197D02*
X0094279Y0078197D01*
X0094279Y0077199D02*
X0101934Y0077199D01*
X0101410Y0076200D02*
X0094279Y0076200D01*
X0096419Y0074300D02*
X0093919Y0071800D01*
X0092679Y0073040D01*
X0092679Y0080550D01*
X0094681Y0082191D02*
X0101927Y0082191D01*
X0101406Y0081193D02*
X0095201Y0081193D01*
X0095255Y0080194D02*
X0101352Y0080194D01*
X0101701Y0079196D02*
X0094907Y0079196D01*
X0097780Y0075202D02*
X0101352Y0075202D01*
X0101698Y0074203D02*
X0098019Y0074203D01*
X0097586Y0073205D02*
X0102858Y0073205D01*
X0101941Y0072206D02*
X0097578Y0072206D01*
X0097578Y0071208D02*
X0101413Y0071208D01*
X0101352Y0070209D02*
X0097578Y0070209D01*
X0097578Y0069211D02*
X0101695Y0069211D01*
X0102840Y0068212D02*
X0097399Y0068212D01*
X0097428Y0066215D02*
X0101416Y0066215D01*
X0101352Y0065217D02*
X0097785Y0065217D01*
X0097785Y0064218D02*
X0101692Y0064218D01*
X0102822Y0063220D02*
X0097785Y0063220D01*
X0097785Y0062221D02*
X0136429Y0062221D01*
X0136429Y0061223D02*
X0097785Y0061223D01*
X0097393Y0060224D02*
X0136429Y0060224D01*
X0136429Y0059226D02*
X0060255Y0059226D01*
X0060316Y0058227D02*
X0060023Y0058227D01*
X0060073Y0057229D02*
X0059251Y0057229D01*
X0060073Y0056230D02*
X0057381Y0056230D01*
X0056910Y0054233D02*
X0060073Y0054233D01*
X0060073Y0053234D02*
X0057381Y0053234D01*
X0059636Y0052236D02*
X0060579Y0052236D01*
X0060183Y0051237D02*
X0071079Y0051237D01*
X0069329Y0052236D02*
X0067279Y0052236D01*
X0067785Y0053234D02*
X0068823Y0053234D01*
X0068823Y0057229D02*
X0067785Y0057229D01*
X0067542Y0058227D02*
X0069066Y0058227D01*
X0069215Y0060224D02*
X0067927Y0060224D01*
X0067885Y0060151D02*
X0068083Y0060493D01*
X0068185Y0060874D01*
X0068185Y0062737D01*
X0064429Y0062737D01*
X0064429Y0059572D01*
X0066882Y0059572D01*
X0067264Y0059674D01*
X0067606Y0059871D01*
X0067885Y0060151D01*
X0068185Y0061223D02*
X0068823Y0061223D01*
X0068823Y0062221D02*
X0068185Y0062221D01*
X0068823Y0063220D02*
X0064429Y0063220D01*
X0064429Y0064218D02*
X0063429Y0064218D01*
X0063429Y0065217D02*
X0064429Y0065217D01*
X0064429Y0066215D02*
X0063429Y0066215D01*
X0062174Y0067747D02*
X0068203Y0067747D01*
X0068848Y0068392D01*
X0068848Y0075208D01*
X0068203Y0075853D01*
X0067755Y0075853D01*
X0067755Y0076062D01*
X0067363Y0077009D01*
X0066638Y0077734D01*
X0065691Y0078126D01*
X0064666Y0078126D01*
X0063719Y0077734D01*
X0062995Y0077009D01*
X0062602Y0076062D01*
X0062602Y0075853D01*
X0062174Y0075853D01*
X0061530Y0075208D01*
X0061530Y0068392D01*
X0062174Y0067747D01*
X0061709Y0068212D02*
X0057381Y0068212D01*
X0057381Y0067214D02*
X0071069Y0067214D01*
X0069189Y0068212D02*
X0068668Y0068212D01*
X0068848Y0069211D02*
X0069010Y0069211D01*
X0069010Y0070209D02*
X0068848Y0070209D01*
X0068848Y0071208D02*
X0069010Y0071208D01*
X0069010Y0072206D02*
X0068848Y0072206D01*
X0068848Y0073205D02*
X0069010Y0073205D01*
X0069010Y0074203D02*
X0068848Y0074203D01*
X0068848Y0075202D02*
X0069010Y0075202D01*
X0067698Y0076200D02*
X0072316Y0076200D01*
X0073315Y0077199D02*
X0067174Y0077199D01*
X0065189Y0075540D02*
X0065179Y0075550D01*
X0065189Y0075540D02*
X0065189Y0071800D01*
X0061530Y0072206D02*
X0055716Y0072206D01*
X0056997Y0073205D02*
X0061530Y0073205D01*
X0061530Y0074203D02*
X0057381Y0074203D01*
X0057381Y0075202D02*
X0061530Y0075202D01*
X0062660Y0076200D02*
X0057381Y0076200D01*
X0057381Y0077199D02*
X0063184Y0077199D01*
X0057381Y0078197D02*
X0074313Y0078197D01*
X0075312Y0079196D02*
X0057381Y0079196D01*
X0057198Y0080194D02*
X0076310Y0080194D01*
X0077309Y0081193D02*
X0041429Y0081193D01*
X0041429Y0082191D02*
X0043124Y0082191D01*
X0042976Y0083190D02*
X0041429Y0083190D01*
X0041429Y0084188D02*
X0042976Y0084188D01*
X0043159Y0080194D02*
X0041429Y0080194D01*
X0049324Y0080194D02*
X0051033Y0080194D01*
X0050850Y0079196D02*
X0049507Y0079196D01*
X0049507Y0078197D02*
X0050850Y0078197D01*
X0050850Y0077199D02*
X0049507Y0077199D01*
X0049507Y0076200D02*
X0050850Y0076200D01*
X0050850Y0075202D02*
X0049507Y0075202D01*
X0049507Y0074203D02*
X0050850Y0074203D01*
X0051234Y0073205D02*
X0049123Y0073205D01*
X0046242Y0068050D02*
X0043742Y0070550D01*
X0033929Y0070550D01*
X0033929Y0062676D02*
X0042866Y0062676D01*
X0043586Y0064218D02*
X0043597Y0064218D01*
X0042976Y0065217D02*
X0041429Y0065217D01*
X0041429Y0066215D02*
X0042976Y0066215D01*
X0042976Y0067214D02*
X0041429Y0067214D01*
X0041429Y0068212D02*
X0042976Y0068212D01*
X0044585Y0063220D02*
X0055338Y0063220D01*
X0057679Y0064300D02*
X0054116Y0067863D01*
X0054116Y0068050D01*
X0054116Y0076800D01*
X0057381Y0071208D02*
X0061530Y0071208D01*
X0061530Y0070209D02*
X0057381Y0070209D01*
X0057381Y0069211D02*
X0061530Y0069211D01*
X0059910Y0066215D02*
X0059407Y0066215D01*
X0057679Y0059300D02*
X0054116Y0059300D01*
X0050850Y0058227D02*
X0049507Y0058227D01*
X0049507Y0057229D02*
X0050850Y0057229D01*
X0050850Y0056230D02*
X0049507Y0056230D01*
X0049036Y0054233D02*
X0051322Y0054233D01*
X0050850Y0053234D02*
X0049507Y0053234D01*
X0049507Y0052236D02*
X0050850Y0052236D01*
X0050850Y0051237D02*
X0049507Y0051237D01*
X0046242Y0050550D02*
X0041990Y0054802D01*
X0033929Y0054802D01*
X0049360Y0082191D02*
X0050998Y0082191D01*
X0050850Y0083190D02*
X0049507Y0083190D01*
X0049507Y0084188D02*
X0050850Y0084188D01*
X0049788Y0091178D02*
X0049450Y0091178D01*
X0052317Y0093175D02*
X0117791Y0093175D01*
X0116793Y0094173D02*
X0067324Y0094173D01*
X0065819Y0093550D02*
X0069310Y0094996D01*
X0071983Y0097669D01*
X0073429Y0101160D01*
X0073429Y0104940D01*
X0071983Y0108431D01*
X0069310Y0111104D01*
X0065819Y0112550D01*
X0062039Y0112550D01*
X0058548Y0111104D01*
X0055875Y0108431D01*
X0054429Y0104940D01*
X0054429Y0101160D01*
X0055875Y0097669D01*
X0058548Y0094996D01*
X0062039Y0093550D01*
X0065819Y0093550D01*
X0060534Y0094173D02*
X0051318Y0094173D01*
X0049200Y0095172D02*
X0058372Y0095172D01*
X0057373Y0096170D02*
X0041429Y0096170D01*
X0041429Y0097169D02*
X0056375Y0097169D01*
X0055668Y0098168D02*
X0041429Y0098168D01*
X0041429Y0099166D02*
X0055255Y0099166D01*
X0054841Y0100165D02*
X0041429Y0100165D01*
X0041429Y0101163D02*
X0054429Y0101163D01*
X0054429Y0102162D02*
X0041429Y0102162D01*
X0041429Y0103160D02*
X0054429Y0103160D01*
X0054429Y0104159D02*
X0041429Y0104159D01*
X0041429Y0105157D02*
X0054519Y0105157D01*
X0054933Y0106156D02*
X0041429Y0106156D01*
X0041429Y0107154D02*
X0055346Y0107154D01*
X0055760Y0108153D02*
X0041429Y0108153D01*
X0041429Y0109151D02*
X0056595Y0109151D01*
X0057593Y0110150D02*
X0041429Y0110150D01*
X0041429Y0111148D02*
X0058655Y0111148D01*
X0061065Y0112147D02*
X0041429Y0112147D01*
X0041429Y0113145D02*
X0079829Y0113145D01*
X0079829Y0112147D02*
X0066792Y0112147D01*
X0069203Y0111148D02*
X0079829Y0111148D01*
X0079829Y0110150D02*
X0070264Y0110150D01*
X0071263Y0109151D02*
X0079829Y0109151D01*
X0079829Y0108153D02*
X0072098Y0108153D01*
X0072512Y0107154D02*
X0079829Y0107154D01*
X0079829Y0106156D02*
X0072925Y0106156D01*
X0073339Y0105157D02*
X0079829Y0105157D01*
X0079829Y0104159D02*
X0073429Y0104159D01*
X0073429Y0103160D02*
X0079829Y0103160D01*
X0079829Y0102162D02*
X0073429Y0102162D01*
X0073429Y0101163D02*
X0079829Y0101163D01*
X0079829Y0100165D02*
X0073016Y0100165D01*
X0072603Y0099166D02*
X0079102Y0099166D01*
X0078852Y0098168D02*
X0072189Y0098168D01*
X0071483Y0097169D02*
X0079005Y0097169D01*
X0079665Y0096170D02*
X0070484Y0096170D01*
X0069486Y0095172D02*
X0115794Y0095172D01*
X0114796Y0096170D02*
X0098193Y0096170D01*
X0098853Y0097169D02*
X0113797Y0097169D01*
X0112799Y0098168D02*
X0099005Y0098168D01*
X0098755Y0099166D02*
X0111800Y0099166D01*
X0110802Y0100165D02*
X0098029Y0100165D01*
X0098029Y0101163D02*
X0109803Y0101163D01*
X0108805Y0102162D02*
X0098029Y0102162D01*
X0098029Y0103160D02*
X0107806Y0103160D01*
X0106808Y0104159D02*
X0098029Y0104159D01*
X0098029Y0105157D02*
X0105809Y0105157D01*
X0104810Y0106156D02*
X0098029Y0106156D01*
X0098029Y0107154D02*
X0102431Y0107154D01*
X0101615Y0108153D02*
X0098029Y0108153D01*
X0098543Y0109151D02*
X0101352Y0109151D01*
X0101492Y0110150D02*
X0099541Y0110150D01*
X0100540Y0111148D02*
X0102133Y0111148D01*
X0103929Y0109300D02*
X0125179Y0088050D01*
X0130179Y0088050D01*
X0133929Y0091800D01*
X0137679Y0091800D02*
X0132679Y0086800D01*
X0136429Y0086800D02*
X0136429Y0085550D01*
X0133929Y0083050D01*
X0131429Y0083050D01*
X0129642Y0081193D02*
X0119299Y0081193D01*
X0118300Y0082191D02*
X0128996Y0082191D01*
X0128852Y0083190D02*
X0117302Y0083190D01*
X0116303Y0084188D02*
X0129112Y0084188D01*
X0129292Y0085187D02*
X0115305Y0085187D01*
X0114306Y0086185D02*
X0128293Y0086185D01*
X0123782Y0087184D02*
X0113308Y0087184D01*
X0112309Y0088182D02*
X0122784Y0088182D01*
X0121785Y0089181D02*
X0111505Y0089181D01*
X0111353Y0090179D02*
X0120787Y0090179D01*
X0119788Y0091178D02*
X0110694Y0091178D01*
X0111778Y0084188D02*
X0057381Y0084188D01*
X0057381Y0083190D02*
X0112776Y0083190D01*
X0113775Y0082191D02*
X0105931Y0082191D01*
X0106451Y0081193D02*
X0114773Y0081193D01*
X0115772Y0080194D02*
X0106547Y0080194D01*
X0107546Y0079196D02*
X0116770Y0079196D01*
X0117329Y0078637D02*
X0117329Y0078637D01*
X0107679Y0069300D02*
X0133929Y0069300D01*
X0137679Y0065550D01*
X0135102Y0065217D02*
X0106505Y0065217D01*
X0106166Y0064218D02*
X0135442Y0064218D01*
X0136429Y0063220D02*
X0105035Y0063220D01*
X0103929Y0065550D02*
X0107679Y0069300D01*
X0107855Y0067214D02*
X0133752Y0067214D01*
X0134751Y0066215D02*
X0106857Y0066215D01*
X0101949Y0067214D02*
X0095519Y0067214D01*
X0092319Y0067214D02*
X0074269Y0067214D01*
X0076328Y0070209D02*
X0078126Y0070209D01*
X0077636Y0071208D02*
X0076328Y0071208D01*
X0076328Y0072206D02*
X0077602Y0072206D01*
X0077972Y0073205D02*
X0076328Y0073205D01*
X0076328Y0074203D02*
X0079248Y0074203D01*
X0081109Y0074203D02*
X0082780Y0074203D01*
X0082780Y0075202D02*
X0076328Y0075202D01*
X0076842Y0076200D02*
X0091079Y0076200D01*
X0091079Y0077199D02*
X0077840Y0077199D01*
X0078839Y0078197D02*
X0082876Y0078197D01*
X0084981Y0078197D02*
X0091079Y0078197D01*
X0090451Y0079196D02*
X0086157Y0079196D01*
X0086505Y0080194D02*
X0090102Y0080194D01*
X0090156Y0081193D02*
X0086451Y0081193D01*
X0085931Y0082191D02*
X0090677Y0082191D01*
X0083929Y0080550D02*
X0078929Y0080550D01*
X0072679Y0074300D01*
X0072679Y0071810D01*
X0072669Y0071800D01*
X0072669Y0063247D01*
X0072679Y0063237D01*
X0076535Y0062221D02*
X0080923Y0062221D01*
X0080923Y0061223D02*
X0076535Y0061223D01*
X0076143Y0060224D02*
X0081180Y0060224D01*
X0081566Y0058227D02*
X0076292Y0058227D01*
X0076535Y0057229D02*
X0081323Y0057229D01*
X0081323Y0056230D02*
X0076535Y0056230D01*
X0076535Y0055232D02*
X0081323Y0055232D01*
X0081323Y0054233D02*
X0076535Y0054233D01*
X0076535Y0053234D02*
X0080788Y0053234D01*
X0079789Y0052236D02*
X0076029Y0052236D01*
X0074279Y0051237D02*
X0078791Y0051237D01*
X0083316Y0051237D02*
X0130123Y0051237D01*
X0130102Y0052236D02*
X0097279Y0052236D01*
X0097785Y0053234D02*
X0130484Y0053234D01*
X0131820Y0054233D02*
X0097785Y0054233D01*
X0097785Y0055232D02*
X0132803Y0055232D01*
X0136429Y0056230D02*
X0097785Y0056230D01*
X0097785Y0057229D02*
X0136429Y0057229D01*
X0136429Y0058227D02*
X0097542Y0058227D01*
X0093929Y0055363D02*
X0085179Y0055363D01*
X0089435Y0064218D02*
X0090073Y0064218D01*
X0090073Y0065217D02*
X0089435Y0065217D01*
X0089198Y0066215D02*
X0090430Y0066215D01*
X0090439Y0068212D02*
X0089918Y0068212D01*
X0090098Y0069211D02*
X0090260Y0069211D01*
X0090260Y0070209D02*
X0090098Y0070209D01*
X0090098Y0071208D02*
X0090260Y0071208D01*
X0090260Y0072206D02*
X0090098Y0072206D01*
X0090098Y0073205D02*
X0090260Y0073205D01*
X0090260Y0074203D02*
X0090098Y0074203D01*
X0090098Y0075202D02*
X0090260Y0075202D01*
X0093919Y0071800D02*
X0093919Y0063247D01*
X0093929Y0063237D01*
X0093919Y0071800D02*
X0093929Y0071810D01*
X0103929Y0070550D02*
X0105179Y0071800D01*
X0141429Y0071800D01*
X0146429Y0076800D01*
X0147679Y0080550D02*
X0151429Y0076800D01*
X0155179Y0076800D02*
X0155179Y0074300D01*
X0153929Y0073050D01*
X0148929Y0073050D01*
X0143929Y0068050D01*
X0143929Y0062036D01*
X0148929Y0062036D02*
X0148929Y0056800D01*
X0150179Y0055550D01*
X0153929Y0054300D02*
X0151419Y0051790D01*
X0136429Y0051790D01*
X0136429Y0044310D02*
X0133929Y0041810D01*
X0133929Y0039300D01*
X0147689Y0032810D02*
X0150429Y0035550D01*
X0150429Y0040064D01*
X0148929Y0041564D01*
X0152429Y0040064D02*
X0152429Y0035550D01*
X0155169Y0032810D01*
X0155169Y0030550D01*
X0154805Y0030186D01*
X0163929Y0031267D02*
X0166323Y0031267D01*
X0166323Y0032266D02*
X0163929Y0032266D01*
X0163929Y0033264D02*
X0166603Y0033264D01*
X0166678Y0035261D02*
X0163929Y0035261D01*
X0163929Y0034263D02*
X0188966Y0034263D01*
X0192343Y0036260D02*
X0198130Y0036260D01*
X0198130Y0037258D02*
X0191535Y0037258D01*
X0191535Y0038257D02*
X0198130Y0038257D01*
X0198130Y0039255D02*
X0191535Y0039255D01*
X0191535Y0040254D02*
X0198130Y0040254D01*
X0198130Y0041252D02*
X0191140Y0041252D01*
X0193342Y0035261D02*
X0198130Y0035261D01*
X0198130Y0034263D02*
X0194340Y0034263D01*
X0198130Y0042251D02*
X0163929Y0042251D01*
X0163929Y0043249D02*
X0198130Y0043249D01*
X0198130Y0044248D02*
X0170212Y0044248D01*
X0170303Y0044300D02*
X0170582Y0044580D01*
X0170779Y0044922D01*
X0170882Y0045303D01*
X0170882Y0047560D01*
X0166929Y0047560D01*
X0166929Y0044001D01*
X0169579Y0044001D01*
X0169961Y0044103D01*
X0170303Y0044300D01*
X0170866Y0045246D02*
X0198130Y0045246D01*
X0198130Y0046245D02*
X0170882Y0046245D01*
X0170882Y0047243D02*
X0198130Y0047243D01*
X0198130Y0048242D02*
X0166929Y0048242D01*
X0166929Y0047243D02*
X0165929Y0047243D01*
X0165929Y0047560D02*
X0163929Y0047560D01*
X0163929Y0048560D01*
X0165929Y0048560D01*
X0165929Y0047560D01*
X0165929Y0048242D02*
X0163929Y0048242D01*
X0165929Y0046245D02*
X0166929Y0046245D01*
X0166929Y0045246D02*
X0165929Y0045246D01*
X0165929Y0044248D02*
X0166929Y0044248D01*
X0166717Y0041252D02*
X0163929Y0041252D01*
X0163929Y0040254D02*
X0166323Y0040254D01*
X0166323Y0039255D02*
X0163929Y0039255D01*
X0163929Y0038257D02*
X0166323Y0038257D01*
X0166323Y0037258D02*
X0163929Y0037258D01*
X0163929Y0036260D02*
X0166323Y0036260D01*
X0171779Y0026275D02*
X0177329Y0026275D01*
X0177329Y0027098D02*
X0177329Y0025093D01*
X0176466Y0024735D01*
X0175492Y0023761D01*
X0174965Y0022489D01*
X0174965Y0021111D01*
X0175492Y0019839D01*
X0176466Y0018865D01*
X0177738Y0018338D01*
X0179116Y0018338D01*
X0180388Y0018865D01*
X0181362Y0019839D01*
X0181889Y0021111D01*
X0181889Y0022489D01*
X0181362Y0023761D01*
X0180529Y0024594D01*
X0180529Y0027098D01*
X0182140Y0027098D01*
X0182785Y0027742D01*
X0182785Y0032984D01*
X0182140Y0033628D01*
X0175717Y0033628D01*
X0175073Y0032984D01*
X0175073Y0027742D01*
X0175717Y0027098D01*
X0177329Y0027098D01*
X0175542Y0027273D02*
X0173566Y0027273D01*
X0174035Y0028272D02*
X0175073Y0028272D01*
X0175073Y0029270D02*
X0174035Y0029270D01*
X0174035Y0030269D02*
X0175073Y0030269D01*
X0175073Y0031267D02*
X0174035Y0031267D01*
X0174035Y0032266D02*
X0175073Y0032266D01*
X0175353Y0033264D02*
X0173754Y0033264D01*
X0173680Y0035261D02*
X0175428Y0035261D01*
X0175073Y0036260D02*
X0174035Y0036260D01*
X0174035Y0040254D02*
X0175073Y0040254D01*
X0175467Y0041252D02*
X0173640Y0041252D01*
X0170882Y0049240D02*
X0198130Y0049240D01*
X0198130Y0050239D02*
X0170882Y0050239D01*
X0170756Y0051237D02*
X0198130Y0051237D01*
X0198130Y0052236D02*
X0170192Y0052236D01*
X0171321Y0053234D02*
X0198130Y0053234D01*
X0198130Y0054233D02*
X0172422Y0054233D01*
X0172755Y0055232D02*
X0198130Y0055232D01*
X0198130Y0056230D02*
X0172686Y0056230D01*
X0172144Y0057229D02*
X0198130Y0057229D01*
X0198130Y0058227D02*
X0170482Y0058227D01*
X0170179Y0055550D02*
X0166439Y0055550D01*
X0166429Y0055540D01*
X0163929Y0059226D02*
X0185485Y0059226D01*
X0185718Y0058993D02*
X0186990Y0058466D01*
X0188368Y0058466D01*
X0189640Y0058993D01*
X0190614Y0059967D01*
X0191141Y0061239D01*
X0191141Y0062617D01*
X0190614Y0063889D01*
X0189640Y0064863D01*
X0188368Y0065390D01*
X0186990Y0065390D01*
X0185718Y0064863D01*
X0184744Y0063889D01*
X0184217Y0062617D01*
X0184217Y0061239D01*
X0184744Y0059967D01*
X0185718Y0058993D01*
X0184637Y0060224D02*
X0163929Y0060224D01*
X0163929Y0061223D02*
X0184224Y0061223D01*
X0184217Y0062221D02*
X0163929Y0062221D01*
X0163929Y0063220D02*
X0184466Y0063220D01*
X0185073Y0064218D02*
X0163929Y0064218D01*
X0163929Y0065217D02*
X0186571Y0065217D01*
X0186552Y0066088D02*
X0187298Y0065940D01*
X0187391Y0065940D01*
X0187391Y0069514D01*
X0187966Y0069514D01*
X0187966Y0065940D01*
X0188059Y0065940D01*
X0188805Y0066088D01*
X0189508Y0066379D01*
X0190141Y0066802D01*
X0190679Y0067340D01*
X0191101Y0067973D01*
X0191393Y0068675D01*
X0191541Y0069422D01*
X0191541Y0069515D01*
X0187966Y0069515D01*
X0187966Y0070089D01*
X0191541Y0070089D01*
X0191541Y0070182D01*
X0191393Y0070929D01*
X0191101Y0071631D01*
X0190679Y0072264D01*
X0190141Y0072802D01*
X0189508Y0073225D01*
X0188805Y0073516D01*
X0188059Y0073664D01*
X0187966Y0073664D01*
X0187966Y0070089D01*
X0187391Y0070089D01*
X0187391Y0069515D01*
X0183817Y0069515D01*
X0183817Y0069422D01*
X0183965Y0068675D01*
X0184256Y0067973D01*
X0184679Y0067340D01*
X0185217Y0066802D01*
X0185849Y0066379D01*
X0186552Y0066088D01*
X0186246Y0066215D02*
X0163929Y0066215D01*
X0163929Y0067214D02*
X0184805Y0067214D01*
X0184157Y0068212D02*
X0163929Y0068212D01*
X0163929Y0069211D02*
X0183859Y0069211D01*
X0183817Y0070089D02*
X0187391Y0070089D01*
X0187391Y0073664D01*
X0187298Y0073664D01*
X0186552Y0073516D01*
X0185849Y0073225D01*
X0185217Y0072802D01*
X0184679Y0072264D01*
X0184256Y0071631D01*
X0183965Y0070929D01*
X0183817Y0070182D01*
X0183817Y0070089D01*
X0183822Y0070209D02*
X0163929Y0070209D01*
X0163929Y0071208D02*
X0184081Y0071208D01*
X0184640Y0072206D02*
X0177578Y0072206D01*
X0177578Y0073205D02*
X0177858Y0073205D01*
X0179999Y0073205D02*
X0185820Y0073205D01*
X0185718Y0074741D02*
X0186990Y0074214D01*
X0188368Y0074214D01*
X0189640Y0074741D01*
X0190614Y0075715D01*
X0191141Y0076987D01*
X0191141Y0078365D01*
X0190614Y0079637D01*
X0189640Y0080611D01*
X0188368Y0081138D01*
X0186990Y0081138D01*
X0185718Y0080611D01*
X0184744Y0079637D01*
X0184217Y0078365D01*
X0184217Y0076987D01*
X0184744Y0075715D01*
X0185718Y0074741D01*
X0185257Y0075202D02*
X0181505Y0075202D01*
X0181448Y0076200D02*
X0184543Y0076200D01*
X0184217Y0077199D02*
X0180924Y0077199D01*
X0178929Y0075550D02*
X0173919Y0075550D01*
X0177578Y0078197D02*
X0184217Y0078197D01*
X0184561Y0079196D02*
X0177341Y0079196D01*
X0177578Y0080194D02*
X0185301Y0080194D01*
X0186740Y0082191D02*
X0182612Y0082191D01*
X0182755Y0083190D02*
X0185143Y0083190D01*
X0184495Y0084188D02*
X0182496Y0084188D01*
X0180179Y0083050D02*
X0175159Y0083050D01*
X0174510Y0082400D01*
X0173289Y0082400D01*
X0166439Y0075550D01*
X0161429Y0080560D01*
X0161429Y0084300D01*
X0160179Y0088050D02*
X0160179Y0089290D01*
X0166439Y0095550D01*
X0166439Y0089290D01*
X0165848Y0088700D01*
X0168917Y0089181D02*
X0171441Y0089181D01*
X0171441Y0090179D02*
X0168917Y0090179D01*
X0168725Y0091178D02*
X0171633Y0091178D01*
X0170260Y0092176D02*
X0170098Y0092176D01*
X0170098Y0093175D02*
X0170260Y0093175D01*
X0170260Y0094173D02*
X0170098Y0094173D01*
X0170098Y0095172D02*
X0170260Y0095172D01*
X0170260Y0096170D02*
X0170098Y0096170D01*
X0170098Y0097169D02*
X0170260Y0097169D01*
X0170260Y0098168D02*
X0170098Y0098168D01*
X0169890Y0099166D02*
X0170468Y0099166D01*
X0173919Y0095550D02*
X0174510Y0094959D01*
X0174510Y0088700D01*
X0180779Y0088700D01*
X0182679Y0086800D01*
X0183663Y0089181D02*
X0198130Y0089181D01*
X0198130Y0090179D02*
X0188893Y0090179D01*
X0188368Y0089962D02*
X0189640Y0090489D01*
X0190614Y0091463D01*
X0191141Y0092735D01*
X0191141Y0094113D01*
X0190614Y0095385D01*
X0189640Y0096359D01*
X0188368Y0096886D01*
X0186990Y0096886D01*
X0185718Y0096359D01*
X0184979Y0095620D01*
X0185255Y0096288D01*
X0185255Y0097312D01*
X0184863Y0098259D01*
X0184138Y0098984D01*
X0183191Y0099376D01*
X0182166Y0099376D01*
X0181219Y0098984D01*
X0180495Y0098259D01*
X0180102Y0097312D01*
X0180102Y0096288D01*
X0180495Y0095341D01*
X0181219Y0094616D01*
X0182166Y0094224D01*
X0183191Y0094224D01*
X0184138Y0094616D01*
X0184628Y0095105D01*
X0184217Y0094113D01*
X0184217Y0092735D01*
X0184744Y0091463D01*
X0185718Y0090489D01*
X0186990Y0089962D01*
X0188368Y0089962D01*
X0186465Y0090179D02*
X0181562Y0090179D01*
X0184448Y0092176D02*
X0177578Y0092176D01*
X0177578Y0093175D02*
X0184217Y0093175D01*
X0184242Y0094173D02*
X0177578Y0094173D01*
X0177578Y0095172D02*
X0180663Y0095172D01*
X0180151Y0096170D02*
X0177578Y0096170D01*
X0177578Y0097169D02*
X0180102Y0097169D01*
X0180457Y0098168D02*
X0177578Y0098168D01*
X0177370Y0099166D02*
X0181659Y0099166D01*
X0183699Y0099166D02*
X0184915Y0099166D01*
X0184901Y0098168D02*
X0186189Y0098168D01*
X0185255Y0097169D02*
X0198130Y0097169D01*
X0198130Y0098168D02*
X0189168Y0098168D01*
X0190443Y0099166D02*
X0198130Y0099166D01*
X0198130Y0100165D02*
X0190957Y0100165D01*
X0191141Y0101163D02*
X0198130Y0101163D01*
X0198130Y0102162D02*
X0191069Y0102162D01*
X0190655Y0103160D02*
X0198130Y0103160D01*
X0198130Y0104159D02*
X0189715Y0104159D01*
X0189444Y0106156D02*
X0198130Y0106156D01*
X0198130Y0107154D02*
X0190557Y0107154D01*
X0191004Y0108153D02*
X0198130Y0108153D01*
X0198130Y0109151D02*
X0191141Y0109151D01*
X0191021Y0110150D02*
X0198130Y0110150D01*
X0198130Y0111148D02*
X0190599Y0111148D01*
X0189545Y0112147D02*
X0198130Y0112147D01*
X0198130Y0113145D02*
X0165037Y0113145D01*
X0166035Y0114144D02*
X0198130Y0114144D01*
X0198130Y0115142D02*
X0167034Y0115142D01*
X0168032Y0116141D02*
X0198130Y0116141D01*
X0198130Y0117139D02*
X0169031Y0117139D01*
X0170029Y0118138D02*
X0198130Y0118138D01*
X0198130Y0119136D02*
X0171028Y0119136D01*
X0172026Y0120135D02*
X0198130Y0120135D01*
X0198130Y0121133D02*
X0173025Y0121133D01*
X0174023Y0122132D02*
X0198130Y0122132D01*
X0198130Y0123130D02*
X0175022Y0123130D01*
X0176020Y0124129D02*
X0198130Y0124129D01*
X0198130Y0125127D02*
X0176779Y0125127D01*
X0176779Y0126126D02*
X0186604Y0126126D01*
X0186990Y0125966D02*
X0188368Y0125966D01*
X0189640Y0126493D01*
X0190614Y0127467D01*
X0191141Y0128739D01*
X0191141Y0130117D01*
X0190614Y0131389D01*
X0189640Y0132363D01*
X0188368Y0132890D01*
X0186990Y0132890D01*
X0185718Y0132363D01*
X0184744Y0131389D01*
X0184217Y0130117D01*
X0184217Y0128739D01*
X0184744Y0127467D01*
X0185718Y0126493D01*
X0186990Y0125966D01*
X0188754Y0126126D02*
X0198130Y0126126D01*
X0198130Y0127124D02*
X0190272Y0127124D01*
X0190886Y0128123D02*
X0198130Y0128123D01*
X0198130Y0129121D02*
X0191141Y0129121D01*
X0191140Y0130120D02*
X0198130Y0130120D01*
X0198130Y0131118D02*
X0190726Y0131118D01*
X0189886Y0132117D02*
X0198130Y0132117D01*
X0198130Y0133115D02*
X0177423Y0133115D01*
X0177755Y0132117D02*
X0185471Y0132117D01*
X0184632Y0131118D02*
X0177685Y0131118D01*
X0177142Y0130120D02*
X0184218Y0130120D01*
X0184217Y0129121D02*
X0176779Y0129121D01*
X0176779Y0128123D02*
X0184472Y0128123D01*
X0185086Y0127124D02*
X0176779Y0127124D01*
X0175179Y0125550D02*
X0175179Y0131800D01*
X0176325Y0134114D02*
X0186328Y0134114D01*
X0184972Y0135112D02*
X0175754Y0135112D01*
X0175681Y0137302D02*
X0171429Y0133050D01*
X0171429Y0125550D01*
X0153929Y0108050D01*
X0153929Y0104300D01*
X0150179Y0105550D02*
X0150179Y0108050D01*
X0168929Y0126800D01*
X0168929Y0134300D01*
X0179805Y0145176D01*
X0187679Y0145176D01*
X0191141Y0145098D02*
X0198130Y0145098D01*
X0198130Y0146096D02*
X0191045Y0146096D01*
X0190632Y0147095D02*
X0198130Y0147095D01*
X0198130Y0148093D02*
X0189658Y0148093D01*
X0189580Y0150090D02*
X0198130Y0150090D01*
X0198130Y0149092D02*
X0182233Y0149092D01*
X0183232Y0150090D02*
X0185777Y0150090D01*
X0184744Y0151089D02*
X0184230Y0151089D01*
X0183929Y0153050D02*
X0166429Y0135550D01*
X0166429Y0128050D01*
X0158929Y0120550D01*
X0152679Y0120550D01*
X0148929Y0120550D02*
X0148929Y0121800D01*
X0151429Y0124300D01*
X0158929Y0124300D01*
X0163929Y0129300D01*
X0163929Y0136800D01*
X0187679Y0160550D01*
X0187679Y0160924D01*
X0189133Y0164069D02*
X0198130Y0164069D01*
X0198130Y0163071D02*
X0190428Y0163071D01*
X0190951Y0162072D02*
X0198130Y0162072D01*
X0198130Y0161074D02*
X0191141Y0161074D01*
X0191075Y0160075D02*
X0198130Y0160075D01*
X0198130Y0159077D02*
X0190661Y0159077D01*
X0189729Y0158078D02*
X0198130Y0158078D01*
X0198130Y0157080D02*
X0186471Y0157080D01*
X0185950Y0156081D02*
X0185473Y0156081D01*
X0184815Y0155083D02*
X0184474Y0155083D01*
X0183929Y0153050D02*
X0187679Y0153050D01*
X0191141Y0153086D02*
X0198130Y0153086D01*
X0198130Y0154084D02*
X0190998Y0154084D01*
X0190542Y0155083D02*
X0198130Y0155083D01*
X0198130Y0156081D02*
X0189408Y0156081D01*
X0191027Y0152087D02*
X0198130Y0152087D01*
X0198130Y0151089D02*
X0190614Y0151089D01*
X0185700Y0148093D02*
X0181235Y0148093D01*
X0180236Y0147095D02*
X0184726Y0147095D01*
X0184858Y0143101D02*
X0179992Y0143101D01*
X0178994Y0142102D02*
X0186053Y0142102D01*
X0185586Y0140105D02*
X0176997Y0140105D01*
X0177995Y0141103D02*
X0198130Y0141103D01*
X0198130Y0140105D02*
X0189772Y0140105D01*
X0190679Y0139106D02*
X0198130Y0139106D01*
X0198130Y0138108D02*
X0191092Y0138108D01*
X0191141Y0137109D02*
X0198130Y0137109D01*
X0198130Y0136111D02*
X0190933Y0136111D01*
X0190386Y0135112D02*
X0198130Y0135112D01*
X0198130Y0134114D02*
X0189029Y0134114D01*
X0187679Y0137302D02*
X0175681Y0137302D01*
X0175998Y0139106D02*
X0184679Y0139106D01*
X0189305Y0142102D02*
X0198130Y0142102D01*
X0198130Y0143101D02*
X0190500Y0143101D01*
X0190980Y0144099D02*
X0198130Y0144099D01*
X0183943Y0159077D02*
X0179279Y0159077D01*
X0179279Y0160075D02*
X0184283Y0160075D01*
X0184217Y0161074D02*
X0179279Y0161074D01*
X0179279Y0162072D02*
X0184407Y0162072D01*
X0184929Y0163071D02*
X0179279Y0163071D01*
X0179279Y0164069D02*
X0186225Y0164069D01*
X0186552Y0165084D02*
X0187298Y0164936D01*
X0187391Y0164936D01*
X0187391Y0168511D01*
X0183817Y0168511D01*
X0183817Y0168418D01*
X0183965Y0167671D01*
X0184256Y0166969D01*
X0184679Y0166336D01*
X0185217Y0165798D01*
X0185849Y0165375D01*
X0186552Y0165084D01*
X0186635Y0165068D02*
X0179279Y0165068D01*
X0179279Y0166066D02*
X0184949Y0166066D01*
X0184216Y0167065D02*
X0179279Y0167065D01*
X0179279Y0168063D02*
X0183887Y0168063D01*
X0183817Y0169085D02*
X0187391Y0169085D01*
X0187391Y0168511D01*
X0187966Y0168511D01*
X0187966Y0169085D01*
X0191541Y0169085D01*
X0191541Y0169178D01*
X0191393Y0169925D01*
X0191101Y0170627D01*
X0190679Y0171260D01*
X0190141Y0171798D01*
X0189508Y0172221D01*
X0188805Y0172512D01*
X0188059Y0172660D01*
X0187966Y0172660D01*
X0187966Y0169086D01*
X0187391Y0169086D01*
X0187391Y0172660D01*
X0187298Y0172660D01*
X0186552Y0172512D01*
X0185849Y0172221D01*
X0185217Y0171798D01*
X0184679Y0171260D01*
X0184256Y0170627D01*
X0183965Y0169925D01*
X0183817Y0169178D01*
X0183817Y0169085D01*
X0184021Y0170060D02*
X0179279Y0170060D01*
X0179279Y0169062D02*
X0187391Y0169062D01*
X0187966Y0169062D02*
X0198130Y0169062D01*
X0198130Y0170060D02*
X0191336Y0170060D01*
X0190813Y0171059D02*
X0198130Y0171059D01*
X0198130Y0172057D02*
X0189753Y0172057D01*
X0189640Y0173737D02*
X0188368Y0173210D01*
X0186990Y0173210D01*
X0185718Y0173737D01*
X0184744Y0174711D01*
X0184217Y0175983D01*
X0184217Y0177361D01*
X0184744Y0178633D01*
X0185718Y0179607D01*
X0186990Y0180134D01*
X0188368Y0180134D01*
X0189640Y0179607D01*
X0190614Y0178633D01*
X0191141Y0177361D01*
X0191141Y0175983D01*
X0190614Y0174711D01*
X0189640Y0173737D01*
X0189957Y0174054D02*
X0198130Y0174054D01*
X0198130Y0173056D02*
X0180255Y0173056D01*
X0180056Y0172057D02*
X0185605Y0172057D01*
X0184544Y0171059D02*
X0179331Y0171059D01*
X0177679Y0173050D02*
X0177679Y0155550D01*
X0166429Y0144300D01*
X0167679Y0144300D01*
X0169489Y0145098D02*
X0169964Y0145098D01*
X0170488Y0146096D02*
X0170962Y0146096D01*
X0171486Y0147095D02*
X0171961Y0147095D01*
X0172485Y0148093D02*
X0172959Y0148093D01*
X0173483Y0149092D02*
X0173958Y0149092D01*
X0174482Y0150090D02*
X0174956Y0150090D01*
X0175480Y0151089D02*
X0175955Y0151089D01*
X0176479Y0152087D02*
X0176953Y0152087D01*
X0177477Y0153086D02*
X0177952Y0153086D01*
X0178476Y0154084D02*
X0178950Y0154084D01*
X0179279Y0155083D02*
X0179949Y0155083D01*
X0179279Y0156081D02*
X0180947Y0156081D01*
X0181946Y0157080D02*
X0179279Y0157080D01*
X0179279Y0158078D02*
X0182944Y0158078D01*
X0187391Y0165068D02*
X0187966Y0165068D01*
X0187966Y0164936D02*
X0188059Y0164936D01*
X0188805Y0165084D01*
X0189508Y0165375D01*
X0190141Y0165798D01*
X0190679Y0166336D01*
X0191101Y0166969D01*
X0191393Y0167671D01*
X0191541Y0168418D01*
X0191541Y0168511D01*
X0187966Y0168511D01*
X0187966Y0164936D01*
X0188723Y0165068D02*
X0198130Y0165068D01*
X0198130Y0166066D02*
X0190409Y0166066D01*
X0191141Y0167065D02*
X0198130Y0167065D01*
X0198130Y0168063D02*
X0191471Y0168063D01*
X0187966Y0168063D02*
X0187391Y0168063D01*
X0187391Y0167065D02*
X0187966Y0167065D01*
X0187966Y0166066D02*
X0187391Y0166066D01*
X0187391Y0170060D02*
X0187966Y0170060D01*
X0187966Y0171059D02*
X0187391Y0171059D01*
X0187391Y0172057D02*
X0187966Y0172057D01*
X0185400Y0174054D02*
X0180051Y0174054D01*
X0179320Y0175053D02*
X0184602Y0175053D01*
X0184217Y0176051D02*
X0157079Y0176051D01*
X0157079Y0175053D02*
X0172288Y0175053D01*
X0171556Y0174054D02*
X0157079Y0174054D01*
X0157079Y0173056D02*
X0171352Y0173056D01*
X0171551Y0172057D02*
X0157079Y0172057D01*
X0157079Y0171059D02*
X0172276Y0171059D01*
X0172329Y0170060D02*
X0157079Y0170060D01*
X0156378Y0169062D02*
X0172329Y0169062D01*
X0172329Y0168063D02*
X0155379Y0168063D01*
X0154381Y0167065D02*
X0172329Y0167065D01*
X0172329Y0166066D02*
X0153382Y0166066D01*
X0152679Y0165068D02*
X0172329Y0165068D01*
X0172329Y0164069D02*
X0152679Y0164069D01*
X0152679Y0163071D02*
X0172329Y0163071D01*
X0172329Y0162072D02*
X0152679Y0162072D01*
X0154549Y0161074D02*
X0172329Y0161074D01*
X0172329Y0160075D02*
X0155146Y0160075D01*
X0155255Y0159077D02*
X0172329Y0159077D01*
X0172329Y0158078D02*
X0154961Y0158078D01*
X0154051Y0157080D02*
X0171946Y0157080D01*
X0170947Y0156081D02*
X0152679Y0156081D01*
X0152211Y0155083D02*
X0169949Y0155083D01*
X0168950Y0154084D02*
X0151788Y0154084D01*
X0152132Y0153086D02*
X0167952Y0153086D01*
X0166953Y0152087D02*
X0152132Y0152087D01*
X0152132Y0151089D02*
X0164574Y0151089D01*
X0163967Y0150090D02*
X0148179Y0150090D01*
X0148179Y0150060D02*
X0152132Y0150060D01*
X0152132Y0147803D01*
X0152029Y0147422D01*
X0151832Y0147080D01*
X0151553Y0146800D01*
X0151283Y0146645D01*
X0151439Y0146375D01*
X0151541Y0145994D01*
X0151541Y0143934D01*
X0148179Y0143934D01*
X0148179Y0142934D01*
X0151541Y0142934D01*
X0151541Y0140874D01*
X0151439Y0140493D01*
X0151241Y0140151D01*
X0150962Y0139871D01*
X0150620Y0139674D01*
X0150239Y0139572D01*
X0148179Y0139572D01*
X0148179Y0142934D01*
X0147179Y0142934D01*
X0147179Y0139572D01*
X0145119Y0139572D01*
X0144738Y0139674D01*
X0144396Y0139871D01*
X0144116Y0140151D01*
X0143919Y0140493D01*
X0143817Y0140874D01*
X0143817Y0142934D01*
X0147179Y0142934D01*
X0147179Y0143934D01*
X0148179Y0143934D01*
X0148179Y0150060D01*
X0148179Y0149092D02*
X0147179Y0149092D01*
X0147179Y0150090D02*
X0141728Y0150090D01*
X0141728Y0149800D02*
X0141728Y0152450D01*
X0141626Y0152832D01*
X0141428Y0153174D01*
X0141149Y0153453D01*
X0140807Y0153651D01*
X0140426Y0153753D01*
X0138169Y0153753D01*
X0138169Y0149800D01*
X0141728Y0149800D01*
X0141728Y0148800D02*
X0138169Y0148800D01*
X0138169Y0144847D01*
X0140426Y0144847D01*
X0140807Y0144949D01*
X0141149Y0145147D01*
X0141428Y0145426D01*
X0141626Y0145768D01*
X0141728Y0146150D01*
X0141728Y0148800D01*
X0141728Y0148093D02*
X0143226Y0148093D01*
X0143226Y0149092D02*
X0138169Y0149092D01*
X0137679Y0149290D02*
X0137669Y0149300D01*
X0137679Y0149290D02*
X0137679Y0144300D01*
X0125179Y0144300D01*
X0123929Y0145550D01*
X0123929Y0151800D01*
X0123929Y0150550D01*
X0130189Y0149300D02*
X0130189Y0158198D01*
X0133929Y0158078D02*
X0134988Y0158078D01*
X0134988Y0158288D02*
X0137578Y0158288D01*
X0137578Y0162552D01*
X0136290Y0162552D01*
X0135909Y0162450D01*
X0135567Y0162252D01*
X0135288Y0161973D01*
X0135090Y0161631D01*
X0134988Y0161249D01*
X0134988Y0158288D01*
X0134988Y0159077D02*
X0133929Y0159077D01*
X0133929Y0160075D02*
X0134988Y0160075D01*
X0134988Y0161074D02*
X0133929Y0161074D01*
X0133929Y0162072D02*
X0135387Y0162072D01*
X0133929Y0163071D02*
X0141429Y0163071D01*
X0141429Y0162072D02*
X0139951Y0162072D01*
X0140350Y0161074D02*
X0141429Y0161074D01*
X0137760Y0161074D02*
X0137578Y0161074D01*
X0137578Y0162072D02*
X0137760Y0162072D01*
X0137760Y0160075D02*
X0137578Y0160075D01*
X0137578Y0159077D02*
X0137760Y0159077D01*
X0137760Y0158078D02*
X0137578Y0158078D01*
X0137578Y0157080D02*
X0137760Y0157080D01*
X0137760Y0156081D02*
X0137578Y0156081D01*
X0137578Y0155083D02*
X0137760Y0155083D01*
X0137760Y0154084D02*
X0137578Y0154084D01*
X0137169Y0153086D02*
X0138169Y0153086D01*
X0138169Y0152087D02*
X0137169Y0152087D01*
X0137169Y0151089D02*
X0138169Y0151089D01*
X0138169Y0150090D02*
X0137169Y0150090D01*
X0137169Y0148093D02*
X0138169Y0148093D01*
X0138169Y0147095D02*
X0137169Y0147095D01*
X0137169Y0146096D02*
X0138169Y0146096D01*
X0138169Y0145098D02*
X0137169Y0145098D01*
X0134274Y0145098D02*
X0133929Y0145098D01*
X0137866Y0139300D02*
X0142000Y0135166D01*
X0147679Y0135166D01*
X0147179Y0140105D02*
X0148179Y0140105D01*
X0148179Y0141103D02*
X0147179Y0141103D01*
X0147179Y0142102D02*
X0148179Y0142102D01*
X0148179Y0143101D02*
X0164137Y0143101D01*
X0163852Y0144099D02*
X0151541Y0144099D01*
X0151541Y0145098D02*
X0163971Y0145098D01*
X0164581Y0146096D02*
X0151514Y0146096D01*
X0151840Y0147095D02*
X0165021Y0147095D01*
X0164140Y0148093D02*
X0152132Y0148093D01*
X0152132Y0149092D02*
X0163852Y0149092D01*
X0166429Y0149300D02*
X0173929Y0156800D01*
X0173929Y0173050D01*
X0175570Y0175053D02*
X0176038Y0175053D01*
X0181355Y0184039D02*
X0198130Y0184039D01*
X0198130Y0183041D02*
X0162857Y0183041D01*
X0160179Y0188050D02*
X0160179Y0190550D01*
X0156429Y0194300D01*
X0153929Y0194300D01*
X0152679Y0193050D01*
X0110179Y0193050D01*
X0106429Y0196800D01*
X0076429Y0196800D01*
X0075179Y0198050D01*
X0075179Y0208050D01*
X0080179Y0213050D01*
X0090179Y0230550D02*
X0098929Y0230550D01*
X0101429Y0233050D01*
X0101429Y0236800D01*
X0103929Y0239300D01*
X0112492Y0239300D01*
X0117492Y0244300D01*
X0110179Y0230550D02*
X0151429Y0230550D01*
X0156242Y0235363D01*
X0158929Y0235363D01*
X0153929Y0228050D02*
X0143929Y0228050D01*
X0141616Y0225737D01*
X0141616Y0224300D01*
X0141616Y0224487D01*
X0139116Y0243237D02*
X0135366Y0243237D01*
X0135179Y0243050D01*
X0147679Y0243237D02*
X0147679Y0245550D01*
X0163929Y0244300D02*
X0163929Y0224300D01*
X0165179Y0223050D01*
X0165179Y0204300D01*
X0157679Y0196800D01*
X0155179Y0190550D02*
X0108929Y0190550D01*
X0105179Y0194300D01*
X0075179Y0194300D01*
X0072679Y0196800D01*
X0047679Y0196800D01*
X0045179Y0199300D01*
X0045179Y0208050D01*
X0047679Y0210550D01*
X0053929Y0210550D01*
X0056429Y0213050D01*
X0056429Y0215550D01*
X0067679Y0230550D02*
X0067679Y0231613D01*
X0072679Y0236613D01*
X0078929Y0240550D02*
X0082679Y0244300D01*
X0084992Y0244300D01*
X0084992Y0236800D02*
X0082679Y0236800D01*
X0092866Y0236800D02*
X0096458Y0236800D01*
X0098319Y0234940D01*
X0098929Y0244300D02*
X0101242Y0244300D01*
X0099429Y0280550D02*
X0099429Y0297600D01*
X0098429Y0297600D01*
X0098429Y0280550D01*
X0099429Y0280550D01*
X0099429Y0280895D02*
X0098429Y0280895D01*
X0098429Y0281894D02*
X0099429Y0281894D01*
X0099429Y0282892D02*
X0098429Y0282892D01*
X0098429Y0283891D02*
X0099429Y0283891D01*
X0099429Y0284889D02*
X0098429Y0284889D01*
X0098429Y0285888D02*
X0099429Y0285888D01*
X0099429Y0286886D02*
X0098429Y0286886D01*
X0098429Y0287885D02*
X0099429Y0287885D01*
X0099429Y0288883D02*
X0098429Y0288883D01*
X0098429Y0289882D02*
X0099429Y0289882D01*
X0099429Y0290880D02*
X0098429Y0290880D01*
X0098429Y0291879D02*
X0099429Y0291879D01*
X0099429Y0292877D02*
X0098429Y0292877D01*
X0098429Y0293876D02*
X0099429Y0293876D01*
X0099429Y0294874D02*
X0098429Y0294874D01*
X0098429Y0295873D02*
X0099429Y0295873D01*
X0099429Y0296871D02*
X0098429Y0296871D01*
X0098429Y0297600D02*
X0078929Y0297600D01*
X0078929Y0298600D01*
X0098429Y0298600D01*
X0098429Y0297600D01*
X0098429Y0297870D02*
X0078929Y0297870D01*
X0049679Y0297870D02*
X0030179Y0297870D01*
X0030179Y0297600D02*
X0030179Y0298600D01*
X0049679Y0298600D01*
X0049679Y0297600D01*
X0030179Y0297600D01*
X0062866Y0244300D02*
X0064116Y0243050D01*
X0066429Y0243050D01*
X0067679Y0230550D02*
X0067866Y0230550D01*
X0112679Y0185550D02*
X0107679Y0180550D01*
X0112679Y0185550D02*
X0148929Y0185550D01*
X0151429Y0183050D01*
X0151429Y0181800D01*
X0157079Y0182042D02*
X0198130Y0182042D01*
X0198130Y0181044D02*
X0157079Y0181044D01*
X0157079Y0180045D02*
X0186776Y0180045D01*
X0188582Y0180045D02*
X0198130Y0180045D01*
X0198130Y0179047D02*
X0190200Y0179047D01*
X0190856Y0178048D02*
X0198130Y0178048D01*
X0198130Y0177050D02*
X0191141Y0177050D01*
X0191141Y0176051D02*
X0198130Y0176051D01*
X0198130Y0175053D02*
X0190756Y0175053D01*
X0184217Y0177050D02*
X0157079Y0177050D01*
X0157079Y0178048D02*
X0184502Y0178048D01*
X0185157Y0179047D02*
X0157079Y0179047D01*
X0160179Y0188050D02*
X0160179Y0189300D01*
X0160189Y0209310D02*
X0157679Y0209310D01*
X0157689Y0209300D01*
X0160189Y0209310D02*
X0162679Y0211800D01*
X0162679Y0221800D01*
X0160179Y0224300D01*
X0155179Y0224300D01*
X0166429Y0225550D02*
X0178929Y0213050D01*
X0178929Y0189300D01*
X0182354Y0185038D02*
X0198130Y0185038D01*
X0198130Y0186037D02*
X0183352Y0186037D01*
X0185193Y0187035D02*
X0198130Y0187035D01*
X0198130Y0188034D02*
X0186193Y0188034D01*
X0187679Y0188050D02*
X0190179Y0185550D01*
X0187679Y0188050D02*
X0187679Y0190550D01*
X0181429Y0196800D01*
X0181429Y0214300D01*
X0168929Y0226800D01*
X0168929Y0240550D01*
X0182679Y0254300D01*
X0175179Y0255550D02*
X0163929Y0244300D01*
X0166429Y0243050D02*
X0166429Y0225550D01*
X0166429Y0243050D02*
X0173929Y0250550D01*
X0148179Y0280550D02*
X0148179Y0297600D01*
X0147179Y0297600D01*
X0147179Y0280550D01*
X0148179Y0280550D01*
X0148179Y0280895D02*
X0147179Y0280895D01*
X0147179Y0281894D02*
X0148179Y0281894D01*
X0148179Y0282892D02*
X0147179Y0282892D01*
X0147179Y0283891D02*
X0148179Y0283891D01*
X0148179Y0284889D02*
X0147179Y0284889D01*
X0147179Y0285888D02*
X0148179Y0285888D01*
X0148179Y0286886D02*
X0147179Y0286886D01*
X0147179Y0287885D02*
X0148179Y0287885D01*
X0148179Y0288883D02*
X0147179Y0288883D01*
X0147179Y0289882D02*
X0148179Y0289882D01*
X0148179Y0290880D02*
X0147179Y0290880D01*
X0147179Y0291879D02*
X0148179Y0291879D01*
X0148179Y0292877D02*
X0147179Y0292877D01*
X0147179Y0293876D02*
X0148179Y0293876D01*
X0148179Y0294874D02*
X0147179Y0294874D01*
X0147179Y0295873D02*
X0148179Y0295873D01*
X0148179Y0296871D02*
X0147179Y0296871D01*
X0147179Y0297600D02*
X0127679Y0297600D01*
X0127679Y0298600D01*
X0147179Y0298600D01*
X0147179Y0297600D01*
X0147179Y0297870D02*
X0127679Y0297870D01*
X0137669Y0170402D02*
X0137679Y0170393D01*
X0134988Y0157080D02*
X0133929Y0157080D01*
X0133929Y0156081D02*
X0134988Y0156081D01*
X0135005Y0155083D02*
X0133929Y0155083D01*
X0133929Y0154084D02*
X0135669Y0154084D01*
X0139669Y0154084D02*
X0143570Y0154084D01*
X0143226Y0153086D02*
X0141479Y0153086D01*
X0141728Y0152087D02*
X0143226Y0152087D01*
X0143226Y0151089D02*
X0141728Y0151089D01*
X0141728Y0147095D02*
X0143517Y0147095D01*
X0143844Y0146096D02*
X0141714Y0146096D01*
X0141063Y0145098D02*
X0143817Y0145098D01*
X0143817Y0144099D02*
X0142679Y0144099D01*
X0142679Y0143101D02*
X0147179Y0143101D01*
X0147179Y0144099D02*
X0148179Y0144099D01*
X0148179Y0145098D02*
X0147179Y0145098D01*
X0147179Y0146096D02*
X0148179Y0146096D01*
X0148179Y0147095D02*
X0147179Y0147095D01*
X0147179Y0148093D02*
X0148179Y0148093D01*
X0143817Y0142102D02*
X0142679Y0142102D01*
X0142679Y0141103D02*
X0143817Y0141103D01*
X0144162Y0140105D02*
X0142679Y0140105D01*
X0151196Y0140105D02*
X0164971Y0140105D01*
X0163973Y0139106D02*
X0163929Y0139106D01*
X0165970Y0141103D02*
X0151541Y0141103D01*
X0151541Y0142102D02*
X0165003Y0142102D01*
X0175179Y0125550D02*
X0157679Y0108050D01*
X0157679Y0106800D01*
X0161429Y0105550D02*
X0156429Y0100550D01*
X0147679Y0100550D01*
X0128929Y0119300D01*
X0120179Y0119300D01*
X0113929Y0125550D01*
X0102679Y0125550D01*
X0100179Y0128050D01*
X0093929Y0128050D01*
X0081429Y0115550D01*
X0081429Y0098050D01*
X0083193Y0096170D02*
X0083415Y0096170D01*
X0085179Y0098050D02*
X0085179Y0115550D01*
X0093304Y0123675D01*
X0091429Y0121800D01*
X0093304Y0123675D02*
X0095179Y0125550D01*
X0100179Y0125550D01*
X0102679Y0123050D01*
X0112679Y0123050D01*
X0118929Y0116800D01*
X0128929Y0116800D01*
X0150179Y0095550D01*
X0155179Y0095550D01*
X0158929Y0093050D02*
X0157679Y0091800D01*
X0137679Y0091800D01*
X0138929Y0089300D02*
X0136429Y0086800D01*
X0138929Y0089300D02*
X0157679Y0089300D01*
X0161429Y0093050D01*
X0161429Y0100550D01*
X0162177Y0101298D01*
X0187679Y0101298D01*
X0184703Y0103160D02*
X0163929Y0103160D01*
X0164800Y0104159D02*
X0185643Y0104159D01*
X0185914Y0106156D02*
X0166797Y0106156D01*
X0167796Y0107154D02*
X0184800Y0107154D01*
X0187679Y0109172D02*
X0167551Y0109172D01*
X0158929Y0100550D01*
X0158929Y0093050D01*
X0165848Y0082400D02*
X0168210Y0082400D01*
X0174510Y0088700D01*
X0171441Y0088182D02*
X0168917Y0088182D01*
X0168917Y0087184D02*
X0170731Y0087184D01*
X0169733Y0086185D02*
X0168689Y0086185D01*
X0168734Y0085187D02*
X0168416Y0085187D01*
X0173919Y0081810D02*
X0174510Y0082400D01*
X0177578Y0081193D02*
X0178392Y0081193D01*
X0181965Y0081193D02*
X0198130Y0081193D01*
X0198130Y0082191D02*
X0188617Y0082191D01*
X0190215Y0083190D02*
X0198130Y0083190D01*
X0198130Y0084188D02*
X0190862Y0084188D01*
X0191141Y0085187D02*
X0198130Y0085187D01*
X0198130Y0086185D02*
X0191141Y0086185D01*
X0190750Y0087184D02*
X0198130Y0087184D01*
X0198130Y0088182D02*
X0189943Y0088182D01*
X0190329Y0091178D02*
X0198130Y0091178D01*
X0198130Y0092176D02*
X0190910Y0092176D01*
X0191141Y0093175D02*
X0198130Y0093175D01*
X0198130Y0094173D02*
X0191116Y0094173D01*
X0190702Y0095172D02*
X0198130Y0095172D01*
X0198130Y0096170D02*
X0189829Y0096170D01*
X0185529Y0096170D02*
X0185207Y0096170D01*
X0185029Y0091178D02*
X0177386Y0091178D01*
X0184895Y0088182D02*
X0185415Y0088182D01*
X0190057Y0080194D02*
X0198130Y0080194D01*
X0198130Y0079196D02*
X0190797Y0079196D01*
X0191141Y0078197D02*
X0198130Y0078197D01*
X0198130Y0077199D02*
X0191141Y0077199D01*
X0190815Y0076200D02*
X0198130Y0076200D01*
X0198130Y0075202D02*
X0190101Y0075202D01*
X0189538Y0073205D02*
X0198130Y0073205D01*
X0198130Y0074203D02*
X0181160Y0074203D01*
X0187391Y0073205D02*
X0187966Y0073205D01*
X0187966Y0072206D02*
X0187391Y0072206D01*
X0187391Y0071208D02*
X0187966Y0071208D01*
X0187966Y0070209D02*
X0187391Y0070209D01*
X0187391Y0069211D02*
X0187966Y0069211D01*
X0187966Y0068212D02*
X0187391Y0068212D01*
X0187391Y0067214D02*
X0187966Y0067214D01*
X0187966Y0066215D02*
X0187391Y0066215D01*
X0188786Y0065217D02*
X0198130Y0065217D01*
X0198130Y0066215D02*
X0189112Y0066215D01*
X0190553Y0067214D02*
X0198130Y0067214D01*
X0198130Y0068212D02*
X0191201Y0068212D01*
X0191499Y0069211D02*
X0198130Y0069211D01*
X0198130Y0070209D02*
X0191536Y0070209D01*
X0191277Y0071208D02*
X0198130Y0071208D01*
X0198130Y0072206D02*
X0190717Y0072206D01*
X0190285Y0064218D02*
X0198130Y0064218D01*
X0198130Y0063220D02*
X0190891Y0063220D01*
X0191141Y0062221D02*
X0198130Y0062221D01*
X0198130Y0061223D02*
X0191134Y0061223D01*
X0190721Y0060224D02*
X0198130Y0060224D01*
X0198130Y0059226D02*
X0189873Y0059226D01*
X0184217Y0041252D02*
X0182390Y0041252D01*
X0182785Y0040254D02*
X0183823Y0040254D01*
X0183823Y0036260D02*
X0182785Y0036260D01*
X0182430Y0035261D02*
X0184178Y0035261D01*
X0184103Y0033264D02*
X0182504Y0033264D01*
X0182785Y0032266D02*
X0183823Y0032266D01*
X0183823Y0031267D02*
X0182785Y0031267D01*
X0182785Y0030269D02*
X0183823Y0030269D01*
X0183823Y0029270D02*
X0182785Y0029270D01*
X0182785Y0028272D02*
X0183823Y0028272D01*
X0184292Y0027273D02*
X0182316Y0027273D01*
X0180529Y0026275D02*
X0186079Y0026275D01*
X0186079Y0025276D02*
X0180529Y0025276D01*
X0180845Y0024278D02*
X0183882Y0024278D01*
X0183166Y0023279D02*
X0181562Y0023279D01*
X0181889Y0022281D02*
X0182839Y0022281D01*
X0182839Y0021282D02*
X0181889Y0021282D01*
X0181546Y0020284D02*
X0183182Y0020284D01*
X0183919Y0019285D02*
X0180808Y0019285D01*
X0178427Y0021800D02*
X0178929Y0022302D01*
X0178929Y0030363D01*
X0177329Y0025276D02*
X0171779Y0025276D01*
X0172971Y0024278D02*
X0176008Y0024278D01*
X0175292Y0023279D02*
X0173688Y0023279D01*
X0174015Y0022281D02*
X0174965Y0022281D01*
X0174965Y0021282D02*
X0174015Y0021282D01*
X0173672Y0020284D02*
X0175308Y0020284D01*
X0176045Y0019285D02*
X0172934Y0019285D01*
X0186301Y0021800D02*
X0187679Y0023178D01*
X0187679Y0030363D01*
X0198130Y0017288D02*
X0128897Y0017288D01*
X0128802Y0016290D02*
X0198130Y0016290D01*
X0198130Y0015291D02*
X0128389Y0015291D01*
X0127735Y0014293D02*
X0198130Y0014293D01*
X0198130Y0013294D02*
X0126709Y0013294D01*
X0121207Y0013294D02*
X0099150Y0013294D01*
X0100176Y0014293D02*
X0120182Y0014293D01*
X0119528Y0015291D02*
X0100830Y0015291D01*
X0101243Y0016290D02*
X0119114Y0016290D01*
X0119020Y0017288D02*
X0101338Y0017288D01*
X0101338Y0018287D02*
X0119020Y0018287D01*
X0119352Y0019285D02*
X0101005Y0019285D01*
X0100592Y0020284D02*
X0119766Y0020284D01*
X0120756Y0021282D02*
X0099601Y0021282D01*
X0093648Y0013294D02*
X0092679Y0013294D01*
X0092679Y0012296D02*
X0198130Y0012296D01*
X0155179Y0051800D02*
X0158929Y0055550D01*
X0158929Y0062036D01*
X0158929Y0056800D01*
X0153929Y0054300D02*
X0153929Y0062036D01*
X0138929Y0074300D02*
X0145179Y0080550D01*
X0147679Y0080550D01*
X0141429Y0081800D02*
X0140179Y0081800D01*
X0138929Y0074300D02*
X0105179Y0074300D01*
X0103929Y0075550D01*
X0118790Y0092176D02*
X0053315Y0092176D01*
X0057234Y0082191D02*
X0081927Y0082191D01*
X0086943Y0096170D02*
X0087165Y0096170D01*
X0088929Y0098050D02*
X0088929Y0115550D01*
X0096429Y0123050D01*
X0098929Y0123050D01*
X0101429Y0120550D01*
X0111429Y0120550D01*
X0117679Y0114300D01*
X0127679Y0114300D01*
X0130179Y0111800D01*
X0138929Y0101800D01*
X0136429Y0098050D02*
X0136429Y0095550D01*
X0136429Y0098050D02*
X0131429Y0103050D01*
X0131429Y0095550D02*
X0128929Y0095550D01*
X0108929Y0115550D01*
X0098929Y0115550D01*
X0092679Y0109300D01*
X0092679Y0098050D01*
X0094443Y0096170D02*
X0094665Y0096170D01*
X0096429Y0098050D02*
X0096429Y0109300D01*
X0100179Y0113050D01*
X0107679Y0113050D01*
X0128929Y0091800D01*
X0122679Y0110550D02*
X0117679Y0110550D01*
X0110179Y0118050D01*
X0098929Y0118050D01*
X0097679Y0119300D01*
X0103929Y0129300D02*
X0103929Y0134300D01*
X0101429Y0136800D01*
X0105179Y0140550D02*
X0108929Y0136800D01*
X0108929Y0129300D01*
X0102679Y0143050D02*
X0110179Y0150550D01*
X0110179Y0164300D01*
X0102679Y0143050D02*
X0086429Y0143050D01*
X0088929Y0143050D01*
X0086429Y0143050D02*
X0083929Y0143050D01*
X0085179Y0139300D02*
X0092679Y0131800D01*
X0092679Y0130550D01*
X0087679Y0126800D02*
X0085179Y0129300D01*
X0067679Y0129300D01*
X0066429Y0130550D01*
X0066429Y0136800D01*
X0068929Y0139300D01*
X0071429Y0139300D01*
X0072679Y0140550D01*
X0072679Y0143050D01*
X0076429Y0141800D02*
X0076429Y0138237D01*
X0072492Y0134300D01*
X0066473Y0139106D02*
X0058631Y0139106D01*
X0058631Y0140105D02*
X0067471Y0140105D01*
X0067232Y0141103D02*
X0058631Y0141103D01*
X0056616Y0140550D02*
X0055366Y0141800D01*
X0056429Y0140737D01*
X0056429Y0133237D01*
X0058029Y0137109D02*
X0064829Y0137109D01*
X0064829Y0136111D02*
X0060032Y0136111D01*
X0060285Y0135112D02*
X0064829Y0135112D01*
X0064829Y0134114D02*
X0060285Y0134114D01*
X0060285Y0133115D02*
X0064829Y0133115D01*
X0064829Y0132117D02*
X0060285Y0132117D01*
X0060285Y0131118D02*
X0064829Y0131118D01*
X0064829Y0130120D02*
X0059789Y0130120D01*
X0059640Y0128628D02*
X0053217Y0128628D01*
X0052573Y0127984D01*
X0052573Y0122742D01*
X0053217Y0122098D01*
X0053852Y0122098D01*
X0053852Y0121288D01*
X0054245Y0120341D01*
X0054969Y0119616D01*
X0055916Y0119224D01*
X0056941Y0119224D01*
X0057888Y0119616D01*
X0058613Y0120341D01*
X0059005Y0121288D01*
X0059005Y0122098D01*
X0059640Y0122098D01*
X0060285Y0122742D01*
X0060285Y0127984D01*
X0059640Y0128628D01*
X0060146Y0128123D02*
X0066593Y0128123D01*
X0065595Y0129121D02*
X0052500Y0129121D01*
X0052679Y0130120D02*
X0053069Y0130120D01*
X0052712Y0128123D02*
X0051502Y0128123D01*
X0050503Y0127124D02*
X0052573Y0127124D01*
X0052573Y0126126D02*
X0049505Y0126126D01*
X0048506Y0125127D02*
X0052573Y0125127D01*
X0052573Y0124129D02*
X0047508Y0124129D01*
X0046509Y0123130D02*
X0052573Y0123130D01*
X0053183Y0122132D02*
X0045511Y0122132D01*
X0044512Y0121133D02*
X0053916Y0121133D01*
X0054451Y0120135D02*
X0043514Y0120135D01*
X0042515Y0119136D02*
X0082752Y0119136D01*
X0081754Y0118138D02*
X0041517Y0118138D01*
X0041429Y0117139D02*
X0080755Y0117139D01*
X0079829Y0116141D02*
X0041429Y0116141D01*
X0041429Y0115142D02*
X0079829Y0115142D01*
X0079829Y0114144D02*
X0041429Y0114144D01*
X0058407Y0120135D02*
X0083751Y0120135D01*
X0084749Y0121133D02*
X0058941Y0121133D01*
X0059675Y0122132D02*
X0085748Y0122132D01*
X0086746Y0123130D02*
X0060285Y0123130D01*
X0060285Y0124129D02*
X0087745Y0124129D01*
X0085708Y0125127D02*
X0060285Y0125127D01*
X0060285Y0126126D02*
X0085169Y0126126D01*
X0085092Y0127124D02*
X0060285Y0127124D01*
X0058151Y0138108D02*
X0065474Y0138108D01*
X0065766Y0138400D02*
X0065766Y0138400D01*
X0068929Y0143050D02*
X0056616Y0143050D01*
X0055366Y0141800D01*
X0032679Y0163434D02*
X0025179Y0155934D01*
X0025179Y0155363D01*
X0025179Y0163237D02*
X0025917Y0163975D01*
X0025917Y0174300D01*
X0033929Y0164684D02*
X0032679Y0163434D01*
X0025366Y0163237D02*
X0025179Y0163237D01*
X0026429Y0141800D02*
X0026429Y0140284D01*
X0025454Y0139310D01*
X0067948Y0066215D02*
X0069180Y0066215D01*
X0068823Y0065217D02*
X0068185Y0065217D01*
X0068185Y0064218D02*
X0068823Y0064218D01*
X0064429Y0062221D02*
X0063429Y0062221D01*
X0063429Y0061223D02*
X0064429Y0061223D01*
X0064429Y0060224D02*
X0063429Y0060224D01*
X0057679Y0050550D02*
X0054116Y0050550D01*
X0090693Y0096170D02*
X0090915Y0096170D01*
X0126429Y0126800D02*
X0130179Y0130550D01*
X0150179Y0130550D01*
X0153929Y0134300D01*
X0153929Y0146800D01*
X0143146Y0155083D02*
X0140333Y0155083D01*
X0164038Y0112147D02*
X0185813Y0112147D01*
X0184759Y0111148D02*
X0163929Y0111148D01*
X0163929Y0110150D02*
X0166266Y0110150D01*
X0165267Y0109151D02*
X0163929Y0109151D01*
X0164005Y0108153D02*
X0164269Y0108153D01*
X0161429Y0108050D02*
X0161429Y0105550D01*
X0165799Y0105157D02*
X0198130Y0105157D01*
X0170260Y0076200D02*
X0170098Y0076200D01*
X0170098Y0075202D02*
X0170260Y0075202D01*
X0170260Y0074203D02*
X0170098Y0074203D01*
X0170098Y0073205D02*
X0170260Y0073205D01*
X0170260Y0072206D02*
X0170098Y0072206D01*
X0153929Y0041564D02*
X0152429Y0040064D01*
X0147689Y0032810D02*
X0147689Y0030550D01*
X0146931Y0029792D01*
D33*
X0136429Y0051790D02*
X0136419Y0051800D01*
X0132679Y0051800D01*
X0122679Y0040550D02*
X0091429Y0040550D01*
X0085179Y0046800D01*
X0140166Y0110750D02*
X0130829Y0120087D01*
X0129716Y0121200D01*
X0120966Y0121200D01*
X0115829Y0126337D01*
X0114716Y0127450D01*
X0114529Y0127450D01*
X0113929Y0128050D01*
X0111524Y0128050D01*
X0111805Y0128728D01*
X0111805Y0129872D01*
X0111367Y0130929D01*
X0110829Y0131468D01*
X0110829Y0137587D01*
X0108055Y0140361D01*
X0108055Y0141122D01*
X0107617Y0142179D01*
X0106808Y0142988D01*
X0105751Y0143426D01*
X0105742Y0143426D01*
X0112079Y0149763D01*
X0112079Y0162132D01*
X0112617Y0162671D01*
X0113055Y0163728D01*
X0113055Y0164872D01*
X0112617Y0165929D01*
X0111808Y0166738D01*
X0110751Y0167176D01*
X0109607Y0167176D01*
X0108549Y0166738D01*
X0107740Y0165929D01*
X0107302Y0164872D01*
X0107302Y0163728D01*
X0107740Y0162671D01*
X0108279Y0162132D01*
X0108279Y0151337D01*
X0101892Y0144950D01*
X0086097Y0144950D01*
X0085558Y0145488D01*
X0084501Y0145926D01*
X0083357Y0145926D01*
X0082299Y0145488D01*
X0081490Y0144679D01*
X0081052Y0143622D01*
X0081052Y0142478D01*
X0081490Y0141421D01*
X0082299Y0140612D01*
X0082563Y0140502D01*
X0082302Y0139872D01*
X0082302Y0138856D01*
X0080649Y0138856D01*
X0080649Y0136330D01*
X0080083Y0136896D01*
X0080083Y0138856D01*
X0078329Y0138856D01*
X0078329Y0139632D01*
X0078867Y0140171D01*
X0079305Y0141228D01*
X0079305Y0142372D01*
X0078867Y0143429D01*
X0078058Y0144238D01*
X0077001Y0144676D01*
X0075857Y0144676D01*
X0075227Y0144415D01*
X0075117Y0144679D01*
X0074308Y0145488D01*
X0073251Y0145926D01*
X0072107Y0145926D01*
X0071049Y0145488D01*
X0070804Y0145243D01*
X0070558Y0145488D01*
X0069501Y0145926D01*
X0068357Y0145926D01*
X0067299Y0145488D01*
X0066761Y0144950D01*
X0058931Y0144950D01*
X0058931Y0145005D01*
X0059168Y0145242D01*
X0059405Y0145652D01*
X0059528Y0146110D01*
X0059528Y0148820D01*
X0055649Y0148820D01*
X0055649Y0149780D01*
X0059528Y0149780D01*
X0059528Y0152490D01*
X0059457Y0152756D01*
X0059685Y0152625D01*
X0060143Y0152502D01*
X0063154Y0152502D01*
X0063154Y0156677D01*
X0058580Y0156677D01*
X0058580Y0154065D01*
X0058651Y0153798D01*
X0058423Y0153930D01*
X0057965Y0154053D01*
X0055649Y0154053D01*
X0055649Y0149780D01*
X0054689Y0149780D01*
X0054689Y0154038D01*
X0055470Y0154362D01*
X0056279Y0155171D01*
X0056717Y0156228D01*
X0056717Y0156565D01*
X0058580Y0158428D01*
X0058580Y0158226D01*
X0063154Y0158226D01*
X0063154Y0156677D01*
X0064704Y0156677D01*
X0064704Y0158226D01*
X0069278Y0158226D01*
X0069278Y0160838D01*
X0069155Y0161296D01*
X0068918Y0161706D01*
X0068583Y0162042D01*
X0068173Y0162279D01*
X0067715Y0162401D01*
X0064704Y0162401D01*
X0064704Y0158226D01*
X0063154Y0158226D01*
X0063154Y0162401D01*
X0062553Y0162401D01*
X0064250Y0164099D01*
X0068058Y0164099D01*
X0068878Y0164919D01*
X0068878Y0168638D01*
X0073629Y0173389D01*
X0073629Y0174932D01*
X0073867Y0175171D01*
X0074305Y0176228D01*
X0074305Y0177372D01*
X0073867Y0178429D01*
X0073622Y0178675D01*
X0073867Y0178921D01*
X0074305Y0179978D01*
X0074305Y0181095D01*
X0074802Y0180598D01*
X0074802Y0179978D01*
X0075240Y0178921D01*
X0076049Y0178112D01*
X0077107Y0177674D01*
X0078251Y0177674D01*
X0079308Y0178112D01*
X0080117Y0178921D01*
X0080555Y0179978D01*
X0080555Y0181122D01*
X0080117Y0182179D01*
X0079308Y0182988D01*
X0078251Y0183426D01*
X0077631Y0183426D01*
X0073429Y0187628D01*
X0073429Y0187628D01*
X0072257Y0188800D01*
X0067681Y0188800D01*
X0067681Y0190136D01*
X0066861Y0190956D01*
X0061371Y0190956D01*
X0060550Y0190136D01*
X0060550Y0183464D01*
X0061371Y0182644D01*
X0066652Y0182644D01*
X0065160Y0181153D01*
X0060780Y0181153D01*
X0060179Y0180552D01*
X0059578Y0181153D01*
X0053300Y0181153D01*
X0052480Y0180333D01*
X0052480Y0173267D01*
X0053300Y0172447D01*
X0057019Y0172447D01*
X0058980Y0170486D01*
X0058980Y0165051D01*
X0053605Y0159676D01*
X0053429Y0159676D01*
X0053429Y0163878D01*
X0052257Y0165050D01*
X0044879Y0165050D01*
X0044879Y0190889D01*
X0046090Y0192100D01*
X0070518Y0192100D01*
X0071729Y0190889D01*
X0073018Y0189600D01*
X0103018Y0189600D01*
X0105479Y0187139D01*
X0106768Y0185850D01*
X0110292Y0185850D01*
X0107868Y0183426D01*
X0107107Y0183426D01*
X0106049Y0182988D01*
X0105240Y0182179D01*
X0104802Y0181122D01*
X0104802Y0179978D01*
X0105240Y0178921D01*
X0106049Y0178112D01*
X0107107Y0177674D01*
X0108251Y0177674D01*
X0109308Y0178112D01*
X0110117Y0178921D01*
X0110555Y0179978D01*
X0110555Y0180739D01*
X0113466Y0183650D01*
X0148142Y0183650D01*
X0148806Y0182985D01*
X0148552Y0182372D01*
X0148552Y0181228D01*
X0148990Y0180171D01*
X0149799Y0179362D01*
X0150779Y0178956D01*
X0150779Y0178649D01*
X0148158Y0178649D01*
X0148158Y0174770D01*
X0147199Y0174770D01*
X0147199Y0178649D01*
X0144489Y0178649D01*
X0144031Y0178527D01*
X0143621Y0178290D01*
X0143286Y0177954D01*
X0143049Y0177544D01*
X0142926Y0177086D01*
X0142926Y0174770D01*
X0147199Y0174770D01*
X0147199Y0173811D01*
X0142926Y0173811D01*
X0142926Y0171494D01*
X0143049Y0171036D01*
X0143286Y0170626D01*
X0143621Y0170291D01*
X0143651Y0170273D01*
X0143326Y0169949D01*
X0143326Y0168050D01*
X0140250Y0168050D01*
X0140250Y0173738D01*
X0139879Y0174109D01*
X0139879Y0178961D01*
X0137340Y0181500D01*
X0130518Y0181500D01*
X0129268Y0180250D01*
X0127979Y0178961D01*
X0127979Y0174208D01*
X0127608Y0173837D01*
X0127608Y0166968D01*
X0127679Y0166897D01*
X0127679Y0161703D01*
X0127608Y0161632D01*
X0127608Y0154763D01*
X0127679Y0154692D01*
X0127679Y0153653D01*
X0127050Y0153653D01*
X0126502Y0153105D01*
X0126367Y0153429D01*
X0125558Y0154238D01*
X0124501Y0154676D01*
X0123357Y0154676D01*
X0122299Y0154238D01*
X0121490Y0153429D01*
X0121052Y0152372D01*
X0121052Y0151228D01*
X0121490Y0150171D01*
X0122029Y0149632D01*
X0122029Y0144763D01*
X0124392Y0142400D01*
X0126055Y0142400D01*
X0126026Y0142293D01*
X0126026Y0139583D01*
X0129709Y0139583D01*
X0129709Y0139017D01*
X0130275Y0139017D01*
X0130275Y0139583D01*
X0133929Y0139583D01*
X0133929Y0139300D01*
X0134300Y0138928D01*
X0134300Y0135964D01*
X0135121Y0135144D01*
X0139335Y0135144D01*
X0141213Y0133266D01*
X0143917Y0133266D01*
X0143917Y0132450D01*
X0129392Y0132450D01*
X0128279Y0131337D01*
X0126618Y0129676D01*
X0125857Y0129676D01*
X0124799Y0129238D01*
X0123990Y0128429D01*
X0123552Y0127372D01*
X0123552Y0126228D01*
X0123990Y0125171D01*
X0124799Y0124362D01*
X0125857Y0123924D01*
X0127001Y0123924D01*
X0128058Y0124362D01*
X0128867Y0125171D01*
X0129305Y0126228D01*
X0129305Y0126989D01*
X0130966Y0128650D01*
X0150966Y0128650D01*
X0154716Y0132400D01*
X0155829Y0133513D01*
X0155829Y0137400D01*
X0162029Y0137400D01*
X0162029Y0130087D01*
X0158142Y0126200D01*
X0150642Y0126200D01*
X0149529Y0125087D01*
X0147523Y0123081D01*
X0147299Y0122988D01*
X0146490Y0122179D01*
X0146052Y0121122D01*
X0146052Y0119978D01*
X0146490Y0118921D01*
X0147299Y0118112D01*
X0148357Y0117674D01*
X0149501Y0117674D01*
X0150558Y0118112D01*
X0150804Y0118357D01*
X0151049Y0118112D01*
X0152107Y0117674D01*
X0153251Y0117674D01*
X0154308Y0118112D01*
X0154847Y0118650D01*
X0158092Y0118650D01*
X0148279Y0108837D01*
X0148279Y0108050D01*
X0147910Y0108050D01*
X0147001Y0108426D01*
X0145857Y0108426D01*
X0145342Y0108213D01*
X0145555Y0108728D01*
X0145555Y0109872D01*
X0145117Y0110929D01*
X0144308Y0111738D01*
X0143251Y0112176D01*
X0142107Y0112176D01*
X0141049Y0111738D01*
X0140240Y0110929D01*
X0140166Y0110750D01*
X0140916Y0111605D02*
X0139311Y0111605D01*
X0137713Y0113203D02*
X0152645Y0113203D01*
X0151047Y0111605D02*
X0144442Y0111605D01*
X0145500Y0110006D02*
X0149448Y0110006D01*
X0148279Y0108408D02*
X0147046Y0108408D01*
X0145812Y0108408D02*
X0145423Y0108408D01*
X0147572Y0117999D02*
X0132917Y0117999D01*
X0131319Y0119597D02*
X0146210Y0119597D01*
X0146083Y0121196D02*
X0129720Y0121196D01*
X0128089Y0124393D02*
X0148835Y0124393D01*
X0150433Y0125991D02*
X0129207Y0125991D01*
X0129906Y0127590D02*
X0159532Y0127590D01*
X0161130Y0129188D02*
X0151504Y0129188D01*
X0153103Y0130787D02*
X0162029Y0130787D01*
X0162029Y0132385D02*
X0154701Y0132385D01*
X0155829Y0133984D02*
X0162029Y0133984D01*
X0162029Y0135582D02*
X0155829Y0135582D01*
X0155829Y0137181D02*
X0162029Y0137181D01*
X0157441Y0117999D02*
X0154036Y0117999D01*
X0155842Y0116400D02*
X0134516Y0116400D01*
X0136114Y0114802D02*
X0154244Y0114802D01*
X0151322Y0117999D02*
X0150286Y0117999D01*
X0147105Y0122794D02*
X0119372Y0122794D01*
X0117773Y0124393D02*
X0124768Y0124393D01*
X0123650Y0125991D02*
X0116174Y0125991D01*
X0115829Y0126337D02*
X0115829Y0126337D01*
X0114389Y0127590D02*
X0123643Y0127590D01*
X0124749Y0129188D02*
X0111805Y0129188D01*
X0111426Y0130787D02*
X0127729Y0130787D01*
X0129327Y0132385D02*
X0110829Y0132385D01*
X0110829Y0133984D02*
X0140495Y0133984D01*
X0134682Y0135582D02*
X0133680Y0135582D01*
X0133598Y0135439D02*
X0133835Y0135849D01*
X0133957Y0136307D01*
X0133957Y0139017D01*
X0130275Y0139017D01*
X0130275Y0134744D01*
X0132394Y0134744D01*
X0132852Y0134867D01*
X0133262Y0135104D01*
X0133598Y0135439D01*
X0133957Y0137181D02*
X0134300Y0137181D01*
X0134300Y0138779D02*
X0133957Y0138779D01*
X0130275Y0138779D02*
X0129709Y0138779D01*
X0129709Y0139017D02*
X0129709Y0134744D01*
X0127589Y0134744D01*
X0127132Y0134867D01*
X0126721Y0135104D01*
X0126386Y0135439D01*
X0126149Y0135849D01*
X0126026Y0136307D01*
X0126026Y0139017D01*
X0129709Y0139017D01*
X0129709Y0137181D02*
X0130275Y0137181D01*
X0130275Y0135582D02*
X0129709Y0135582D01*
X0126303Y0135582D02*
X0110829Y0135582D01*
X0110829Y0137181D02*
X0126026Y0137181D01*
X0126026Y0138779D02*
X0109636Y0138779D01*
X0108055Y0140378D02*
X0126026Y0140378D01*
X0126026Y0141976D02*
X0107701Y0141976D01*
X0105891Y0143575D02*
X0123217Y0143575D01*
X0122029Y0145173D02*
X0107489Y0145173D01*
X0109088Y0146772D02*
X0122029Y0146772D01*
X0122029Y0148370D02*
X0110686Y0148370D01*
X0112079Y0149969D02*
X0121692Y0149969D01*
X0121052Y0151568D02*
X0112079Y0151568D01*
X0112079Y0153166D02*
X0121381Y0153166D01*
X0126476Y0153166D02*
X0126563Y0153166D01*
X0127608Y0154765D02*
X0112079Y0154765D01*
X0112079Y0156363D02*
X0127608Y0156363D01*
X0127608Y0157962D02*
X0112079Y0157962D01*
X0112079Y0159560D02*
X0127608Y0159560D01*
X0127608Y0161159D02*
X0112079Y0161159D01*
X0112653Y0162757D02*
X0127679Y0162757D01*
X0127679Y0164356D02*
X0113055Y0164356D01*
X0112593Y0165954D02*
X0127679Y0165954D01*
X0127608Y0167553D02*
X0068878Y0167553D01*
X0068878Y0165954D02*
X0107765Y0165954D01*
X0107302Y0164356D02*
X0068315Y0164356D01*
X0069192Y0161159D02*
X0108279Y0161159D01*
X0108279Y0159560D02*
X0069278Y0159560D01*
X0069278Y0156677D02*
X0064704Y0156677D01*
X0064704Y0152502D01*
X0067715Y0152502D01*
X0068173Y0152625D01*
X0068583Y0152862D01*
X0068918Y0153197D01*
X0069155Y0153607D01*
X0069278Y0154065D01*
X0069278Y0156677D01*
X0069278Y0156363D02*
X0108279Y0156363D01*
X0108279Y0154765D02*
X0069278Y0154765D01*
X0068888Y0153166D02*
X0108279Y0153166D01*
X0108279Y0151568D02*
X0059528Y0151568D01*
X0059528Y0149969D02*
X0106911Y0149969D01*
X0105312Y0148370D02*
X0059528Y0148370D01*
X0059528Y0146772D02*
X0103714Y0146772D01*
X0102115Y0145173D02*
X0085873Y0145173D01*
X0082512Y0140378D02*
X0078953Y0140378D01*
X0079305Y0141976D02*
X0081260Y0141976D01*
X0081052Y0143575D02*
X0078722Y0143575D01*
X0081984Y0145173D02*
X0074623Y0145173D01*
X0066985Y0145173D02*
X0059100Y0145173D01*
X0055649Y0149969D02*
X0054689Y0149969D01*
X0054689Y0151568D02*
X0055649Y0151568D01*
X0055649Y0153166D02*
X0054689Y0153166D01*
X0055873Y0154765D02*
X0058580Y0154765D01*
X0058580Y0156363D02*
X0056717Y0156363D01*
X0058113Y0157962D02*
X0063154Y0157962D01*
X0064704Y0157962D02*
X0108279Y0157962D01*
X0107705Y0162757D02*
X0062909Y0162757D01*
X0063154Y0161159D02*
X0064704Y0161159D01*
X0064704Y0159560D02*
X0063154Y0159560D01*
X0063154Y0156363D02*
X0064704Y0156363D01*
X0064704Y0154765D02*
X0063154Y0154765D01*
X0063154Y0153166D02*
X0064704Y0153166D01*
X0053840Y0156800D02*
X0063929Y0166889D01*
X0063929Y0168648D01*
X0056439Y0176139D01*
X0056439Y0176800D01*
X0055179Y0175540D01*
X0056439Y0176139D02*
X0056439Y0176800D01*
X0052480Y0177144D02*
X0044879Y0177144D01*
X0044879Y0178742D02*
X0052480Y0178742D01*
X0052488Y0180341D02*
X0044879Y0180341D01*
X0044879Y0181939D02*
X0065947Y0181939D01*
X0067669Y0180550D02*
X0063919Y0176800D01*
X0067669Y0180550D02*
X0071429Y0180550D01*
X0074305Y0180341D02*
X0074802Y0180341D01*
X0075419Y0178742D02*
X0073689Y0178742D01*
X0074305Y0177144D02*
X0127979Y0177144D01*
X0127979Y0178742D02*
X0109939Y0178742D01*
X0110555Y0180341D02*
X0129358Y0180341D01*
X0131429Y0179300D02*
X0130179Y0178050D01*
X0130179Y0170412D01*
X0130189Y0170402D01*
X0130179Y0170393D01*
X0130179Y0166800D01*
X0131429Y0165550D01*
X0135179Y0165550D01*
X0135189Y0165560D01*
X0135179Y0165550D02*
X0136429Y0165550D01*
X0146419Y0165550D01*
X0147679Y0166810D01*
X0147689Y0166800D01*
X0151429Y0166800D01*
X0155179Y0170550D01*
X0155179Y0184300D01*
X0155179Y0185550D01*
X0152679Y0188050D01*
X0107679Y0188050D01*
X0103929Y0191800D01*
X0073929Y0191800D01*
X0071429Y0194300D01*
X0045179Y0194300D01*
X0042679Y0191800D01*
X0042679Y0156800D01*
X0040179Y0154300D01*
X0037679Y0154300D01*
X0042679Y0149300D01*
X0047689Y0149300D01*
X0053429Y0161159D02*
X0055088Y0161159D01*
X0056686Y0162757D02*
X0053429Y0162757D01*
X0052952Y0164356D02*
X0058285Y0164356D01*
X0058980Y0165954D02*
X0044879Y0165954D01*
X0044879Y0167553D02*
X0058980Y0167553D01*
X0058980Y0169151D02*
X0044879Y0169151D01*
X0044879Y0170750D02*
X0058716Y0170750D01*
X0057118Y0172348D02*
X0044879Y0172348D01*
X0044879Y0173947D02*
X0052480Y0173947D01*
X0052480Y0175545D02*
X0044879Y0175545D01*
X0044879Y0183538D02*
X0052349Y0183538D01*
X0052399Y0183349D02*
X0052636Y0182939D01*
X0052971Y0182604D01*
X0053382Y0182367D01*
X0053839Y0182244D01*
X0055959Y0182244D01*
X0055959Y0186517D01*
X0056525Y0186517D01*
X0056525Y0187083D01*
X0060207Y0187083D01*
X0060207Y0189793D01*
X0060085Y0190251D01*
X0059848Y0190661D01*
X0059512Y0190996D01*
X0059102Y0191233D01*
X0058644Y0191356D01*
X0056525Y0191356D01*
X0056525Y0187083D01*
X0055959Y0187083D01*
X0055959Y0191356D01*
X0053839Y0191356D01*
X0053382Y0191233D01*
X0052971Y0190996D01*
X0052636Y0190661D01*
X0052399Y0190251D01*
X0052276Y0189793D01*
X0052276Y0187083D01*
X0055959Y0187083D01*
X0055959Y0186517D01*
X0052276Y0186517D01*
X0052276Y0183807D01*
X0052399Y0183349D01*
X0052276Y0185136D02*
X0044879Y0185136D01*
X0044879Y0186735D02*
X0055959Y0186735D01*
X0056525Y0186735D02*
X0060550Y0186735D01*
X0060207Y0186517D02*
X0056525Y0186517D01*
X0056525Y0182244D01*
X0058644Y0182244D01*
X0059102Y0182367D01*
X0059512Y0182604D01*
X0059848Y0182939D01*
X0060085Y0183349D01*
X0060207Y0183807D01*
X0060207Y0186517D01*
X0060207Y0185136D02*
X0060550Y0185136D01*
X0060550Y0183538D02*
X0060135Y0183538D01*
X0060207Y0188333D02*
X0060550Y0188333D01*
X0060550Y0189932D02*
X0060170Y0189932D01*
X0056525Y0189932D02*
X0055959Y0189932D01*
X0055959Y0188333D02*
X0056525Y0188333D01*
X0056525Y0185136D02*
X0055959Y0185136D01*
X0055959Y0183538D02*
X0056525Y0183538D01*
X0052276Y0188333D02*
X0044879Y0188333D01*
X0044879Y0189932D02*
X0052314Y0189932D01*
X0045520Y0191530D02*
X0071087Y0191530D01*
X0072686Y0189932D02*
X0067681Y0189932D01*
X0072724Y0188333D02*
X0104284Y0188333D01*
X0105883Y0186735D02*
X0074322Y0186735D01*
X0075921Y0185136D02*
X0109578Y0185136D01*
X0107980Y0183538D02*
X0077520Y0183538D01*
X0080217Y0181939D02*
X0105141Y0181939D01*
X0104802Y0180341D02*
X0080555Y0180341D01*
X0079939Y0178742D02*
X0105419Y0178742D01*
X0111755Y0181939D02*
X0148552Y0181939D01*
X0148254Y0183538D02*
X0113354Y0183538D01*
X0111173Y0195550D02*
X0146429Y0195550D01*
X0147679Y0196800D01*
X0141616Y0201800D02*
X0153929Y0201800D01*
X0157679Y0205550D01*
X0157679Y0209310D01*
X0157679Y0208050D01*
X0150179Y0209310D02*
X0146429Y0209310D01*
X0145179Y0210560D01*
X0142876Y0210560D01*
X0141616Y0209300D01*
X0141626Y0216790D02*
X0150179Y0216790D01*
X0148929Y0218040D01*
X0148929Y0220550D01*
X0150179Y0224300D02*
X0141616Y0224300D01*
X0141616Y0216800D02*
X0141626Y0216790D01*
X0133742Y0216800D02*
X0132492Y0215550D01*
X0086429Y0215550D01*
X0081153Y0220826D01*
X0081153Y0222814D01*
X0082679Y0230550D02*
X0076429Y0230550D01*
X0068693Y0222814D01*
X0060937Y0222814D01*
X0057443Y0222814D01*
X0055179Y0220550D01*
X0055179Y0235363D01*
X0054992Y0235550D01*
X0051429Y0235550D01*
X0040179Y0246800D01*
X0040179Y0256337D01*
X0039716Y0255087D01*
X0040179Y0254625D01*
X0040179Y0250550D01*
X0050179Y0245550D02*
X0050179Y0298100D01*
X0073929Y0299300D02*
X0073929Y0245737D01*
X0072679Y0244487D01*
X0078929Y0245550D02*
X0078929Y0249300D01*
X0081429Y0251800D01*
X0081429Y0289300D01*
X0090129Y0289300D01*
X0098929Y0298100D01*
X0098929Y0291800D01*
X0122679Y0299300D02*
X0122679Y0246987D01*
X0125366Y0244300D01*
X0131429Y0240550D02*
X0127679Y0236800D01*
X0106429Y0236800D01*
X0105179Y0235550D01*
X0108929Y0234300D02*
X0103929Y0229300D01*
X0103929Y0223306D01*
X0103437Y0222814D01*
X0108929Y0234300D02*
X0111429Y0234300D01*
X0112679Y0233050D01*
X0128929Y0233050D01*
X0139116Y0243237D01*
X0140179Y0243237D01*
X0137679Y0245737D01*
X0137679Y0256337D01*
X0131429Y0240550D02*
X0131429Y0283050D01*
X0133929Y0285550D01*
X0135129Y0285550D01*
X0147679Y0298100D01*
X0147679Y0286800D01*
X0157679Y0256337D02*
X0152679Y0251337D01*
X0152679Y0238050D01*
X0149992Y0235363D01*
X0147679Y0235363D01*
X0140179Y0235363D01*
X0133742Y0224300D02*
X0125139Y0224300D01*
X0123653Y0222814D01*
X0132492Y0210550D02*
X0133742Y0209300D01*
X0132492Y0210550D02*
X0086429Y0210550D01*
X0081153Y0205274D01*
X0081153Y0203286D01*
X0081153Y0206524D01*
X0082679Y0230550D02*
X0085179Y0233050D01*
X0085179Y0236613D01*
X0084992Y0236800D01*
X0092866Y0244300D02*
X0088929Y0248237D01*
X0088929Y0256337D01*
X0092866Y0244300D02*
X0092866Y0236800D01*
X0109116Y0244300D02*
X0109116Y0256150D01*
X0108929Y0256337D01*
X0103437Y0203286D02*
X0111173Y0195550D01*
X0123653Y0203286D02*
X0132256Y0203286D01*
X0133742Y0201800D01*
X0138499Y0180341D02*
X0148920Y0180341D01*
X0150779Y0178742D02*
X0139879Y0178742D01*
X0139879Y0177144D02*
X0142941Y0177144D01*
X0142926Y0175545D02*
X0139879Y0175545D01*
X0140042Y0173947D02*
X0147199Y0173947D01*
X0147199Y0175545D02*
X0148158Y0175545D01*
X0148158Y0177144D02*
X0147199Y0177144D01*
X0142926Y0172348D02*
X0140250Y0172348D01*
X0140250Y0170750D02*
X0143214Y0170750D01*
X0143326Y0169151D02*
X0140250Y0169151D01*
X0137679Y0170393D02*
X0137679Y0166800D01*
X0136429Y0165550D01*
X0137669Y0170402D02*
X0137679Y0170412D01*
X0137679Y0178050D01*
X0136429Y0179300D01*
X0131429Y0179300D01*
X0132379Y0177100D02*
X0135479Y0177100D01*
X0135479Y0175021D01*
X0135347Y0175057D01*
X0133929Y0175057D01*
X0133929Y0170402D01*
X0133929Y0175550D01*
X0133929Y0175057D02*
X0132511Y0175057D01*
X0132379Y0175021D01*
X0132379Y0177100D01*
X0132379Y0175545D02*
X0135479Y0175545D01*
X0133929Y0175057D02*
X0133929Y0170402D01*
X0133929Y0170402D01*
X0133929Y0170750D02*
X0133929Y0170750D01*
X0133929Y0172348D02*
X0133929Y0172348D01*
X0133929Y0173947D02*
X0133929Y0173947D01*
X0127979Y0175545D02*
X0074022Y0175545D01*
X0073629Y0173947D02*
X0127718Y0173947D01*
X0127608Y0172348D02*
X0072588Y0172348D01*
X0070990Y0170750D02*
X0127608Y0170750D01*
X0127608Y0169151D02*
X0069391Y0169151D01*
X0065777Y0168648D02*
X0071429Y0174300D01*
X0071429Y0176800D01*
X0065777Y0168648D02*
X0063929Y0168648D01*
X0080083Y0138779D02*
X0080649Y0138779D01*
X0080649Y0137181D02*
X0080083Y0137181D01*
X0036941Y0174300D02*
X0036941Y0181800D01*
X0036941Y0189300D01*
X0036941Y0192538D01*
X0032679Y0196800D01*
X0032679Y0201600D01*
X0043929Y0214300D02*
X0045179Y0215550D01*
X0045179Y0228050D01*
X0047679Y0230550D01*
X0050179Y0230550D01*
X0054992Y0235550D02*
X0054992Y0235737D01*
X0052679Y0243050D02*
X0050179Y0245550D01*
X0054992Y0244300D02*
X0060179Y0249487D01*
X0060179Y0256337D01*
X0054992Y0244300D02*
X0062866Y0236426D01*
X0062866Y0235550D01*
X0051429Y0214300D02*
X0043929Y0214300D01*
X0040379Y0222000D02*
X0041429Y0223050D01*
X0040379Y0222000D02*
X0032679Y0222000D01*
X0060179Y0210550D02*
X0060937Y0209792D01*
X0060937Y0203286D01*
X0141429Y0158050D02*
X0141439Y0158040D01*
X0147679Y0158040D01*
X0151419Y0158040D01*
X0152679Y0159300D01*
X0155179Y0184300D02*
X0161429Y0184300D01*
X0162679Y0185550D01*
X0180179Y0185550D01*
X0183929Y0189300D01*
X0183329Y0206800D02*
X0183329Y0215087D01*
X0182216Y0216200D01*
X0170829Y0227587D01*
X0170829Y0229791D01*
X0173378Y0227242D01*
X0176979Y0225750D01*
X0180878Y0225750D01*
X0184480Y0227242D01*
X0187237Y0229999D01*
X0188729Y0233601D01*
X0188729Y0237499D01*
X0187237Y0241101D01*
X0184480Y0243858D01*
X0180878Y0245350D01*
X0176979Y0245350D01*
X0176017Y0244951D01*
X0182489Y0251424D01*
X0183251Y0251424D01*
X0184308Y0251862D01*
X0185117Y0252671D01*
X0185555Y0253728D01*
X0185555Y0254872D01*
X0185117Y0255929D01*
X0184308Y0256738D01*
X0183251Y0257176D01*
X0182107Y0257176D01*
X0181049Y0256738D01*
X0180240Y0255929D01*
X0179802Y0254872D01*
X0179802Y0254111D01*
X0176805Y0251113D01*
X0176805Y0251122D01*
X0176367Y0252179D01*
X0175837Y0252709D01*
X0176808Y0253112D01*
X0177617Y0253921D01*
X0178055Y0254978D01*
X0178055Y0256122D01*
X0177617Y0257179D01*
X0176808Y0257988D01*
X0175751Y0258426D01*
X0174607Y0258426D01*
X0173549Y0257988D01*
X0172740Y0257179D01*
X0172379Y0256306D01*
X0172379Y0298682D01*
X0172617Y0298921D01*
X0173055Y0299978D01*
X0173055Y0301122D01*
X0172617Y0302179D01*
X0171808Y0302988D01*
X0170751Y0303426D01*
X0170179Y0303426D01*
X0170179Y0316800D01*
X0169116Y0316800D01*
X0168466Y0317450D01*
X0161429Y0317450D01*
X0161429Y0336961D01*
X0197830Y0336961D01*
X0197830Y0206800D01*
X0183329Y0206800D01*
X0183329Y0207515D02*
X0197830Y0207515D01*
X0197830Y0209114D02*
X0183329Y0209114D01*
X0183329Y0210712D02*
X0197830Y0210712D01*
X0197830Y0212311D02*
X0183329Y0212311D01*
X0183329Y0213909D02*
X0197830Y0213909D01*
X0197830Y0215508D02*
X0182908Y0215508D01*
X0181309Y0217106D02*
X0197830Y0217106D01*
X0197830Y0218705D02*
X0179711Y0218705D01*
X0178112Y0220303D02*
X0197830Y0220303D01*
X0197830Y0221902D02*
X0176514Y0221902D01*
X0174915Y0223501D02*
X0197830Y0223501D01*
X0197830Y0225099D02*
X0173317Y0225099D01*
X0174692Y0226698D02*
X0171718Y0226698D01*
X0172323Y0228296D02*
X0170829Y0228296D01*
X0183166Y0226698D02*
X0197830Y0226698D01*
X0197830Y0228296D02*
X0185534Y0228296D01*
X0187133Y0229895D02*
X0197830Y0229895D01*
X0197830Y0231493D02*
X0187856Y0231493D01*
X0188518Y0233092D02*
X0197830Y0233092D01*
X0197830Y0234690D02*
X0188729Y0234690D01*
X0188729Y0236289D02*
X0197830Y0236289D01*
X0197830Y0237887D02*
X0188568Y0237887D01*
X0187906Y0239486D02*
X0197830Y0239486D01*
X0197830Y0241084D02*
X0187244Y0241084D01*
X0185655Y0242683D02*
X0197830Y0242683D01*
X0197830Y0244281D02*
X0183459Y0244281D01*
X0180143Y0249077D02*
X0197830Y0249077D01*
X0197830Y0250675D02*
X0181741Y0250675D01*
X0184720Y0252274D02*
X0197830Y0252274D01*
X0197830Y0253872D02*
X0185555Y0253872D01*
X0185307Y0255471D02*
X0197830Y0255471D01*
X0197830Y0257069D02*
X0183510Y0257069D01*
X0181848Y0257069D02*
X0177663Y0257069D01*
X0178055Y0255471D02*
X0180050Y0255471D01*
X0179564Y0253872D02*
X0177569Y0253872D01*
X0177966Y0252274D02*
X0176273Y0252274D01*
X0178544Y0247478D02*
X0197830Y0247478D01*
X0197830Y0245880D02*
X0176945Y0245880D01*
X0172695Y0257069D02*
X0172379Y0257069D01*
X0172379Y0258668D02*
X0197830Y0258668D01*
X0197830Y0260266D02*
X0172379Y0260266D01*
X0172379Y0261865D02*
X0197830Y0261865D01*
X0197830Y0263463D02*
X0172379Y0263463D01*
X0172379Y0265062D02*
X0197830Y0265062D01*
X0197830Y0266660D02*
X0172379Y0266660D01*
X0172379Y0268259D02*
X0197830Y0268259D01*
X0197830Y0269857D02*
X0172379Y0269857D01*
X0172379Y0271456D02*
X0197830Y0271456D01*
X0197830Y0273054D02*
X0172379Y0273054D01*
X0172379Y0274653D02*
X0197830Y0274653D01*
X0197830Y0276251D02*
X0172379Y0276251D01*
X0172379Y0277850D02*
X0197830Y0277850D01*
X0197830Y0279448D02*
X0172379Y0279448D01*
X0172379Y0281047D02*
X0197830Y0281047D01*
X0197830Y0282645D02*
X0172379Y0282645D01*
X0172379Y0284244D02*
X0197830Y0284244D01*
X0197830Y0285842D02*
X0172379Y0285842D01*
X0172379Y0287441D02*
X0197830Y0287441D01*
X0197830Y0289039D02*
X0172379Y0289039D01*
X0172379Y0290638D02*
X0197830Y0290638D01*
X0197830Y0292237D02*
X0172379Y0292237D01*
X0172379Y0293835D02*
X0197830Y0293835D01*
X0197830Y0295434D02*
X0172379Y0295434D01*
X0172379Y0297032D02*
X0197830Y0297032D01*
X0197830Y0298631D02*
X0172379Y0298631D01*
X0173055Y0300229D02*
X0197830Y0300229D01*
X0197830Y0301828D02*
X0172763Y0301828D01*
X0170752Y0303426D02*
X0197830Y0303426D01*
X0197830Y0305025D02*
X0170179Y0305025D01*
X0170179Y0306623D02*
X0197830Y0306623D01*
X0197830Y0308222D02*
X0170179Y0308222D01*
X0170179Y0309820D02*
X0197830Y0309820D01*
X0197830Y0311419D02*
X0170179Y0311419D01*
X0170179Y0313017D02*
X0197830Y0313017D01*
X0197830Y0314616D02*
X0170179Y0314616D01*
X0170179Y0316214D02*
X0197830Y0316214D01*
X0197830Y0317813D02*
X0161429Y0317813D01*
X0161429Y0319411D02*
X0197830Y0319411D01*
X0197830Y0321010D02*
X0161429Y0321010D01*
X0161429Y0322608D02*
X0167041Y0322608D01*
X0167158Y0322560D02*
X0168050Y0322321D01*
X0168629Y0322244D01*
X0168629Y0328450D01*
X0170229Y0328450D01*
X0170229Y0330050D01*
X0176434Y0330050D01*
X0176358Y0330628D01*
X0176119Y0331521D01*
X0175765Y0332375D01*
X0175303Y0333175D01*
X0174741Y0333908D01*
X0174087Y0334562D01*
X0173354Y0335124D01*
X0172554Y0335587D01*
X0171700Y0335940D01*
X0170807Y0336179D01*
X0170229Y0336255D01*
X0170229Y0330050D01*
X0168629Y0330050D01*
X0168629Y0336255D01*
X0168050Y0336179D01*
X0167158Y0335940D01*
X0166304Y0335587D01*
X0165504Y0335124D01*
X0164770Y0334562D01*
X0164117Y0333908D01*
X0163554Y0333175D01*
X0163092Y0332375D01*
X0162739Y0331521D01*
X0162499Y0330628D01*
X0162423Y0330050D01*
X0168629Y0330050D01*
X0168629Y0328450D01*
X0162423Y0328450D01*
X0162499Y0327872D01*
X0162739Y0326979D01*
X0163092Y0326125D01*
X0163554Y0325325D01*
X0164117Y0324592D01*
X0164770Y0323938D01*
X0165504Y0323376D01*
X0166304Y0322913D01*
X0167158Y0322560D01*
X0168629Y0322608D02*
X0170229Y0322608D01*
X0170229Y0322244D02*
X0170807Y0322321D01*
X0171700Y0322560D01*
X0172554Y0322913D01*
X0173354Y0323376D01*
X0174087Y0323938D01*
X0174741Y0324592D01*
X0175303Y0325325D01*
X0175765Y0326125D01*
X0176119Y0326979D01*
X0176358Y0327872D01*
X0176434Y0328450D01*
X0170229Y0328450D01*
X0170229Y0322244D01*
X0171817Y0322608D02*
X0184586Y0322608D01*
X0184606Y0322600D02*
X0187252Y0322600D01*
X0189696Y0323612D01*
X0191566Y0325483D01*
X0192579Y0327927D01*
X0192579Y0330573D01*
X0191566Y0333017D01*
X0189696Y0334888D01*
X0187252Y0335900D01*
X0184606Y0335900D01*
X0182162Y0334888D01*
X0180291Y0333017D01*
X0179279Y0330573D01*
X0179279Y0327927D01*
X0180291Y0325483D01*
X0182162Y0323612D01*
X0184606Y0322600D01*
X0187271Y0322608D02*
X0197830Y0322608D01*
X0197830Y0324207D02*
X0190290Y0324207D01*
X0191700Y0325805D02*
X0197830Y0325805D01*
X0197830Y0327404D02*
X0192362Y0327404D01*
X0192579Y0329002D02*
X0197830Y0329002D01*
X0197830Y0330601D02*
X0192567Y0330601D01*
X0191905Y0332199D02*
X0197830Y0332199D01*
X0197830Y0333798D02*
X0190786Y0333798D01*
X0188468Y0335396D02*
X0197830Y0335396D01*
X0183390Y0335396D02*
X0172883Y0335396D01*
X0174826Y0333798D02*
X0181072Y0333798D01*
X0179953Y0332199D02*
X0175838Y0332199D01*
X0176362Y0330601D02*
X0179290Y0330601D01*
X0179279Y0329002D02*
X0170229Y0329002D01*
X0170229Y0327404D02*
X0168629Y0327404D01*
X0168629Y0329002D02*
X0161429Y0329002D01*
X0161429Y0327404D02*
X0162625Y0327404D01*
X0163277Y0325805D02*
X0161429Y0325805D01*
X0161429Y0324207D02*
X0164502Y0324207D01*
X0168629Y0324207D02*
X0170229Y0324207D01*
X0170229Y0325805D02*
X0168629Y0325805D01*
X0168629Y0330601D02*
X0170229Y0330601D01*
X0170229Y0332199D02*
X0168629Y0332199D01*
X0168629Y0333798D02*
X0170229Y0333798D01*
X0170229Y0335396D02*
X0168629Y0335396D01*
X0165975Y0335396D02*
X0161429Y0335396D01*
X0161429Y0333798D02*
X0164032Y0333798D01*
X0163020Y0332199D02*
X0161429Y0332199D01*
X0161429Y0330601D02*
X0162496Y0330601D01*
X0174356Y0324207D02*
X0181568Y0324207D01*
X0180158Y0325805D02*
X0175581Y0325805D01*
X0176233Y0327404D02*
X0179496Y0327404D01*
X0170179Y0300550D02*
X0170179Y0254300D01*
X0159116Y0243237D01*
X0158929Y0243237D01*
X0150179Y0224300D02*
X0157679Y0216800D01*
X0157679Y0216790D01*
X0157679Y0218050D01*
X0170179Y0038237D02*
X0178929Y0038237D01*
X0187679Y0038237D01*
X0192679Y0033237D01*
X0192679Y0031800D01*
D34*
X0022279Y0011400D02*
X0022279Y0130550D01*
X0027679Y0130550D01*
X0027679Y0136535D01*
X0028511Y0136535D01*
X0029213Y0137238D01*
X0029213Y0141382D01*
X0029105Y0141490D01*
X0029105Y0142332D01*
X0028698Y0143316D01*
X0027998Y0144015D01*
X0028511Y0144015D01*
X0029213Y0144718D01*
X0029213Y0148862D01*
X0028511Y0149565D01*
X0027679Y0149565D01*
X0027679Y0151998D01*
X0028432Y0151998D01*
X0028782Y0152348D01*
X0028826Y0152186D01*
X0029036Y0151822D01*
X0029334Y0151524D01*
X0029699Y0151313D01*
X0030106Y0151204D01*
X0032098Y0151204D01*
X0032098Y0154585D01*
X0033260Y0154585D01*
X0033260Y0155747D01*
X0036641Y0155747D01*
X0036641Y0157739D01*
X0036532Y0158146D01*
X0036321Y0158511D01*
X0036023Y0158809D01*
X0035659Y0159019D01*
X0035252Y0159128D01*
X0033260Y0159128D01*
X0033260Y0155747D01*
X0032098Y0155747D01*
X0032098Y0159128D01*
X0030777Y0159128D01*
X0031521Y0159872D01*
X0035538Y0159872D01*
X0036241Y0160575D01*
X0036241Y0163050D01*
X0051429Y0163050D01*
X0051429Y0157972D01*
X0051164Y0157332D01*
X0051164Y0156268D01*
X0051429Y0155628D01*
X0051429Y0153334D01*
X0051230Y0153533D01*
X0050865Y0153744D01*
X0050458Y0153853D01*
X0048289Y0153853D01*
X0048289Y0149900D01*
X0047089Y0149900D01*
X0047089Y0153853D01*
X0044919Y0153853D01*
X0044512Y0153744D01*
X0044147Y0153533D01*
X0043849Y0153235D01*
X0043639Y0152870D01*
X0043530Y0152463D01*
X0043530Y0149900D01*
X0047089Y0149900D01*
X0047089Y0148700D01*
X0048289Y0148700D01*
X0048289Y0146156D01*
X0047975Y0146156D01*
X0047975Y0142283D01*
X0047009Y0142283D01*
X0047009Y0144747D01*
X0047089Y0144747D01*
X0047089Y0148700D01*
X0043530Y0148700D01*
X0043530Y0146137D01*
X0043639Y0145730D01*
X0043849Y0145365D01*
X0043911Y0145304D01*
X0043836Y0145173D01*
X0043726Y0144767D01*
X0043726Y0142283D01*
X0047009Y0142283D01*
X0047009Y0141317D01*
X0047975Y0141317D01*
X0047975Y0137444D01*
X0049868Y0137444D01*
X0050275Y0137553D01*
X0050640Y0137764D01*
X0050937Y0138062D01*
X0050979Y0138133D01*
X0050979Y0130004D01*
X0039729Y0118754D01*
X0039729Y0087998D01*
X0037080Y0087998D01*
X0036949Y0088316D01*
X0035947Y0089318D01*
X0034637Y0089860D01*
X0033220Y0089860D01*
X0031911Y0089318D01*
X0030909Y0088316D01*
X0030367Y0087007D01*
X0030367Y0085589D01*
X0030909Y0084280D01*
X0031911Y0083278D01*
X0033220Y0082736D01*
X0034637Y0082736D01*
X0035947Y0083278D01*
X0036949Y0084280D01*
X0037080Y0084598D01*
X0039729Y0084598D01*
X0039729Y0080124D01*
X0037080Y0080124D01*
X0036949Y0080442D01*
X0035947Y0081444D01*
X0034637Y0081986D01*
X0033220Y0081986D01*
X0031911Y0081444D01*
X0030909Y0080442D01*
X0030367Y0079133D01*
X0030367Y0077715D01*
X0030909Y0076406D01*
X0031911Y0075404D01*
X0033220Y0074862D01*
X0034637Y0074862D01*
X0035947Y0075404D01*
X0036949Y0076406D01*
X0037080Y0076724D01*
X0039729Y0076724D01*
X0039729Y0072250D01*
X0037080Y0072250D01*
X0036949Y0072568D01*
X0035947Y0073570D01*
X0034637Y0074112D01*
X0033220Y0074112D01*
X0031911Y0073570D01*
X0030909Y0072568D01*
X0030367Y0071259D01*
X0030367Y0069841D01*
X0030909Y0068532D01*
X0031911Y0067530D01*
X0033220Y0066988D01*
X0034637Y0066988D01*
X0035947Y0067530D01*
X0036949Y0068532D01*
X0037080Y0068850D01*
X0039729Y0068850D01*
X0039729Y0064376D01*
X0037080Y0064376D01*
X0036949Y0064694D01*
X0035947Y0065696D01*
X0034637Y0066238D01*
X0033220Y0066238D01*
X0031911Y0065696D01*
X0030909Y0064694D01*
X0030367Y0063385D01*
X0030367Y0061967D01*
X0030909Y0060658D01*
X0031911Y0059656D01*
X0033220Y0059114D01*
X0034637Y0059114D01*
X0035947Y0059656D01*
X0036949Y0060658D01*
X0037080Y0060976D01*
X0039729Y0060976D01*
X0039729Y0056502D01*
X0037080Y0056502D01*
X0036949Y0056820D01*
X0035947Y0057822D01*
X0034637Y0058364D01*
X0033220Y0058364D01*
X0031911Y0057822D01*
X0030909Y0056820D01*
X0030367Y0055511D01*
X0030367Y0054093D01*
X0030909Y0052784D01*
X0031911Y0051782D01*
X0033220Y0051240D01*
X0034637Y0051240D01*
X0035947Y0051782D01*
X0036949Y0052784D01*
X0037080Y0053102D01*
X0039729Y0053102D01*
X0039729Y0049846D01*
X0040179Y0049396D01*
X0040179Y0049300D01*
X0040275Y0049300D01*
X0040725Y0048850D01*
X0042876Y0048850D01*
X0042876Y0047297D01*
X0043579Y0046594D01*
X0048904Y0046594D01*
X0049607Y0047297D01*
X0049607Y0048850D01*
X0050750Y0048850D01*
X0050750Y0047297D01*
X0051453Y0046594D01*
X0056778Y0046594D01*
X0057481Y0047297D01*
X0057481Y0047874D01*
X0058211Y0047874D01*
X0059195Y0048281D01*
X0059764Y0048850D01*
X0070979Y0048850D01*
X0070979Y0047504D01*
X0048653Y0025179D01*
X0047787Y0024820D01*
X0046785Y0023818D01*
X0046243Y0022509D01*
X0046243Y0021091D01*
X0046785Y0019782D01*
X0047787Y0018780D01*
X0049096Y0018238D01*
X0050513Y0018238D01*
X0051823Y0018780D01*
X0052825Y0019782D01*
X0053367Y0021091D01*
X0053367Y0022509D01*
X0052825Y0023818D01*
X0052463Y0024180D01*
X0055979Y0027696D01*
X0055979Y0024952D01*
X0055661Y0024820D01*
X0054659Y0023818D01*
X0054117Y0022509D01*
X0054117Y0021091D01*
X0054659Y0019782D01*
X0055661Y0018780D01*
X0056970Y0018238D01*
X0058387Y0018238D01*
X0059697Y0018780D01*
X0060699Y0019782D01*
X0061241Y0021091D01*
X0061241Y0022509D01*
X0060699Y0023818D01*
X0059697Y0024820D01*
X0059379Y0024952D01*
X0059379Y0027159D01*
X0081070Y0048850D01*
X0090979Y0048850D01*
X0090979Y0011400D01*
X0022279Y0011400D01*
X0022279Y0011697D02*
X0090979Y0011697D01*
X0090979Y0012896D02*
X0022279Y0012896D01*
X0022279Y0014094D02*
X0090979Y0014094D01*
X0090979Y0015293D02*
X0022279Y0015293D01*
X0022279Y0016491D02*
X0090979Y0016491D01*
X0090979Y0017690D02*
X0022279Y0017690D01*
X0022279Y0018888D02*
X0031931Y0018888D01*
X0032039Y0018780D02*
X0033348Y0018238D01*
X0034765Y0018238D01*
X0036075Y0018780D01*
X0037077Y0019782D01*
X0037619Y0021091D01*
X0037619Y0022509D01*
X0037077Y0023818D01*
X0036075Y0024820D01*
X0034765Y0025362D01*
X0033348Y0025362D01*
X0032039Y0024820D01*
X0031037Y0023818D01*
X0030495Y0022509D01*
X0030495Y0021091D01*
X0031037Y0019782D01*
X0032039Y0018780D01*
X0030911Y0020087D02*
X0022279Y0020087D01*
X0022279Y0021285D02*
X0030495Y0021285D01*
X0030495Y0022484D02*
X0022279Y0022484D01*
X0022279Y0023682D02*
X0030981Y0023682D01*
X0032186Y0024881D02*
X0022279Y0024881D01*
X0022279Y0026079D02*
X0049554Y0026079D01*
X0050752Y0027278D02*
X0022279Y0027278D01*
X0022279Y0028476D02*
X0051951Y0028476D01*
X0053149Y0029675D02*
X0022279Y0029675D01*
X0022279Y0030873D02*
X0054348Y0030873D01*
X0055546Y0032072D02*
X0022279Y0032072D01*
X0022279Y0033270D02*
X0056745Y0033270D01*
X0057943Y0034469D02*
X0022279Y0034469D01*
X0022279Y0035667D02*
X0059142Y0035667D01*
X0060340Y0036866D02*
X0022279Y0036866D01*
X0022279Y0038064D02*
X0061539Y0038064D01*
X0062737Y0039263D02*
X0022279Y0039263D01*
X0022279Y0040461D02*
X0063936Y0040461D01*
X0065134Y0041660D02*
X0022279Y0041660D01*
X0022279Y0042858D02*
X0066333Y0042858D01*
X0067532Y0044057D02*
X0036095Y0044057D01*
X0035947Y0043908D02*
X0036949Y0044910D01*
X0037491Y0046219D01*
X0037491Y0047637D01*
X0036949Y0048946D01*
X0035947Y0049948D01*
X0034637Y0050490D01*
X0033220Y0050490D01*
X0031911Y0049948D01*
X0030909Y0048946D01*
X0030367Y0047637D01*
X0030367Y0046219D01*
X0030909Y0044910D01*
X0031911Y0043908D01*
X0033220Y0043366D01*
X0034637Y0043366D01*
X0035947Y0043908D01*
X0037092Y0045255D02*
X0068730Y0045255D01*
X0069929Y0046454D02*
X0037491Y0046454D01*
X0037484Y0047652D02*
X0042876Y0047652D01*
X0040724Y0048851D02*
X0036988Y0048851D01*
X0035702Y0050049D02*
X0039729Y0050049D01*
X0039729Y0051248D02*
X0034657Y0051248D01*
X0033201Y0051248D02*
X0022279Y0051248D01*
X0022279Y0052446D02*
X0031247Y0052446D01*
X0030552Y0053645D02*
X0022279Y0053645D01*
X0022279Y0054843D02*
X0030367Y0054843D01*
X0030587Y0056042D02*
X0022279Y0056042D01*
X0022279Y0057240D02*
X0031330Y0057240D01*
X0031956Y0059637D02*
X0022279Y0059637D01*
X0022279Y0058439D02*
X0039729Y0058439D01*
X0039729Y0059637D02*
X0035902Y0059637D01*
X0037022Y0060836D02*
X0039729Y0060836D01*
X0039729Y0064432D02*
X0037057Y0064432D01*
X0036012Y0065630D02*
X0039729Y0065630D01*
X0039729Y0066829D02*
X0022279Y0066829D01*
X0022279Y0068027D02*
X0031414Y0068027D01*
X0030622Y0069226D02*
X0022279Y0069226D01*
X0022279Y0070424D02*
X0030367Y0070424D01*
X0030517Y0071623D02*
X0022279Y0071623D01*
X0022279Y0072821D02*
X0031162Y0072821D01*
X0032997Y0074020D02*
X0022279Y0074020D01*
X0022279Y0075218D02*
X0032360Y0075218D01*
X0030905Y0076417D02*
X0022279Y0076417D01*
X0022279Y0077615D02*
X0030408Y0077615D01*
X0030367Y0078814D02*
X0022279Y0078814D01*
X0022279Y0080012D02*
X0030731Y0080012D01*
X0031678Y0081211D02*
X0022279Y0081211D01*
X0022279Y0082409D02*
X0039729Y0082409D01*
X0039729Y0081211D02*
X0036180Y0081211D01*
X0036276Y0083608D02*
X0039729Y0083608D01*
X0039729Y0088402D02*
X0036863Y0088402D01*
X0035265Y0089600D02*
X0039729Y0089600D01*
X0039729Y0090799D02*
X0036012Y0090799D01*
X0035806Y0090661D02*
X0036455Y0091094D01*
X0037006Y0091646D01*
X0037440Y0092295D01*
X0037739Y0093016D01*
X0037891Y0093782D01*
X0037891Y0093985D01*
X0034116Y0093985D01*
X0034116Y0094359D01*
X0037891Y0094359D01*
X0037891Y0094562D01*
X0037739Y0095328D01*
X0037440Y0096049D01*
X0037006Y0096698D01*
X0036455Y0097250D01*
X0035806Y0097683D01*
X0035085Y0097982D01*
X0034319Y0098134D01*
X0034116Y0098134D01*
X0034116Y0094360D01*
X0033741Y0094360D01*
X0033741Y0098134D01*
X0033539Y0098134D01*
X0032773Y0097982D01*
X0032052Y0097683D01*
X0031403Y0097250D01*
X0030851Y0096698D01*
X0030418Y0096049D01*
X0030119Y0095328D01*
X0029967Y0094562D01*
X0029967Y0094359D01*
X0033741Y0094359D01*
X0033741Y0093985D01*
X0029967Y0093985D01*
X0029967Y0093782D01*
X0030119Y0093016D01*
X0030418Y0092295D01*
X0030851Y0091646D01*
X0031403Y0091094D01*
X0032052Y0090661D01*
X0032773Y0090362D01*
X0033539Y0090210D01*
X0033741Y0090210D01*
X0033741Y0093985D01*
X0034116Y0093985D01*
X0034116Y0090210D01*
X0034319Y0090210D01*
X0035085Y0090362D01*
X0035806Y0090661D01*
X0034116Y0090799D02*
X0033741Y0090799D01*
X0033741Y0091997D02*
X0034116Y0091997D01*
X0034116Y0093196D02*
X0033741Y0093196D01*
X0033741Y0094394D02*
X0034116Y0094394D01*
X0034116Y0095593D02*
X0033741Y0095593D01*
X0033741Y0096791D02*
X0034116Y0096791D01*
X0034116Y0097990D02*
X0033741Y0097990D01*
X0032813Y0097990D02*
X0022279Y0097990D01*
X0022279Y0099188D02*
X0039729Y0099188D01*
X0039729Y0097990D02*
X0035045Y0097990D01*
X0036913Y0096791D02*
X0039729Y0096791D01*
X0039729Y0095593D02*
X0037629Y0095593D01*
X0037891Y0094394D02*
X0039729Y0094394D01*
X0039729Y0093196D02*
X0037774Y0093196D01*
X0037241Y0091997D02*
X0039729Y0091997D01*
X0039729Y0100387D02*
X0022279Y0100387D01*
X0022279Y0101585D02*
X0039729Y0101585D01*
X0039729Y0102784D02*
X0022279Y0102784D01*
X0022279Y0103982D02*
X0039729Y0103982D01*
X0039729Y0105181D02*
X0022279Y0105181D01*
X0022279Y0106379D02*
X0039729Y0106379D01*
X0039729Y0107578D02*
X0022279Y0107578D01*
X0022279Y0108776D02*
X0039729Y0108776D01*
X0039729Y0109975D02*
X0022279Y0109975D01*
X0022279Y0111173D02*
X0039729Y0111173D01*
X0039729Y0112372D02*
X0022279Y0112372D01*
X0022279Y0113570D02*
X0039729Y0113570D01*
X0039729Y0114769D02*
X0022279Y0114769D01*
X0022279Y0115968D02*
X0039729Y0115968D01*
X0039729Y0117166D02*
X0022279Y0117166D01*
X0022279Y0118365D02*
X0039729Y0118365D01*
X0040538Y0119563D02*
X0022279Y0119563D01*
X0022279Y0120762D02*
X0041736Y0120762D01*
X0042935Y0121960D02*
X0022279Y0121960D01*
X0022279Y0123159D02*
X0044133Y0123159D01*
X0045332Y0124357D02*
X0022279Y0124357D01*
X0022279Y0125556D02*
X0046530Y0125556D01*
X0047729Y0126754D02*
X0022279Y0126754D01*
X0022279Y0127953D02*
X0048927Y0127953D01*
X0050126Y0129151D02*
X0022279Y0129151D01*
X0022279Y0130350D02*
X0050979Y0130350D01*
X0050979Y0131548D02*
X0027679Y0131548D01*
X0027679Y0132747D02*
X0050979Y0132747D01*
X0050979Y0133945D02*
X0027679Y0133945D01*
X0027679Y0135144D02*
X0050979Y0135144D01*
X0050979Y0136342D02*
X0027679Y0136342D01*
X0029213Y0137541D02*
X0044755Y0137541D01*
X0044709Y0137553D02*
X0045116Y0137444D01*
X0047009Y0137444D01*
X0047009Y0141317D01*
X0043726Y0141317D01*
X0043726Y0138833D01*
X0043836Y0138427D01*
X0044046Y0138062D01*
X0044344Y0137764D01*
X0044709Y0137553D01*
X0043752Y0138739D02*
X0029213Y0138739D01*
X0029213Y0139938D02*
X0031900Y0139938D01*
X0031727Y0139984D02*
X0032134Y0139875D01*
X0034716Y0139875D01*
X0034716Y0142863D01*
X0030744Y0142863D01*
X0030744Y0141265D01*
X0030853Y0140858D01*
X0031064Y0140493D01*
X0031362Y0140195D01*
X0031727Y0139984D01*
X0030779Y0141136D02*
X0029213Y0141136D01*
X0029104Y0142335D02*
X0030744Y0142335D01*
X0030744Y0143237D02*
X0030744Y0144835D01*
X0030853Y0145242D01*
X0031064Y0145607D01*
X0031362Y0145905D01*
X0031727Y0146116D01*
X0032134Y0146225D01*
X0034716Y0146225D01*
X0034716Y0143237D01*
X0034716Y0142863D01*
X0035091Y0142863D01*
X0035091Y0143237D01*
X0039062Y0143237D01*
X0039062Y0144835D01*
X0038953Y0145242D01*
X0038743Y0145607D01*
X0038445Y0145905D01*
X0038080Y0146116D01*
X0037673Y0146225D01*
X0035091Y0146225D01*
X0035091Y0143237D01*
X0034716Y0143237D01*
X0030744Y0143237D01*
X0030744Y0143533D02*
X0028481Y0143533D01*
X0029213Y0144732D02*
X0030744Y0144732D01*
X0031405Y0145930D02*
X0029213Y0145930D01*
X0029213Y0147129D02*
X0043530Y0147129D01*
X0043530Y0148327D02*
X0029213Y0148327D01*
X0028550Y0149526D02*
X0047089Y0149526D01*
X0047089Y0150724D02*
X0048289Y0150724D01*
X0048289Y0151923D02*
X0047089Y0151923D01*
X0047089Y0153121D02*
X0048289Y0153121D01*
X0051429Y0154320D02*
X0036641Y0154320D01*
X0036641Y0154585D02*
X0033260Y0154585D01*
X0033260Y0151204D01*
X0035252Y0151204D01*
X0035659Y0151313D01*
X0036023Y0151524D01*
X0036321Y0151822D01*
X0036532Y0152186D01*
X0036641Y0152593D01*
X0036641Y0154585D01*
X0036641Y0153121D02*
X0043784Y0153121D01*
X0043530Y0151923D02*
X0036380Y0151923D01*
X0033260Y0151923D02*
X0032098Y0151923D01*
X0032098Y0153121D02*
X0033260Y0153121D01*
X0033260Y0154320D02*
X0032098Y0154320D01*
X0033260Y0155518D02*
X0051429Y0155518D01*
X0051164Y0156717D02*
X0036641Y0156717D01*
X0036594Y0157915D02*
X0051405Y0157915D01*
X0051429Y0159114D02*
X0035306Y0159114D01*
X0035979Y0160312D02*
X0051429Y0160312D01*
X0051429Y0161511D02*
X0036241Y0161511D01*
X0036241Y0162709D02*
X0051429Y0162709D01*
X0043530Y0150724D02*
X0027679Y0150724D01*
X0027679Y0151923D02*
X0028978Y0151923D01*
X0032098Y0156717D02*
X0033260Y0156717D01*
X0033260Y0157915D02*
X0032098Y0157915D01*
X0032098Y0159114D02*
X0033260Y0159114D01*
X0034716Y0145930D02*
X0035091Y0145930D01*
X0035091Y0144732D02*
X0034716Y0144732D01*
X0034716Y0143533D02*
X0035091Y0143533D01*
X0035091Y0142863D02*
X0039062Y0142863D01*
X0039062Y0141265D01*
X0038953Y0140858D01*
X0038743Y0140493D01*
X0038445Y0140195D01*
X0038080Y0139984D01*
X0037673Y0139875D01*
X0035091Y0139875D01*
X0035091Y0142863D01*
X0035091Y0142335D02*
X0034716Y0142335D01*
X0034716Y0141136D02*
X0035091Y0141136D01*
X0035091Y0139938D02*
X0034716Y0139938D01*
X0037906Y0139938D02*
X0043726Y0139938D01*
X0043726Y0141136D02*
X0039028Y0141136D01*
X0039062Y0142335D02*
X0043726Y0142335D01*
X0043726Y0143533D02*
X0039062Y0143533D01*
X0039062Y0144732D02*
X0043726Y0144732D01*
X0043585Y0145930D02*
X0038401Y0145930D01*
X0047089Y0145930D02*
X0047975Y0145930D01*
X0047975Y0144732D02*
X0047009Y0144732D01*
X0047009Y0143533D02*
X0047975Y0143533D01*
X0047975Y0142335D02*
X0047009Y0142335D01*
X0047009Y0141136D02*
X0047975Y0141136D01*
X0047975Y0139938D02*
X0047009Y0139938D01*
X0047009Y0138739D02*
X0047975Y0138739D01*
X0047975Y0137541D02*
X0047009Y0137541D01*
X0050228Y0137541D02*
X0050979Y0137541D01*
X0048289Y0147129D02*
X0047089Y0147129D01*
X0047089Y0148327D02*
X0048289Y0148327D01*
X0056429Y0125363D02*
X0056429Y0121800D01*
X0031846Y0090799D02*
X0022279Y0090799D01*
X0022279Y0091997D02*
X0030617Y0091997D01*
X0030083Y0093196D02*
X0022279Y0093196D01*
X0022279Y0094394D02*
X0029967Y0094394D01*
X0030229Y0095593D02*
X0022279Y0095593D01*
X0022279Y0096791D02*
X0030945Y0096791D01*
X0032593Y0089600D02*
X0022279Y0089600D01*
X0022279Y0088402D02*
X0030995Y0088402D01*
X0030448Y0087203D02*
X0022279Y0087203D01*
X0022279Y0086005D02*
X0030367Y0086005D01*
X0030691Y0084806D02*
X0022279Y0084806D01*
X0022279Y0083608D02*
X0031581Y0083608D01*
X0036953Y0076417D02*
X0039729Y0076417D01*
X0039729Y0075218D02*
X0035498Y0075218D01*
X0034861Y0074020D02*
X0039729Y0074020D01*
X0039729Y0072821D02*
X0036695Y0072821D01*
X0036444Y0068027D02*
X0039729Y0068027D01*
X0031845Y0065630D02*
X0022279Y0065630D01*
X0022279Y0064432D02*
X0030800Y0064432D01*
X0030367Y0063233D02*
X0022279Y0063233D01*
X0022279Y0062034D02*
X0030367Y0062034D01*
X0030835Y0060836D02*
X0022279Y0060836D01*
X0022279Y0050049D02*
X0032156Y0050049D01*
X0030870Y0048851D02*
X0022279Y0048851D01*
X0022279Y0047652D02*
X0030373Y0047652D01*
X0030367Y0046454D02*
X0022279Y0046454D01*
X0022279Y0045255D02*
X0030766Y0045255D01*
X0031762Y0044057D02*
X0022279Y0044057D01*
X0036611Y0052446D02*
X0039729Y0052446D01*
X0039729Y0057240D02*
X0036528Y0057240D01*
X0049607Y0047652D02*
X0050750Y0047652D01*
X0057481Y0047652D02*
X0070979Y0047652D01*
X0075078Y0042858D02*
X0090979Y0042858D01*
X0090979Y0041660D02*
X0073880Y0041660D01*
X0072681Y0040461D02*
X0090979Y0040461D01*
X0090979Y0039263D02*
X0071483Y0039263D01*
X0070284Y0038064D02*
X0090979Y0038064D01*
X0090979Y0036866D02*
X0069086Y0036866D01*
X0067887Y0035667D02*
X0090979Y0035667D01*
X0090979Y0034469D02*
X0066689Y0034469D01*
X0065490Y0033270D02*
X0090979Y0033270D01*
X0090979Y0032072D02*
X0064292Y0032072D01*
X0063093Y0030873D02*
X0090979Y0030873D01*
X0090979Y0029675D02*
X0061895Y0029675D01*
X0060696Y0028476D02*
X0090979Y0028476D01*
X0090979Y0027278D02*
X0059498Y0027278D01*
X0059379Y0026079D02*
X0090979Y0026079D01*
X0090979Y0024881D02*
X0083172Y0024881D01*
X0083319Y0024820D02*
X0082009Y0025362D01*
X0080592Y0025362D01*
X0079283Y0024820D01*
X0078281Y0023818D01*
X0077739Y0022509D01*
X0077739Y0021091D01*
X0078281Y0019782D01*
X0079283Y0018780D01*
X0080592Y0018238D01*
X0082009Y0018238D01*
X0083319Y0018780D01*
X0084321Y0019782D01*
X0084863Y0021091D01*
X0084863Y0022509D01*
X0084321Y0023818D01*
X0083319Y0024820D01*
X0084377Y0023682D02*
X0090979Y0023682D01*
X0090979Y0022484D02*
X0084863Y0022484D01*
X0084863Y0021285D02*
X0090979Y0021285D01*
X0090979Y0020087D02*
X0084447Y0020087D01*
X0083427Y0018888D02*
X0090979Y0018888D01*
X0079175Y0018888D02*
X0075553Y0018888D01*
X0075445Y0018780D02*
X0076447Y0019782D01*
X0076989Y0021091D01*
X0076989Y0022509D01*
X0076447Y0023818D01*
X0075445Y0024820D01*
X0074135Y0025362D01*
X0072718Y0025362D01*
X0071409Y0024820D01*
X0070407Y0023818D01*
X0069865Y0022509D01*
X0069865Y0021091D01*
X0070407Y0019782D01*
X0071409Y0018780D01*
X0072718Y0018238D01*
X0074135Y0018238D01*
X0075445Y0018780D01*
X0076573Y0020087D02*
X0078155Y0020087D01*
X0077739Y0021285D02*
X0076989Y0021285D01*
X0076989Y0022484D02*
X0077739Y0022484D01*
X0078225Y0023682D02*
X0076503Y0023682D01*
X0075298Y0024881D02*
X0079430Y0024881D01*
X0071556Y0024881D02*
X0067424Y0024881D01*
X0067571Y0024820D02*
X0066261Y0025362D01*
X0064844Y0025362D01*
X0063535Y0024820D01*
X0062533Y0023818D01*
X0061991Y0022509D01*
X0061991Y0021091D01*
X0062533Y0019782D01*
X0063535Y0018780D01*
X0064844Y0018238D01*
X0066261Y0018238D01*
X0067571Y0018780D01*
X0068573Y0019782D01*
X0069115Y0021091D01*
X0069115Y0022509D01*
X0068573Y0023818D01*
X0067571Y0024820D01*
X0068629Y0023682D02*
X0070351Y0023682D01*
X0069865Y0022484D02*
X0069115Y0022484D01*
X0069115Y0021285D02*
X0069865Y0021285D01*
X0070281Y0020087D02*
X0068699Y0020087D01*
X0067679Y0018888D02*
X0071301Y0018888D01*
X0063427Y0018888D02*
X0059805Y0018888D01*
X0060825Y0020087D02*
X0062407Y0020087D01*
X0061991Y0021285D02*
X0061241Y0021285D01*
X0061241Y0022484D02*
X0061991Y0022484D01*
X0062477Y0023682D02*
X0060755Y0023682D01*
X0059550Y0024881D02*
X0063682Y0024881D01*
X0055979Y0026079D02*
X0054362Y0026079D01*
X0053164Y0024881D02*
X0055808Y0024881D01*
X0054603Y0023682D02*
X0052881Y0023682D01*
X0053367Y0022484D02*
X0054117Y0022484D01*
X0054117Y0021285D02*
X0053367Y0021285D01*
X0052951Y0020087D02*
X0054533Y0020087D01*
X0055553Y0018888D02*
X0051931Y0018888D01*
X0047679Y0018888D02*
X0044622Y0018888D01*
X0044457Y0018722D02*
X0045008Y0019274D01*
X0045442Y0019923D01*
X0045741Y0020644D01*
X0045893Y0021410D01*
X0045893Y0021613D01*
X0042118Y0021613D01*
X0042118Y0021987D01*
X0045893Y0021987D01*
X0045893Y0022190D01*
X0045741Y0022956D01*
X0045442Y0023677D01*
X0045008Y0024326D01*
X0044457Y0024878D01*
X0043808Y0025311D01*
X0043087Y0025610D01*
X0042321Y0025762D01*
X0042118Y0025762D01*
X0042118Y0021987D01*
X0041743Y0021987D01*
X0041743Y0021613D01*
X0037969Y0021613D01*
X0037969Y0021410D01*
X0038121Y0020644D01*
X0038420Y0019923D01*
X0038853Y0019274D01*
X0039405Y0018722D01*
X0040054Y0018289D01*
X0040775Y0017990D01*
X0041541Y0017838D01*
X0041743Y0017838D01*
X0041743Y0021613D01*
X0042118Y0021613D01*
X0042118Y0017838D01*
X0042321Y0017838D01*
X0043087Y0017990D01*
X0043808Y0018289D01*
X0044457Y0018722D01*
X0045510Y0020087D02*
X0046659Y0020087D01*
X0046243Y0021285D02*
X0045868Y0021285D01*
X0045835Y0022484D02*
X0046243Y0022484D01*
X0046729Y0023682D02*
X0045438Y0023682D01*
X0044452Y0024881D02*
X0047934Y0024881D01*
X0042118Y0024881D02*
X0041743Y0024881D01*
X0041743Y0025762D02*
X0041541Y0025762D01*
X0040775Y0025610D01*
X0040054Y0025311D01*
X0039405Y0024878D01*
X0038853Y0024326D01*
X0038420Y0023677D01*
X0038121Y0022956D01*
X0037969Y0022190D01*
X0037969Y0021987D01*
X0041743Y0021987D01*
X0041743Y0025762D01*
X0041743Y0023682D02*
X0042118Y0023682D01*
X0042118Y0022484D02*
X0041743Y0022484D01*
X0041743Y0021285D02*
X0042118Y0021285D01*
X0042118Y0020087D02*
X0041743Y0020087D01*
X0041743Y0018888D02*
X0042118Y0018888D01*
X0039239Y0018888D02*
X0036183Y0018888D01*
X0037203Y0020087D02*
X0038352Y0020087D01*
X0037993Y0021285D02*
X0037619Y0021285D01*
X0037619Y0022484D02*
X0038027Y0022484D01*
X0038423Y0023682D02*
X0037133Y0023682D01*
X0035928Y0024881D02*
X0039410Y0024881D01*
X0055561Y0027278D02*
X0055979Y0027278D01*
X0076277Y0044057D02*
X0090979Y0044057D01*
X0090979Y0045255D02*
X0077475Y0045255D01*
X0078674Y0046454D02*
X0090979Y0046454D01*
X0090979Y0047652D02*
X0079872Y0047652D01*
X0080179Y0071800D02*
X0086439Y0071800D01*
X0158929Y0041564D02*
X0159933Y0041564D01*
X0166429Y0048060D01*
X0165425Y0048060D01*
X0077679Y0180550D02*
X0071429Y0186800D01*
X0064116Y0186800D01*
M02*
