G75*
%MOIN*%
%OFA0B0*%
%FSLAX25Y25*%
%IPPOS*%
%LPD*%
%AMOC8*
5,1,8,0,0,1.08239X$1,22.5*
%
%ADD10C,0.00000*%
%ADD11C,0.00040*%
%ADD12R,0.00787X0.00787*%
%ADD13R,0.00984X0.00591*%
%ADD14C,0.00300*%
%ADD15R,0.00591X0.01181*%
%ADD16R,0.01181X0.01181*%
%ADD17C,0.00500*%
%ADD18R,0.05512X0.02559*%
%ADD19R,0.02559X0.05512*%
%ADD20C,0.00600*%
%ADD21C,0.00100*%
D10*
X0020179Y0009300D02*
X0020179Y0339261D01*
X0200130Y0339261D01*
X0200130Y0009300D01*
X0020179Y0009300D01*
X0056429Y0103050D02*
X0056431Y0103234D01*
X0056438Y0103418D01*
X0056449Y0103602D01*
X0056465Y0103785D01*
X0056485Y0103968D01*
X0056510Y0104150D01*
X0056539Y0104332D01*
X0056573Y0104513D01*
X0056611Y0104693D01*
X0056654Y0104872D01*
X0056701Y0105050D01*
X0056752Y0105227D01*
X0056808Y0105403D01*
X0056867Y0105577D01*
X0056932Y0105749D01*
X0057000Y0105920D01*
X0057072Y0106089D01*
X0057149Y0106257D01*
X0057230Y0106422D01*
X0057315Y0106585D01*
X0057403Y0106747D01*
X0057496Y0106906D01*
X0057593Y0107062D01*
X0057693Y0107217D01*
X0057797Y0107369D01*
X0057905Y0107518D01*
X0058016Y0107664D01*
X0058131Y0107808D01*
X0058250Y0107949D01*
X0058372Y0108087D01*
X0058497Y0108222D01*
X0058626Y0108353D01*
X0058757Y0108482D01*
X0058892Y0108607D01*
X0059030Y0108729D01*
X0059171Y0108848D01*
X0059315Y0108963D01*
X0059461Y0109074D01*
X0059610Y0109182D01*
X0059762Y0109286D01*
X0059917Y0109386D01*
X0060073Y0109483D01*
X0060232Y0109576D01*
X0060394Y0109664D01*
X0060557Y0109749D01*
X0060722Y0109830D01*
X0060890Y0109907D01*
X0061059Y0109979D01*
X0061230Y0110047D01*
X0061402Y0110112D01*
X0061576Y0110171D01*
X0061752Y0110227D01*
X0061929Y0110278D01*
X0062107Y0110325D01*
X0062286Y0110368D01*
X0062466Y0110406D01*
X0062647Y0110440D01*
X0062829Y0110469D01*
X0063011Y0110494D01*
X0063194Y0110514D01*
X0063377Y0110530D01*
X0063561Y0110541D01*
X0063745Y0110548D01*
X0063929Y0110550D01*
X0064113Y0110548D01*
X0064297Y0110541D01*
X0064481Y0110530D01*
X0064664Y0110514D01*
X0064847Y0110494D01*
X0065029Y0110469D01*
X0065211Y0110440D01*
X0065392Y0110406D01*
X0065572Y0110368D01*
X0065751Y0110325D01*
X0065929Y0110278D01*
X0066106Y0110227D01*
X0066282Y0110171D01*
X0066456Y0110112D01*
X0066628Y0110047D01*
X0066799Y0109979D01*
X0066968Y0109907D01*
X0067136Y0109830D01*
X0067301Y0109749D01*
X0067464Y0109664D01*
X0067626Y0109576D01*
X0067785Y0109483D01*
X0067941Y0109386D01*
X0068096Y0109286D01*
X0068248Y0109182D01*
X0068397Y0109074D01*
X0068543Y0108963D01*
X0068687Y0108848D01*
X0068828Y0108729D01*
X0068966Y0108607D01*
X0069101Y0108482D01*
X0069232Y0108353D01*
X0069361Y0108222D01*
X0069486Y0108087D01*
X0069608Y0107949D01*
X0069727Y0107808D01*
X0069842Y0107664D01*
X0069953Y0107518D01*
X0070061Y0107369D01*
X0070165Y0107217D01*
X0070265Y0107062D01*
X0070362Y0106906D01*
X0070455Y0106747D01*
X0070543Y0106585D01*
X0070628Y0106422D01*
X0070709Y0106257D01*
X0070786Y0106089D01*
X0070858Y0105920D01*
X0070926Y0105749D01*
X0070991Y0105577D01*
X0071050Y0105403D01*
X0071106Y0105227D01*
X0071157Y0105050D01*
X0071204Y0104872D01*
X0071247Y0104693D01*
X0071285Y0104513D01*
X0071319Y0104332D01*
X0071348Y0104150D01*
X0071373Y0103968D01*
X0071393Y0103785D01*
X0071409Y0103602D01*
X0071420Y0103418D01*
X0071427Y0103234D01*
X0071429Y0103050D01*
X0071427Y0102866D01*
X0071420Y0102682D01*
X0071409Y0102498D01*
X0071393Y0102315D01*
X0071373Y0102132D01*
X0071348Y0101950D01*
X0071319Y0101768D01*
X0071285Y0101587D01*
X0071247Y0101407D01*
X0071204Y0101228D01*
X0071157Y0101050D01*
X0071106Y0100873D01*
X0071050Y0100697D01*
X0070991Y0100523D01*
X0070926Y0100351D01*
X0070858Y0100180D01*
X0070786Y0100011D01*
X0070709Y0099843D01*
X0070628Y0099678D01*
X0070543Y0099515D01*
X0070455Y0099353D01*
X0070362Y0099194D01*
X0070265Y0099038D01*
X0070165Y0098883D01*
X0070061Y0098731D01*
X0069953Y0098582D01*
X0069842Y0098436D01*
X0069727Y0098292D01*
X0069608Y0098151D01*
X0069486Y0098013D01*
X0069361Y0097878D01*
X0069232Y0097747D01*
X0069101Y0097618D01*
X0068966Y0097493D01*
X0068828Y0097371D01*
X0068687Y0097252D01*
X0068543Y0097137D01*
X0068397Y0097026D01*
X0068248Y0096918D01*
X0068096Y0096814D01*
X0067941Y0096714D01*
X0067785Y0096617D01*
X0067626Y0096524D01*
X0067464Y0096436D01*
X0067301Y0096351D01*
X0067136Y0096270D01*
X0066968Y0096193D01*
X0066799Y0096121D01*
X0066628Y0096053D01*
X0066456Y0095988D01*
X0066282Y0095929D01*
X0066106Y0095873D01*
X0065929Y0095822D01*
X0065751Y0095775D01*
X0065572Y0095732D01*
X0065392Y0095694D01*
X0065211Y0095660D01*
X0065029Y0095631D01*
X0064847Y0095606D01*
X0064664Y0095586D01*
X0064481Y0095570D01*
X0064297Y0095559D01*
X0064113Y0095552D01*
X0063929Y0095550D01*
X0063745Y0095552D01*
X0063561Y0095559D01*
X0063377Y0095570D01*
X0063194Y0095586D01*
X0063011Y0095606D01*
X0062829Y0095631D01*
X0062647Y0095660D01*
X0062466Y0095694D01*
X0062286Y0095732D01*
X0062107Y0095775D01*
X0061929Y0095822D01*
X0061752Y0095873D01*
X0061576Y0095929D01*
X0061402Y0095988D01*
X0061230Y0096053D01*
X0061059Y0096121D01*
X0060890Y0096193D01*
X0060722Y0096270D01*
X0060557Y0096351D01*
X0060394Y0096436D01*
X0060232Y0096524D01*
X0060073Y0096617D01*
X0059917Y0096714D01*
X0059762Y0096814D01*
X0059610Y0096918D01*
X0059461Y0097026D01*
X0059315Y0097137D01*
X0059171Y0097252D01*
X0059030Y0097371D01*
X0058892Y0097493D01*
X0058757Y0097618D01*
X0058626Y0097747D01*
X0058497Y0097878D01*
X0058372Y0098013D01*
X0058250Y0098151D01*
X0058131Y0098292D01*
X0058016Y0098436D01*
X0057905Y0098582D01*
X0057797Y0098731D01*
X0057693Y0098883D01*
X0057593Y0099038D01*
X0057496Y0099194D01*
X0057403Y0099353D01*
X0057315Y0099515D01*
X0057230Y0099678D01*
X0057149Y0099843D01*
X0057072Y0100011D01*
X0057000Y0100180D01*
X0056932Y0100351D01*
X0056867Y0100523D01*
X0056808Y0100697D01*
X0056752Y0100873D01*
X0056701Y0101050D01*
X0056654Y0101228D01*
X0056611Y0101407D01*
X0056573Y0101587D01*
X0056539Y0101768D01*
X0056510Y0101950D01*
X0056485Y0102132D01*
X0056465Y0102315D01*
X0056449Y0102498D01*
X0056438Y0102682D01*
X0056431Y0102866D01*
X0056429Y0103050D01*
X0025179Y0235550D02*
X0025181Y0235734D01*
X0025188Y0235918D01*
X0025199Y0236102D01*
X0025215Y0236285D01*
X0025235Y0236468D01*
X0025260Y0236650D01*
X0025289Y0236832D01*
X0025323Y0237013D01*
X0025361Y0237193D01*
X0025404Y0237372D01*
X0025451Y0237550D01*
X0025502Y0237727D01*
X0025558Y0237903D01*
X0025617Y0238077D01*
X0025682Y0238249D01*
X0025750Y0238420D01*
X0025822Y0238589D01*
X0025899Y0238757D01*
X0025980Y0238922D01*
X0026065Y0239085D01*
X0026153Y0239247D01*
X0026246Y0239406D01*
X0026343Y0239562D01*
X0026443Y0239717D01*
X0026547Y0239869D01*
X0026655Y0240018D01*
X0026766Y0240164D01*
X0026881Y0240308D01*
X0027000Y0240449D01*
X0027122Y0240587D01*
X0027247Y0240722D01*
X0027376Y0240853D01*
X0027507Y0240982D01*
X0027642Y0241107D01*
X0027780Y0241229D01*
X0027921Y0241348D01*
X0028065Y0241463D01*
X0028211Y0241574D01*
X0028360Y0241682D01*
X0028512Y0241786D01*
X0028667Y0241886D01*
X0028823Y0241983D01*
X0028982Y0242076D01*
X0029144Y0242164D01*
X0029307Y0242249D01*
X0029472Y0242330D01*
X0029640Y0242407D01*
X0029809Y0242479D01*
X0029980Y0242547D01*
X0030152Y0242612D01*
X0030326Y0242671D01*
X0030502Y0242727D01*
X0030679Y0242778D01*
X0030857Y0242825D01*
X0031036Y0242868D01*
X0031216Y0242906D01*
X0031397Y0242940D01*
X0031579Y0242969D01*
X0031761Y0242994D01*
X0031944Y0243014D01*
X0032127Y0243030D01*
X0032311Y0243041D01*
X0032495Y0243048D01*
X0032679Y0243050D01*
X0032863Y0243048D01*
X0033047Y0243041D01*
X0033231Y0243030D01*
X0033414Y0243014D01*
X0033597Y0242994D01*
X0033779Y0242969D01*
X0033961Y0242940D01*
X0034142Y0242906D01*
X0034322Y0242868D01*
X0034501Y0242825D01*
X0034679Y0242778D01*
X0034856Y0242727D01*
X0035032Y0242671D01*
X0035206Y0242612D01*
X0035378Y0242547D01*
X0035549Y0242479D01*
X0035718Y0242407D01*
X0035886Y0242330D01*
X0036051Y0242249D01*
X0036214Y0242164D01*
X0036376Y0242076D01*
X0036535Y0241983D01*
X0036691Y0241886D01*
X0036846Y0241786D01*
X0036998Y0241682D01*
X0037147Y0241574D01*
X0037293Y0241463D01*
X0037437Y0241348D01*
X0037578Y0241229D01*
X0037716Y0241107D01*
X0037851Y0240982D01*
X0037982Y0240853D01*
X0038111Y0240722D01*
X0038236Y0240587D01*
X0038358Y0240449D01*
X0038477Y0240308D01*
X0038592Y0240164D01*
X0038703Y0240018D01*
X0038811Y0239869D01*
X0038915Y0239717D01*
X0039015Y0239562D01*
X0039112Y0239406D01*
X0039205Y0239247D01*
X0039293Y0239085D01*
X0039378Y0238922D01*
X0039459Y0238757D01*
X0039536Y0238589D01*
X0039608Y0238420D01*
X0039676Y0238249D01*
X0039741Y0238077D01*
X0039800Y0237903D01*
X0039856Y0237727D01*
X0039907Y0237550D01*
X0039954Y0237372D01*
X0039997Y0237193D01*
X0040035Y0237013D01*
X0040069Y0236832D01*
X0040098Y0236650D01*
X0040123Y0236468D01*
X0040143Y0236285D01*
X0040159Y0236102D01*
X0040170Y0235918D01*
X0040177Y0235734D01*
X0040179Y0235550D01*
X0040177Y0235366D01*
X0040170Y0235182D01*
X0040159Y0234998D01*
X0040143Y0234815D01*
X0040123Y0234632D01*
X0040098Y0234450D01*
X0040069Y0234268D01*
X0040035Y0234087D01*
X0039997Y0233907D01*
X0039954Y0233728D01*
X0039907Y0233550D01*
X0039856Y0233373D01*
X0039800Y0233197D01*
X0039741Y0233023D01*
X0039676Y0232851D01*
X0039608Y0232680D01*
X0039536Y0232511D01*
X0039459Y0232343D01*
X0039378Y0232178D01*
X0039293Y0232015D01*
X0039205Y0231853D01*
X0039112Y0231694D01*
X0039015Y0231538D01*
X0038915Y0231383D01*
X0038811Y0231231D01*
X0038703Y0231082D01*
X0038592Y0230936D01*
X0038477Y0230792D01*
X0038358Y0230651D01*
X0038236Y0230513D01*
X0038111Y0230378D01*
X0037982Y0230247D01*
X0037851Y0230118D01*
X0037716Y0229993D01*
X0037578Y0229871D01*
X0037437Y0229752D01*
X0037293Y0229637D01*
X0037147Y0229526D01*
X0036998Y0229418D01*
X0036846Y0229314D01*
X0036691Y0229214D01*
X0036535Y0229117D01*
X0036376Y0229024D01*
X0036214Y0228936D01*
X0036051Y0228851D01*
X0035886Y0228770D01*
X0035718Y0228693D01*
X0035549Y0228621D01*
X0035378Y0228553D01*
X0035206Y0228488D01*
X0035032Y0228429D01*
X0034856Y0228373D01*
X0034679Y0228322D01*
X0034501Y0228275D01*
X0034322Y0228232D01*
X0034142Y0228194D01*
X0033961Y0228160D01*
X0033779Y0228131D01*
X0033597Y0228106D01*
X0033414Y0228086D01*
X0033231Y0228070D01*
X0033047Y0228059D01*
X0032863Y0228052D01*
X0032679Y0228050D01*
X0032495Y0228052D01*
X0032311Y0228059D01*
X0032127Y0228070D01*
X0031944Y0228086D01*
X0031761Y0228106D01*
X0031579Y0228131D01*
X0031397Y0228160D01*
X0031216Y0228194D01*
X0031036Y0228232D01*
X0030857Y0228275D01*
X0030679Y0228322D01*
X0030502Y0228373D01*
X0030326Y0228429D01*
X0030152Y0228488D01*
X0029980Y0228553D01*
X0029809Y0228621D01*
X0029640Y0228693D01*
X0029472Y0228770D01*
X0029307Y0228851D01*
X0029144Y0228936D01*
X0028982Y0229024D01*
X0028823Y0229117D01*
X0028667Y0229214D01*
X0028512Y0229314D01*
X0028360Y0229418D01*
X0028211Y0229526D01*
X0028065Y0229637D01*
X0027921Y0229752D01*
X0027780Y0229871D01*
X0027642Y0229993D01*
X0027507Y0230118D01*
X0027376Y0230247D01*
X0027247Y0230378D01*
X0027122Y0230513D01*
X0027000Y0230651D01*
X0026881Y0230792D01*
X0026766Y0230936D01*
X0026655Y0231082D01*
X0026547Y0231231D01*
X0026443Y0231383D01*
X0026343Y0231538D01*
X0026246Y0231694D01*
X0026153Y0231853D01*
X0026065Y0232015D01*
X0025980Y0232178D01*
X0025899Y0232343D01*
X0025822Y0232511D01*
X0025750Y0232680D01*
X0025682Y0232851D01*
X0025617Y0233023D01*
X0025558Y0233197D01*
X0025502Y0233373D01*
X0025451Y0233550D01*
X0025404Y0233728D01*
X0025361Y0233907D01*
X0025323Y0234087D01*
X0025289Y0234268D01*
X0025260Y0234450D01*
X0025235Y0234632D01*
X0025215Y0234815D01*
X0025199Y0234998D01*
X0025188Y0235182D01*
X0025181Y0235366D01*
X0025179Y0235550D01*
X0171429Y0235550D02*
X0171431Y0235734D01*
X0171438Y0235918D01*
X0171449Y0236102D01*
X0171465Y0236285D01*
X0171485Y0236468D01*
X0171510Y0236650D01*
X0171539Y0236832D01*
X0171573Y0237013D01*
X0171611Y0237193D01*
X0171654Y0237372D01*
X0171701Y0237550D01*
X0171752Y0237727D01*
X0171808Y0237903D01*
X0171867Y0238077D01*
X0171932Y0238249D01*
X0172000Y0238420D01*
X0172072Y0238589D01*
X0172149Y0238757D01*
X0172230Y0238922D01*
X0172315Y0239085D01*
X0172403Y0239247D01*
X0172496Y0239406D01*
X0172593Y0239562D01*
X0172693Y0239717D01*
X0172797Y0239869D01*
X0172905Y0240018D01*
X0173016Y0240164D01*
X0173131Y0240308D01*
X0173250Y0240449D01*
X0173372Y0240587D01*
X0173497Y0240722D01*
X0173626Y0240853D01*
X0173757Y0240982D01*
X0173892Y0241107D01*
X0174030Y0241229D01*
X0174171Y0241348D01*
X0174315Y0241463D01*
X0174461Y0241574D01*
X0174610Y0241682D01*
X0174762Y0241786D01*
X0174917Y0241886D01*
X0175073Y0241983D01*
X0175232Y0242076D01*
X0175394Y0242164D01*
X0175557Y0242249D01*
X0175722Y0242330D01*
X0175890Y0242407D01*
X0176059Y0242479D01*
X0176230Y0242547D01*
X0176402Y0242612D01*
X0176576Y0242671D01*
X0176752Y0242727D01*
X0176929Y0242778D01*
X0177107Y0242825D01*
X0177286Y0242868D01*
X0177466Y0242906D01*
X0177647Y0242940D01*
X0177829Y0242969D01*
X0178011Y0242994D01*
X0178194Y0243014D01*
X0178377Y0243030D01*
X0178561Y0243041D01*
X0178745Y0243048D01*
X0178929Y0243050D01*
X0179113Y0243048D01*
X0179297Y0243041D01*
X0179481Y0243030D01*
X0179664Y0243014D01*
X0179847Y0242994D01*
X0180029Y0242969D01*
X0180211Y0242940D01*
X0180392Y0242906D01*
X0180572Y0242868D01*
X0180751Y0242825D01*
X0180929Y0242778D01*
X0181106Y0242727D01*
X0181282Y0242671D01*
X0181456Y0242612D01*
X0181628Y0242547D01*
X0181799Y0242479D01*
X0181968Y0242407D01*
X0182136Y0242330D01*
X0182301Y0242249D01*
X0182464Y0242164D01*
X0182626Y0242076D01*
X0182785Y0241983D01*
X0182941Y0241886D01*
X0183096Y0241786D01*
X0183248Y0241682D01*
X0183397Y0241574D01*
X0183543Y0241463D01*
X0183687Y0241348D01*
X0183828Y0241229D01*
X0183966Y0241107D01*
X0184101Y0240982D01*
X0184232Y0240853D01*
X0184361Y0240722D01*
X0184486Y0240587D01*
X0184608Y0240449D01*
X0184727Y0240308D01*
X0184842Y0240164D01*
X0184953Y0240018D01*
X0185061Y0239869D01*
X0185165Y0239717D01*
X0185265Y0239562D01*
X0185362Y0239406D01*
X0185455Y0239247D01*
X0185543Y0239085D01*
X0185628Y0238922D01*
X0185709Y0238757D01*
X0185786Y0238589D01*
X0185858Y0238420D01*
X0185926Y0238249D01*
X0185991Y0238077D01*
X0186050Y0237903D01*
X0186106Y0237727D01*
X0186157Y0237550D01*
X0186204Y0237372D01*
X0186247Y0237193D01*
X0186285Y0237013D01*
X0186319Y0236832D01*
X0186348Y0236650D01*
X0186373Y0236468D01*
X0186393Y0236285D01*
X0186409Y0236102D01*
X0186420Y0235918D01*
X0186427Y0235734D01*
X0186429Y0235550D01*
X0186427Y0235366D01*
X0186420Y0235182D01*
X0186409Y0234998D01*
X0186393Y0234815D01*
X0186373Y0234632D01*
X0186348Y0234450D01*
X0186319Y0234268D01*
X0186285Y0234087D01*
X0186247Y0233907D01*
X0186204Y0233728D01*
X0186157Y0233550D01*
X0186106Y0233373D01*
X0186050Y0233197D01*
X0185991Y0233023D01*
X0185926Y0232851D01*
X0185858Y0232680D01*
X0185786Y0232511D01*
X0185709Y0232343D01*
X0185628Y0232178D01*
X0185543Y0232015D01*
X0185455Y0231853D01*
X0185362Y0231694D01*
X0185265Y0231538D01*
X0185165Y0231383D01*
X0185061Y0231231D01*
X0184953Y0231082D01*
X0184842Y0230936D01*
X0184727Y0230792D01*
X0184608Y0230651D01*
X0184486Y0230513D01*
X0184361Y0230378D01*
X0184232Y0230247D01*
X0184101Y0230118D01*
X0183966Y0229993D01*
X0183828Y0229871D01*
X0183687Y0229752D01*
X0183543Y0229637D01*
X0183397Y0229526D01*
X0183248Y0229418D01*
X0183096Y0229314D01*
X0182941Y0229214D01*
X0182785Y0229117D01*
X0182626Y0229024D01*
X0182464Y0228936D01*
X0182301Y0228851D01*
X0182136Y0228770D01*
X0181968Y0228693D01*
X0181799Y0228621D01*
X0181628Y0228553D01*
X0181456Y0228488D01*
X0181282Y0228429D01*
X0181106Y0228373D01*
X0180929Y0228322D01*
X0180751Y0228275D01*
X0180572Y0228232D01*
X0180392Y0228194D01*
X0180211Y0228160D01*
X0180029Y0228131D01*
X0179847Y0228106D01*
X0179664Y0228086D01*
X0179481Y0228070D01*
X0179297Y0228059D01*
X0179113Y0228052D01*
X0178929Y0228050D01*
X0178745Y0228052D01*
X0178561Y0228059D01*
X0178377Y0228070D01*
X0178194Y0228086D01*
X0178011Y0228106D01*
X0177829Y0228131D01*
X0177647Y0228160D01*
X0177466Y0228194D01*
X0177286Y0228232D01*
X0177107Y0228275D01*
X0176929Y0228322D01*
X0176752Y0228373D01*
X0176576Y0228429D01*
X0176402Y0228488D01*
X0176230Y0228553D01*
X0176059Y0228621D01*
X0175890Y0228693D01*
X0175722Y0228770D01*
X0175557Y0228851D01*
X0175394Y0228936D01*
X0175232Y0229024D01*
X0175073Y0229117D01*
X0174917Y0229214D01*
X0174762Y0229314D01*
X0174610Y0229418D01*
X0174461Y0229526D01*
X0174315Y0229637D01*
X0174171Y0229752D01*
X0174030Y0229871D01*
X0173892Y0229993D01*
X0173757Y0230118D01*
X0173626Y0230247D01*
X0173497Y0230378D01*
X0173372Y0230513D01*
X0173250Y0230651D01*
X0173131Y0230792D01*
X0173016Y0230936D01*
X0172905Y0231082D01*
X0172797Y0231231D01*
X0172693Y0231383D01*
X0172593Y0231538D01*
X0172496Y0231694D01*
X0172403Y0231853D01*
X0172315Y0232015D01*
X0172230Y0232178D01*
X0172149Y0232343D01*
X0172072Y0232511D01*
X0172000Y0232680D01*
X0171932Y0232851D01*
X0171867Y0233023D01*
X0171808Y0233197D01*
X0171752Y0233373D01*
X0171701Y0233550D01*
X0171654Y0233728D01*
X0171611Y0233907D01*
X0171573Y0234087D01*
X0171539Y0234268D01*
X0171510Y0234450D01*
X0171485Y0234632D01*
X0171465Y0234815D01*
X0171449Y0234998D01*
X0171438Y0235182D01*
X0171431Y0235366D01*
X0171429Y0235550D01*
D11*
X0066033Y0160766D02*
X0065790Y0161032D01*
X0065791Y0161032D02*
X0065865Y0161103D01*
X0065937Y0161177D01*
X0066006Y0161254D01*
X0066072Y0161333D01*
X0066135Y0161414D01*
X0066195Y0161498D01*
X0066251Y0161584D01*
X0066305Y0161673D01*
X0066355Y0161763D01*
X0066401Y0161855D01*
X0066444Y0161948D01*
X0066484Y0162043D01*
X0066520Y0162140D01*
X0066552Y0162238D01*
X0066581Y0162337D01*
X0066606Y0162437D01*
X0066627Y0162538D01*
X0066644Y0162639D01*
X0066658Y0162741D01*
X0066667Y0162844D01*
X0066673Y0162947D01*
X0066675Y0163050D01*
X0066673Y0163153D01*
X0066667Y0163256D01*
X0066658Y0163359D01*
X0066644Y0163461D01*
X0066627Y0163562D01*
X0066606Y0163663D01*
X0066581Y0163763D01*
X0066552Y0163862D01*
X0066520Y0163960D01*
X0066484Y0164057D01*
X0066444Y0164152D01*
X0066401Y0164245D01*
X0066355Y0164337D01*
X0066305Y0164427D01*
X0066251Y0164516D01*
X0066195Y0164602D01*
X0066135Y0164686D01*
X0066072Y0164767D01*
X0066006Y0164846D01*
X0065937Y0164923D01*
X0065865Y0164997D01*
X0065791Y0165068D01*
X0066033Y0165334D01*
X0066033Y0165335D01*
X0066112Y0165259D01*
X0066188Y0165181D01*
X0066262Y0165100D01*
X0066333Y0165017D01*
X0066400Y0164931D01*
X0066465Y0164843D01*
X0066526Y0164753D01*
X0066585Y0164661D01*
X0066640Y0164566D01*
X0066691Y0164470D01*
X0066740Y0164372D01*
X0066784Y0164272D01*
X0066826Y0164171D01*
X0066863Y0164069D01*
X0066897Y0163965D01*
X0066928Y0163860D01*
X0066954Y0163754D01*
X0066977Y0163647D01*
X0066996Y0163540D01*
X0067011Y0163431D01*
X0067023Y0163323D01*
X0067031Y0163214D01*
X0067035Y0163105D01*
X0067035Y0162995D01*
X0067031Y0162886D01*
X0067023Y0162777D01*
X0067011Y0162669D01*
X0066996Y0162560D01*
X0066977Y0162453D01*
X0066954Y0162346D01*
X0066928Y0162240D01*
X0066897Y0162135D01*
X0066863Y0162031D01*
X0066826Y0161929D01*
X0066784Y0161828D01*
X0066740Y0161728D01*
X0066691Y0161630D01*
X0066640Y0161534D01*
X0066585Y0161439D01*
X0066526Y0161347D01*
X0066465Y0161257D01*
X0066400Y0161169D01*
X0066333Y0161083D01*
X0066262Y0161000D01*
X0066188Y0160919D01*
X0066112Y0160841D01*
X0066033Y0160765D01*
X0066008Y0160793D01*
X0066086Y0160867D01*
X0066162Y0160944D01*
X0066234Y0161024D01*
X0066304Y0161106D01*
X0066371Y0161191D01*
X0066435Y0161278D01*
X0066496Y0161367D01*
X0066553Y0161459D01*
X0066608Y0161552D01*
X0066659Y0161647D01*
X0066706Y0161744D01*
X0066750Y0161842D01*
X0066791Y0161942D01*
X0066828Y0162044D01*
X0066862Y0162146D01*
X0066892Y0162250D01*
X0066918Y0162355D01*
X0066941Y0162460D01*
X0066960Y0162566D01*
X0066975Y0162673D01*
X0066986Y0162781D01*
X0066994Y0162888D01*
X0066998Y0162996D01*
X0066998Y0163104D01*
X0066994Y0163212D01*
X0066986Y0163319D01*
X0066975Y0163427D01*
X0066960Y0163534D01*
X0066941Y0163640D01*
X0066918Y0163745D01*
X0066892Y0163850D01*
X0066862Y0163954D01*
X0066828Y0164056D01*
X0066791Y0164158D01*
X0066750Y0164258D01*
X0066706Y0164356D01*
X0066659Y0164453D01*
X0066608Y0164548D01*
X0066553Y0164641D01*
X0066496Y0164733D01*
X0066435Y0164822D01*
X0066371Y0164909D01*
X0066304Y0164994D01*
X0066234Y0165076D01*
X0066162Y0165156D01*
X0066086Y0165233D01*
X0066008Y0165307D01*
X0065983Y0165280D01*
X0066062Y0165205D01*
X0066138Y0165127D01*
X0066211Y0165046D01*
X0066282Y0164963D01*
X0066349Y0164877D01*
X0066413Y0164789D01*
X0066474Y0164699D01*
X0066531Y0164606D01*
X0066585Y0164512D01*
X0066636Y0164415D01*
X0066684Y0164317D01*
X0066727Y0164217D01*
X0066767Y0164116D01*
X0066804Y0164013D01*
X0066837Y0163910D01*
X0066866Y0163805D01*
X0066891Y0163699D01*
X0066912Y0163592D01*
X0066930Y0163484D01*
X0066943Y0163376D01*
X0066953Y0163268D01*
X0066959Y0163159D01*
X0066961Y0163050D01*
X0066959Y0162941D01*
X0066953Y0162832D01*
X0066943Y0162724D01*
X0066930Y0162616D01*
X0066912Y0162508D01*
X0066891Y0162401D01*
X0066866Y0162295D01*
X0066837Y0162190D01*
X0066804Y0162087D01*
X0066767Y0161984D01*
X0066727Y0161883D01*
X0066684Y0161783D01*
X0066636Y0161685D01*
X0066585Y0161588D01*
X0066531Y0161494D01*
X0066474Y0161401D01*
X0066413Y0161311D01*
X0066349Y0161223D01*
X0066282Y0161137D01*
X0066211Y0161054D01*
X0066138Y0160973D01*
X0066062Y0160895D01*
X0065983Y0160820D01*
X0065958Y0160847D01*
X0066036Y0160922D01*
X0066111Y0160999D01*
X0066184Y0161078D01*
X0066253Y0161161D01*
X0066319Y0161245D01*
X0066383Y0161332D01*
X0066443Y0161422D01*
X0066500Y0161513D01*
X0066553Y0161606D01*
X0066603Y0161702D01*
X0066650Y0161798D01*
X0066693Y0161897D01*
X0066733Y0161997D01*
X0066769Y0162098D01*
X0066801Y0162201D01*
X0066830Y0162305D01*
X0066855Y0162409D01*
X0066876Y0162515D01*
X0066893Y0162621D01*
X0066907Y0162728D01*
X0066916Y0162835D01*
X0066922Y0162942D01*
X0066924Y0163050D01*
X0066922Y0163158D01*
X0066916Y0163265D01*
X0066907Y0163372D01*
X0066893Y0163479D01*
X0066876Y0163585D01*
X0066855Y0163691D01*
X0066830Y0163795D01*
X0066801Y0163899D01*
X0066769Y0164002D01*
X0066733Y0164103D01*
X0066693Y0164203D01*
X0066650Y0164302D01*
X0066603Y0164398D01*
X0066553Y0164494D01*
X0066500Y0164587D01*
X0066443Y0164678D01*
X0066383Y0164768D01*
X0066319Y0164855D01*
X0066253Y0164939D01*
X0066184Y0165022D01*
X0066111Y0165101D01*
X0066036Y0165178D01*
X0065958Y0165253D01*
X0065934Y0165225D01*
X0066012Y0165150D01*
X0066088Y0165072D01*
X0066161Y0164992D01*
X0066230Y0164908D01*
X0066297Y0164823D01*
X0066360Y0164735D01*
X0066421Y0164644D01*
X0066478Y0164552D01*
X0066531Y0164457D01*
X0066581Y0164361D01*
X0066627Y0164262D01*
X0066670Y0164162D01*
X0066709Y0164061D01*
X0066744Y0163958D01*
X0066776Y0163854D01*
X0066803Y0163749D01*
X0066827Y0163643D01*
X0066847Y0163537D01*
X0066863Y0163429D01*
X0066875Y0163321D01*
X0066883Y0163213D01*
X0066887Y0163104D01*
X0066887Y0162996D01*
X0066883Y0162887D01*
X0066875Y0162779D01*
X0066863Y0162671D01*
X0066847Y0162563D01*
X0066827Y0162457D01*
X0066803Y0162351D01*
X0066776Y0162246D01*
X0066744Y0162142D01*
X0066709Y0162039D01*
X0066670Y0161938D01*
X0066627Y0161838D01*
X0066581Y0161739D01*
X0066531Y0161643D01*
X0066478Y0161548D01*
X0066421Y0161456D01*
X0066360Y0161365D01*
X0066297Y0161277D01*
X0066230Y0161192D01*
X0066161Y0161108D01*
X0066088Y0161028D01*
X0066012Y0160950D01*
X0065934Y0160875D01*
X0065909Y0160902D01*
X0065986Y0160976D01*
X0066061Y0161053D01*
X0066133Y0161133D01*
X0066202Y0161215D01*
X0066267Y0161300D01*
X0066330Y0161387D01*
X0066390Y0161476D01*
X0066446Y0161567D01*
X0066498Y0161661D01*
X0066548Y0161756D01*
X0066593Y0161853D01*
X0066636Y0161952D01*
X0066674Y0162052D01*
X0066709Y0162153D01*
X0066740Y0162256D01*
X0066767Y0162359D01*
X0066791Y0162464D01*
X0066810Y0162570D01*
X0066826Y0162676D01*
X0066838Y0162782D01*
X0066846Y0162889D01*
X0066850Y0162996D01*
X0066850Y0163104D01*
X0066846Y0163211D01*
X0066838Y0163318D01*
X0066826Y0163424D01*
X0066810Y0163530D01*
X0066791Y0163636D01*
X0066767Y0163741D01*
X0066740Y0163844D01*
X0066709Y0163947D01*
X0066674Y0164048D01*
X0066636Y0164148D01*
X0066593Y0164247D01*
X0066548Y0164344D01*
X0066498Y0164439D01*
X0066446Y0164533D01*
X0066390Y0164624D01*
X0066330Y0164713D01*
X0066267Y0164800D01*
X0066202Y0164885D01*
X0066133Y0164967D01*
X0066061Y0165047D01*
X0065986Y0165124D01*
X0065909Y0165198D01*
X0065884Y0165170D01*
X0065960Y0165097D01*
X0066034Y0165021D01*
X0066105Y0164943D01*
X0066173Y0164862D01*
X0066238Y0164778D01*
X0066300Y0164692D01*
X0066359Y0164604D01*
X0066414Y0164514D01*
X0066466Y0164422D01*
X0066515Y0164328D01*
X0066560Y0164232D01*
X0066601Y0164134D01*
X0066639Y0164036D01*
X0066674Y0163935D01*
X0066704Y0163834D01*
X0066731Y0163732D01*
X0066754Y0163628D01*
X0066774Y0163524D01*
X0066789Y0163420D01*
X0066801Y0163314D01*
X0066809Y0163209D01*
X0066813Y0163103D01*
X0066813Y0162997D01*
X0066809Y0162891D01*
X0066801Y0162786D01*
X0066789Y0162680D01*
X0066774Y0162576D01*
X0066754Y0162472D01*
X0066731Y0162368D01*
X0066704Y0162266D01*
X0066674Y0162165D01*
X0066639Y0162064D01*
X0066601Y0161966D01*
X0066560Y0161868D01*
X0066515Y0161772D01*
X0066466Y0161678D01*
X0066414Y0161586D01*
X0066359Y0161496D01*
X0066300Y0161408D01*
X0066238Y0161322D01*
X0066173Y0161238D01*
X0066105Y0161157D01*
X0066034Y0161079D01*
X0065960Y0161003D01*
X0065884Y0160930D01*
X0065859Y0160957D01*
X0065934Y0161029D01*
X0066007Y0161104D01*
X0066077Y0161182D01*
X0066144Y0161262D01*
X0066208Y0161344D01*
X0066270Y0161429D01*
X0066327Y0161516D01*
X0066382Y0161605D01*
X0066433Y0161696D01*
X0066481Y0161789D01*
X0066526Y0161884D01*
X0066567Y0161980D01*
X0066605Y0162077D01*
X0066639Y0162176D01*
X0066669Y0162276D01*
X0066695Y0162377D01*
X0066718Y0162479D01*
X0066737Y0162582D01*
X0066753Y0162685D01*
X0066764Y0162789D01*
X0066772Y0162893D01*
X0066776Y0162998D01*
X0066776Y0163102D01*
X0066772Y0163207D01*
X0066764Y0163311D01*
X0066753Y0163415D01*
X0066737Y0163518D01*
X0066718Y0163621D01*
X0066695Y0163723D01*
X0066669Y0163824D01*
X0066639Y0163924D01*
X0066605Y0164023D01*
X0066567Y0164120D01*
X0066526Y0164216D01*
X0066481Y0164311D01*
X0066433Y0164404D01*
X0066382Y0164495D01*
X0066327Y0164584D01*
X0066270Y0164671D01*
X0066208Y0164756D01*
X0066144Y0164838D01*
X0066077Y0164918D01*
X0066007Y0164996D01*
X0065934Y0165071D01*
X0065859Y0165143D01*
X0065834Y0165116D01*
X0065910Y0165043D01*
X0065984Y0164967D01*
X0066054Y0164889D01*
X0066122Y0164808D01*
X0066186Y0164724D01*
X0066247Y0164638D01*
X0066305Y0164550D01*
X0066360Y0164460D01*
X0066411Y0164368D01*
X0066459Y0164273D01*
X0066503Y0164178D01*
X0066543Y0164080D01*
X0066580Y0163981D01*
X0066613Y0163881D01*
X0066643Y0163780D01*
X0066668Y0163678D01*
X0066690Y0163574D01*
X0066707Y0163470D01*
X0066721Y0163366D01*
X0066731Y0163261D01*
X0066737Y0163155D01*
X0066739Y0163050D01*
X0066737Y0162945D01*
X0066731Y0162839D01*
X0066721Y0162734D01*
X0066707Y0162630D01*
X0066690Y0162526D01*
X0066668Y0162422D01*
X0066643Y0162320D01*
X0066613Y0162219D01*
X0066580Y0162119D01*
X0066543Y0162020D01*
X0066503Y0161922D01*
X0066459Y0161827D01*
X0066411Y0161732D01*
X0066360Y0161640D01*
X0066305Y0161550D01*
X0066247Y0161462D01*
X0066186Y0161376D01*
X0066122Y0161292D01*
X0066054Y0161211D01*
X0065984Y0161133D01*
X0065910Y0161057D01*
X0065834Y0160984D01*
X0065809Y0161012D01*
X0065884Y0161084D01*
X0065957Y0161158D01*
X0066026Y0161236D01*
X0066093Y0161316D01*
X0066156Y0161398D01*
X0066217Y0161483D01*
X0066274Y0161570D01*
X0066328Y0161659D01*
X0066378Y0161750D01*
X0066425Y0161843D01*
X0066469Y0161937D01*
X0066509Y0162033D01*
X0066545Y0162131D01*
X0066578Y0162230D01*
X0066607Y0162330D01*
X0066632Y0162431D01*
X0066653Y0162533D01*
X0066671Y0162635D01*
X0066684Y0162738D01*
X0066694Y0162842D01*
X0066700Y0162946D01*
X0066702Y0163050D01*
X0066700Y0163154D01*
X0066694Y0163258D01*
X0066684Y0163362D01*
X0066671Y0163465D01*
X0066653Y0163567D01*
X0066632Y0163669D01*
X0066607Y0163770D01*
X0066578Y0163870D01*
X0066545Y0163969D01*
X0066509Y0164067D01*
X0066469Y0164163D01*
X0066425Y0164257D01*
X0066378Y0164350D01*
X0066328Y0164441D01*
X0066274Y0164530D01*
X0066217Y0164617D01*
X0066156Y0164702D01*
X0066093Y0164784D01*
X0066026Y0164864D01*
X0065957Y0164942D01*
X0065884Y0165016D01*
X0065809Y0165088D01*
X0061825Y0165334D02*
X0062068Y0165068D01*
X0062067Y0165068D02*
X0061993Y0164997D01*
X0061921Y0164923D01*
X0061852Y0164846D01*
X0061786Y0164767D01*
X0061723Y0164686D01*
X0061663Y0164602D01*
X0061607Y0164516D01*
X0061553Y0164427D01*
X0061503Y0164337D01*
X0061457Y0164245D01*
X0061414Y0164152D01*
X0061374Y0164057D01*
X0061338Y0163960D01*
X0061306Y0163862D01*
X0061277Y0163763D01*
X0061252Y0163663D01*
X0061231Y0163562D01*
X0061214Y0163461D01*
X0061200Y0163359D01*
X0061191Y0163256D01*
X0061185Y0163153D01*
X0061183Y0163050D01*
X0061185Y0162947D01*
X0061191Y0162844D01*
X0061200Y0162741D01*
X0061214Y0162639D01*
X0061231Y0162538D01*
X0061252Y0162437D01*
X0061277Y0162337D01*
X0061306Y0162238D01*
X0061338Y0162140D01*
X0061374Y0162043D01*
X0061414Y0161948D01*
X0061457Y0161855D01*
X0061503Y0161763D01*
X0061553Y0161673D01*
X0061607Y0161584D01*
X0061663Y0161498D01*
X0061723Y0161414D01*
X0061786Y0161333D01*
X0061852Y0161254D01*
X0061921Y0161177D01*
X0061993Y0161103D01*
X0062067Y0161032D01*
X0061825Y0160766D01*
X0061825Y0160765D01*
X0061746Y0160841D01*
X0061670Y0160919D01*
X0061596Y0161000D01*
X0061525Y0161083D01*
X0061458Y0161169D01*
X0061393Y0161257D01*
X0061332Y0161347D01*
X0061273Y0161439D01*
X0061218Y0161534D01*
X0061167Y0161630D01*
X0061118Y0161728D01*
X0061074Y0161828D01*
X0061032Y0161929D01*
X0060995Y0162031D01*
X0060961Y0162135D01*
X0060930Y0162240D01*
X0060904Y0162346D01*
X0060881Y0162453D01*
X0060862Y0162560D01*
X0060847Y0162669D01*
X0060835Y0162777D01*
X0060827Y0162886D01*
X0060823Y0162995D01*
X0060823Y0163105D01*
X0060827Y0163214D01*
X0060835Y0163323D01*
X0060847Y0163431D01*
X0060862Y0163540D01*
X0060881Y0163647D01*
X0060904Y0163754D01*
X0060930Y0163860D01*
X0060961Y0163965D01*
X0060995Y0164069D01*
X0061032Y0164171D01*
X0061074Y0164272D01*
X0061118Y0164372D01*
X0061167Y0164470D01*
X0061218Y0164566D01*
X0061273Y0164661D01*
X0061332Y0164753D01*
X0061393Y0164843D01*
X0061458Y0164931D01*
X0061525Y0165017D01*
X0061596Y0165100D01*
X0061670Y0165181D01*
X0061746Y0165259D01*
X0061825Y0165335D01*
X0061850Y0165307D01*
X0061772Y0165233D01*
X0061696Y0165156D01*
X0061624Y0165076D01*
X0061554Y0164994D01*
X0061487Y0164909D01*
X0061423Y0164822D01*
X0061362Y0164733D01*
X0061305Y0164641D01*
X0061250Y0164548D01*
X0061199Y0164453D01*
X0061152Y0164356D01*
X0061108Y0164258D01*
X0061067Y0164158D01*
X0061030Y0164056D01*
X0060996Y0163954D01*
X0060966Y0163850D01*
X0060940Y0163745D01*
X0060917Y0163640D01*
X0060898Y0163534D01*
X0060883Y0163427D01*
X0060872Y0163319D01*
X0060864Y0163212D01*
X0060860Y0163104D01*
X0060860Y0162996D01*
X0060864Y0162888D01*
X0060872Y0162781D01*
X0060883Y0162673D01*
X0060898Y0162566D01*
X0060917Y0162460D01*
X0060940Y0162355D01*
X0060966Y0162250D01*
X0060996Y0162146D01*
X0061030Y0162044D01*
X0061067Y0161942D01*
X0061108Y0161842D01*
X0061152Y0161744D01*
X0061199Y0161647D01*
X0061250Y0161552D01*
X0061305Y0161459D01*
X0061362Y0161367D01*
X0061423Y0161278D01*
X0061487Y0161191D01*
X0061554Y0161106D01*
X0061624Y0161024D01*
X0061696Y0160944D01*
X0061772Y0160867D01*
X0061850Y0160793D01*
X0061875Y0160820D01*
X0061796Y0160895D01*
X0061720Y0160973D01*
X0061647Y0161054D01*
X0061576Y0161137D01*
X0061509Y0161223D01*
X0061445Y0161311D01*
X0061384Y0161401D01*
X0061327Y0161494D01*
X0061273Y0161588D01*
X0061222Y0161685D01*
X0061174Y0161783D01*
X0061131Y0161883D01*
X0061091Y0161984D01*
X0061054Y0162087D01*
X0061021Y0162190D01*
X0060992Y0162295D01*
X0060967Y0162401D01*
X0060946Y0162508D01*
X0060928Y0162616D01*
X0060915Y0162724D01*
X0060905Y0162832D01*
X0060899Y0162941D01*
X0060897Y0163050D01*
X0060899Y0163159D01*
X0060905Y0163268D01*
X0060915Y0163376D01*
X0060928Y0163484D01*
X0060946Y0163592D01*
X0060967Y0163699D01*
X0060992Y0163805D01*
X0061021Y0163910D01*
X0061054Y0164013D01*
X0061091Y0164116D01*
X0061131Y0164217D01*
X0061174Y0164317D01*
X0061222Y0164415D01*
X0061273Y0164512D01*
X0061327Y0164606D01*
X0061384Y0164699D01*
X0061445Y0164789D01*
X0061509Y0164877D01*
X0061576Y0164963D01*
X0061647Y0165046D01*
X0061720Y0165127D01*
X0061796Y0165205D01*
X0061875Y0165280D01*
X0061900Y0165253D01*
X0061822Y0165178D01*
X0061747Y0165101D01*
X0061674Y0165022D01*
X0061605Y0164939D01*
X0061539Y0164855D01*
X0061475Y0164768D01*
X0061415Y0164678D01*
X0061358Y0164587D01*
X0061305Y0164494D01*
X0061255Y0164398D01*
X0061208Y0164302D01*
X0061165Y0164203D01*
X0061125Y0164103D01*
X0061089Y0164002D01*
X0061057Y0163899D01*
X0061028Y0163795D01*
X0061003Y0163691D01*
X0060982Y0163585D01*
X0060965Y0163479D01*
X0060951Y0163372D01*
X0060942Y0163265D01*
X0060936Y0163158D01*
X0060934Y0163050D01*
X0060936Y0162942D01*
X0060942Y0162835D01*
X0060951Y0162728D01*
X0060965Y0162621D01*
X0060982Y0162515D01*
X0061003Y0162409D01*
X0061028Y0162305D01*
X0061057Y0162201D01*
X0061089Y0162098D01*
X0061125Y0161997D01*
X0061165Y0161897D01*
X0061208Y0161798D01*
X0061255Y0161702D01*
X0061305Y0161606D01*
X0061358Y0161513D01*
X0061415Y0161422D01*
X0061475Y0161332D01*
X0061539Y0161245D01*
X0061605Y0161161D01*
X0061674Y0161078D01*
X0061747Y0160999D01*
X0061822Y0160922D01*
X0061900Y0160847D01*
X0061924Y0160875D01*
X0061846Y0160950D01*
X0061770Y0161028D01*
X0061697Y0161108D01*
X0061628Y0161192D01*
X0061561Y0161277D01*
X0061498Y0161365D01*
X0061437Y0161456D01*
X0061380Y0161548D01*
X0061327Y0161643D01*
X0061277Y0161739D01*
X0061231Y0161838D01*
X0061188Y0161938D01*
X0061149Y0162039D01*
X0061114Y0162142D01*
X0061082Y0162246D01*
X0061055Y0162351D01*
X0061031Y0162457D01*
X0061011Y0162563D01*
X0060995Y0162671D01*
X0060983Y0162779D01*
X0060975Y0162887D01*
X0060971Y0162996D01*
X0060971Y0163104D01*
X0060975Y0163213D01*
X0060983Y0163321D01*
X0060995Y0163429D01*
X0061011Y0163537D01*
X0061031Y0163643D01*
X0061055Y0163749D01*
X0061082Y0163854D01*
X0061114Y0163958D01*
X0061149Y0164061D01*
X0061188Y0164162D01*
X0061231Y0164262D01*
X0061277Y0164361D01*
X0061327Y0164457D01*
X0061380Y0164552D01*
X0061437Y0164644D01*
X0061498Y0164735D01*
X0061561Y0164823D01*
X0061628Y0164908D01*
X0061697Y0164992D01*
X0061770Y0165072D01*
X0061846Y0165150D01*
X0061924Y0165225D01*
X0061949Y0165198D01*
X0061872Y0165124D01*
X0061797Y0165047D01*
X0061725Y0164967D01*
X0061656Y0164885D01*
X0061591Y0164800D01*
X0061528Y0164713D01*
X0061468Y0164624D01*
X0061412Y0164533D01*
X0061360Y0164439D01*
X0061310Y0164344D01*
X0061265Y0164247D01*
X0061222Y0164148D01*
X0061184Y0164048D01*
X0061149Y0163947D01*
X0061118Y0163844D01*
X0061091Y0163741D01*
X0061067Y0163636D01*
X0061048Y0163530D01*
X0061032Y0163424D01*
X0061020Y0163318D01*
X0061012Y0163211D01*
X0061008Y0163104D01*
X0061008Y0162996D01*
X0061012Y0162889D01*
X0061020Y0162782D01*
X0061032Y0162676D01*
X0061048Y0162570D01*
X0061067Y0162464D01*
X0061091Y0162359D01*
X0061118Y0162256D01*
X0061149Y0162153D01*
X0061184Y0162052D01*
X0061222Y0161952D01*
X0061265Y0161853D01*
X0061310Y0161756D01*
X0061360Y0161661D01*
X0061412Y0161567D01*
X0061468Y0161476D01*
X0061528Y0161387D01*
X0061591Y0161300D01*
X0061656Y0161215D01*
X0061725Y0161133D01*
X0061797Y0161053D01*
X0061872Y0160976D01*
X0061949Y0160902D01*
X0061974Y0160930D01*
X0061898Y0161003D01*
X0061824Y0161079D01*
X0061753Y0161157D01*
X0061685Y0161238D01*
X0061620Y0161322D01*
X0061558Y0161408D01*
X0061499Y0161496D01*
X0061444Y0161586D01*
X0061392Y0161678D01*
X0061343Y0161772D01*
X0061298Y0161868D01*
X0061257Y0161966D01*
X0061219Y0162064D01*
X0061184Y0162165D01*
X0061154Y0162266D01*
X0061127Y0162368D01*
X0061104Y0162472D01*
X0061084Y0162576D01*
X0061069Y0162680D01*
X0061057Y0162786D01*
X0061049Y0162891D01*
X0061045Y0162997D01*
X0061045Y0163103D01*
X0061049Y0163209D01*
X0061057Y0163314D01*
X0061069Y0163420D01*
X0061084Y0163524D01*
X0061104Y0163628D01*
X0061127Y0163732D01*
X0061154Y0163834D01*
X0061184Y0163935D01*
X0061219Y0164036D01*
X0061257Y0164134D01*
X0061298Y0164232D01*
X0061343Y0164328D01*
X0061392Y0164422D01*
X0061444Y0164514D01*
X0061499Y0164604D01*
X0061558Y0164692D01*
X0061620Y0164778D01*
X0061685Y0164862D01*
X0061753Y0164943D01*
X0061824Y0165021D01*
X0061898Y0165097D01*
X0061974Y0165170D01*
X0061999Y0165143D01*
X0061924Y0165071D01*
X0061851Y0164996D01*
X0061781Y0164918D01*
X0061714Y0164838D01*
X0061650Y0164756D01*
X0061588Y0164671D01*
X0061531Y0164584D01*
X0061476Y0164495D01*
X0061425Y0164404D01*
X0061377Y0164311D01*
X0061332Y0164216D01*
X0061291Y0164120D01*
X0061253Y0164023D01*
X0061219Y0163924D01*
X0061189Y0163824D01*
X0061163Y0163723D01*
X0061140Y0163621D01*
X0061121Y0163518D01*
X0061105Y0163415D01*
X0061094Y0163311D01*
X0061086Y0163207D01*
X0061082Y0163102D01*
X0061082Y0162998D01*
X0061086Y0162893D01*
X0061094Y0162789D01*
X0061105Y0162685D01*
X0061121Y0162582D01*
X0061140Y0162479D01*
X0061163Y0162377D01*
X0061189Y0162276D01*
X0061219Y0162176D01*
X0061253Y0162077D01*
X0061291Y0161980D01*
X0061332Y0161884D01*
X0061377Y0161789D01*
X0061425Y0161696D01*
X0061476Y0161605D01*
X0061531Y0161516D01*
X0061588Y0161429D01*
X0061650Y0161344D01*
X0061714Y0161262D01*
X0061781Y0161182D01*
X0061851Y0161104D01*
X0061924Y0161029D01*
X0061999Y0160957D01*
X0062024Y0160984D01*
X0061948Y0161057D01*
X0061874Y0161133D01*
X0061804Y0161211D01*
X0061736Y0161292D01*
X0061672Y0161376D01*
X0061611Y0161462D01*
X0061553Y0161550D01*
X0061498Y0161640D01*
X0061447Y0161732D01*
X0061399Y0161827D01*
X0061355Y0161922D01*
X0061315Y0162020D01*
X0061278Y0162119D01*
X0061245Y0162219D01*
X0061215Y0162320D01*
X0061190Y0162422D01*
X0061168Y0162526D01*
X0061151Y0162630D01*
X0061137Y0162734D01*
X0061127Y0162839D01*
X0061121Y0162945D01*
X0061119Y0163050D01*
X0061121Y0163155D01*
X0061127Y0163261D01*
X0061137Y0163366D01*
X0061151Y0163470D01*
X0061168Y0163574D01*
X0061190Y0163678D01*
X0061215Y0163780D01*
X0061245Y0163881D01*
X0061278Y0163981D01*
X0061315Y0164080D01*
X0061355Y0164178D01*
X0061399Y0164273D01*
X0061447Y0164368D01*
X0061498Y0164460D01*
X0061553Y0164550D01*
X0061611Y0164638D01*
X0061672Y0164724D01*
X0061736Y0164808D01*
X0061804Y0164889D01*
X0061874Y0164967D01*
X0061948Y0165043D01*
X0062024Y0165116D01*
X0062049Y0165088D01*
X0061974Y0165016D01*
X0061901Y0164942D01*
X0061832Y0164864D01*
X0061765Y0164784D01*
X0061702Y0164702D01*
X0061641Y0164617D01*
X0061584Y0164530D01*
X0061530Y0164441D01*
X0061480Y0164350D01*
X0061433Y0164257D01*
X0061389Y0164163D01*
X0061349Y0164067D01*
X0061313Y0163969D01*
X0061280Y0163870D01*
X0061251Y0163770D01*
X0061226Y0163669D01*
X0061205Y0163567D01*
X0061187Y0163465D01*
X0061174Y0163362D01*
X0061164Y0163258D01*
X0061158Y0163154D01*
X0061156Y0163050D01*
X0061158Y0162946D01*
X0061164Y0162842D01*
X0061174Y0162738D01*
X0061187Y0162635D01*
X0061205Y0162533D01*
X0061226Y0162431D01*
X0061251Y0162330D01*
X0061280Y0162230D01*
X0061313Y0162131D01*
X0061349Y0162033D01*
X0061389Y0161937D01*
X0061433Y0161843D01*
X0061480Y0161750D01*
X0061530Y0161659D01*
X0061584Y0161570D01*
X0061641Y0161483D01*
X0061702Y0161398D01*
X0061765Y0161316D01*
X0061832Y0161236D01*
X0061901Y0161158D01*
X0061974Y0161084D01*
X0062049Y0161012D01*
D12*
X0063929Y0163050D03*
D13*
X0066193Y0160983D03*
D14*
X0037529Y0151302D02*
X0035060Y0151302D01*
X0036294Y0152536D02*
X0036294Y0150067D01*
X0143743Y0147302D02*
X0146212Y0147302D01*
X0144978Y0148536D02*
X0144978Y0146067D01*
D15*
X0145317Y0138709D03*
X0150041Y0138709D03*
X0035041Y0159891D03*
X0030317Y0159891D03*
D16*
X0032679Y0159891D03*
X0147679Y0138709D03*
D17*
X0139834Y0160855D02*
X0139834Y0167745D01*
X0128023Y0167745D01*
X0128023Y0160855D01*
X0139834Y0160855D01*
X0123437Y0198483D02*
X0123437Y0227617D01*
X0094382Y0227617D01*
X0094382Y0198483D01*
X0123437Y0198483D01*
X0126679Y0256050D02*
X0168679Y0256050D01*
X0168679Y0256150D02*
X0168679Y0318550D01*
X0168679Y0256150D01*
X0126179Y0256150D02*
X0126179Y0318550D01*
X0126679Y0318550D02*
X0168679Y0318550D01*
X0119929Y0318550D02*
X0119929Y0256150D01*
X0119929Y0318550D01*
X0077929Y0318550D01*
X0077429Y0318550D02*
X0077429Y0256150D01*
X0077929Y0256050D02*
X0119929Y0256050D01*
X0080937Y0227617D02*
X0080937Y0198483D01*
X0051882Y0198483D01*
X0051882Y0227617D01*
X0080937Y0227617D01*
X0071179Y0256050D02*
X0029179Y0256050D01*
X0028679Y0256150D02*
X0028679Y0318550D01*
X0029179Y0318550D02*
X0071179Y0318550D01*
X0071179Y0256150D01*
X0071179Y0318550D01*
X0031163Y0148956D02*
X0029195Y0148956D01*
X0029195Y0137144D01*
X0031163Y0137144D01*
X0031163Y0148956D01*
X0137679Y0061800D02*
X0137681Y0061870D01*
X0137687Y0061940D01*
X0137697Y0062009D01*
X0137710Y0062078D01*
X0137728Y0062146D01*
X0137749Y0062213D01*
X0137774Y0062278D01*
X0137803Y0062342D01*
X0137835Y0062405D01*
X0137871Y0062465D01*
X0137910Y0062523D01*
X0137952Y0062579D01*
X0137997Y0062633D01*
X0138045Y0062684D01*
X0138096Y0062732D01*
X0138150Y0062777D01*
X0138206Y0062819D01*
X0138264Y0062858D01*
X0138324Y0062894D01*
X0138387Y0062926D01*
X0138451Y0062955D01*
X0138516Y0062980D01*
X0138583Y0063001D01*
X0138651Y0063019D01*
X0138720Y0063032D01*
X0138789Y0063042D01*
X0138859Y0063048D01*
X0138929Y0063050D01*
X0138999Y0063048D01*
X0139069Y0063042D01*
X0139138Y0063032D01*
X0139207Y0063019D01*
X0139275Y0063001D01*
X0139342Y0062980D01*
X0139407Y0062955D01*
X0139471Y0062926D01*
X0139534Y0062894D01*
X0139594Y0062858D01*
X0139652Y0062819D01*
X0139708Y0062777D01*
X0139762Y0062732D01*
X0139813Y0062684D01*
X0139861Y0062633D01*
X0139906Y0062579D01*
X0139948Y0062523D01*
X0139987Y0062465D01*
X0140023Y0062405D01*
X0140055Y0062342D01*
X0140084Y0062278D01*
X0140109Y0062213D01*
X0140130Y0062146D01*
X0140148Y0062078D01*
X0140161Y0062009D01*
X0140171Y0061940D01*
X0140177Y0061870D01*
X0140179Y0061800D01*
X0140177Y0061730D01*
X0140171Y0061660D01*
X0140161Y0061591D01*
X0140148Y0061522D01*
X0140130Y0061454D01*
X0140109Y0061387D01*
X0140084Y0061322D01*
X0140055Y0061258D01*
X0140023Y0061195D01*
X0139987Y0061135D01*
X0139948Y0061077D01*
X0139906Y0061021D01*
X0139861Y0060967D01*
X0139813Y0060916D01*
X0139762Y0060868D01*
X0139708Y0060823D01*
X0139652Y0060781D01*
X0139594Y0060742D01*
X0139534Y0060706D01*
X0139471Y0060674D01*
X0139407Y0060645D01*
X0139342Y0060620D01*
X0139275Y0060599D01*
X0139207Y0060581D01*
X0139138Y0060568D01*
X0139069Y0060558D01*
X0138999Y0060552D01*
X0138929Y0060550D01*
X0138859Y0060552D01*
X0138789Y0060558D01*
X0138720Y0060568D01*
X0138651Y0060581D01*
X0138583Y0060599D01*
X0138516Y0060620D01*
X0138451Y0060645D01*
X0138387Y0060674D01*
X0138324Y0060706D01*
X0138264Y0060742D01*
X0138206Y0060781D01*
X0138150Y0060823D01*
X0138096Y0060868D01*
X0138045Y0060916D01*
X0137997Y0060967D01*
X0137952Y0061021D01*
X0137910Y0061077D01*
X0137871Y0061135D01*
X0137835Y0061195D01*
X0137803Y0061258D01*
X0137774Y0061322D01*
X0137749Y0061387D01*
X0137728Y0061454D01*
X0137710Y0061522D01*
X0137697Y0061591D01*
X0137687Y0061660D01*
X0137681Y0061730D01*
X0137679Y0061800D01*
X0163880Y0080629D02*
X0163880Y0090471D01*
X0176478Y0090471D01*
X0176478Y0080629D01*
X0163880Y0080629D01*
X0164076Y0085550D02*
X0168210Y0085550D01*
X0169195Y0086534D01*
X0169195Y0090274D01*
D18*
X0170173Y0037220D03*
X0170173Y0031420D03*
X0178923Y0031420D03*
X0178923Y0037220D03*
X0187673Y0037220D03*
X0187673Y0031420D03*
X0093935Y0056380D03*
X0093935Y0062180D03*
X0085185Y0062180D03*
X0085185Y0056380D03*
X0072673Y0056420D03*
X0072673Y0062220D03*
X0063935Y0062180D03*
X0063935Y0056380D03*
X0056423Y0126420D03*
X0056423Y0132220D03*
X0025173Y0156420D03*
X0025173Y0162220D03*
X0072685Y0237630D03*
X0072685Y0243430D03*
X0140185Y0242180D03*
X0140185Y0236380D03*
X0147673Y0236420D03*
X0147673Y0242220D03*
X0158935Y0242180D03*
X0158935Y0236380D03*
D19*
X0140599Y0224306D03*
X0140599Y0216806D03*
X0134799Y0216806D03*
X0134799Y0224306D03*
X0134799Y0209306D03*
X0140599Y0209306D03*
X0140599Y0201806D03*
X0134799Y0201806D03*
X0124308Y0244294D03*
X0118508Y0244294D03*
X0108058Y0244294D03*
X0102258Y0244294D03*
X0091808Y0244294D03*
X0091808Y0236794D03*
X0086008Y0236794D03*
X0086008Y0244294D03*
X0061849Y0244306D03*
X0056049Y0244306D03*
X0056049Y0235556D03*
X0061849Y0235556D03*
X0063099Y0186806D03*
X0057299Y0186806D03*
X0054308Y0141794D03*
X0048508Y0141794D03*
X0073549Y0134306D03*
X0079349Y0134306D03*
X0053099Y0085556D03*
X0047299Y0085556D03*
X0047299Y0076806D03*
X0047299Y0068056D03*
X0053099Y0068056D03*
X0053099Y0076806D03*
X0053099Y0059306D03*
X0047299Y0059306D03*
X0047299Y0050556D03*
X0053099Y0050556D03*
X0131008Y0139294D03*
X0136808Y0139294D03*
D20*
X0141829Y0059500D02*
X0161029Y0059500D01*
X0161029Y0044100D01*
X0141829Y0044100D01*
X0141829Y0059500D01*
X0043679Y0206000D02*
X0043679Y0217600D01*
X0032679Y0195400D02*
X0032713Y0195398D01*
X0032746Y0195392D01*
X0032778Y0195383D01*
X0032809Y0195370D01*
X0032839Y0195354D01*
X0032866Y0195335D01*
X0032891Y0195312D01*
X0032914Y0195287D01*
X0032933Y0195260D01*
X0032949Y0195230D01*
X0032962Y0195199D01*
X0032971Y0195167D01*
X0032977Y0195134D01*
X0032979Y0195100D01*
X0032977Y0195066D01*
X0032971Y0195033D01*
X0032962Y0195001D01*
X0032949Y0194970D01*
X0032933Y0194940D01*
X0032914Y0194913D01*
X0032891Y0194888D01*
X0032866Y0194865D01*
X0032839Y0194846D01*
X0032809Y0194830D01*
X0032778Y0194817D01*
X0032746Y0194808D01*
X0032713Y0194802D01*
X0032679Y0194800D01*
X0032645Y0194802D01*
X0032612Y0194808D01*
X0032580Y0194817D01*
X0032549Y0194830D01*
X0032519Y0194846D01*
X0032492Y0194865D01*
X0032467Y0194888D01*
X0032444Y0194913D01*
X0032425Y0194940D01*
X0032409Y0194970D01*
X0032396Y0195001D01*
X0032387Y0195033D01*
X0032381Y0195066D01*
X0032379Y0195100D01*
X0032381Y0195134D01*
X0032387Y0195167D01*
X0032396Y0195199D01*
X0032409Y0195230D01*
X0032425Y0195260D01*
X0032444Y0195287D01*
X0032467Y0195312D01*
X0032492Y0195335D01*
X0032519Y0195354D01*
X0032549Y0195370D01*
X0032580Y0195383D01*
X0032612Y0195392D01*
X0032645Y0195398D01*
X0032679Y0195400D01*
X0021679Y0206000D02*
X0021679Y0217600D01*
D21*
X0166919Y0077627D02*
X0166919Y0076545D01*
X0167279Y0076545D02*
X0166558Y0076545D01*
X0167279Y0077266D02*
X0166919Y0077627D01*
X0167646Y0077627D02*
X0167646Y0077447D01*
X0168006Y0077086D01*
X0168006Y0076545D01*
X0168006Y0077086D02*
X0168367Y0077447D01*
X0168367Y0077627D01*
M02*
